<svg width="1440" height="1024" viewBox="0 0 1440 1024" fill="none" xmlns="http://www.w3.org/2000/svg">
<rect width="1440" height="1024" fill="white"/>
<g clip-path="url(#clip0_43_22)">
<path d="M309.546 109.782L284.646 158.979L306.786 168.71L331.687 119.513L309.546 109.782Z" fill="#76BF6B" fill-opacity="0.5"/>
<path d="M1392.9 149.881L1334.81 155.246L1337.23 177.945L1395.32 172.58L1392.9 149.881Z" fill="#32ACE2" fill-opacity="0.5"/>
<path d="M1174.8 0.0143135L1163.72 20.3567L1215.78 44.9666L1226.86 24.6242L1174.8 0.0143135Z" fill="#F3CB52" fill-opacity="0.5"/>
<path d="M70.9333 84.8728H12.5598V107.683H70.9333V84.8728Z" fill="#32ACE2" fill-opacity="0.5"/>
<path d="M1440 332.946H1415.52V387.34H1440V332.946Z" fill="#76BF6B" fill-opacity="0.5"/>
<path d="M66.3861 282.26L54.1465 302.015L104.699 329.212L116.939 309.457L66.3861 282.26Z" fill="#F3CB52" fill-opacity="0.5"/>
<path d="M1051.25 678.157L1019.73 723.848L1040.29 736.166L1071.81 690.475L1051.25 678.157Z" fill="#EF4B68" fill-opacity="0.5" stroke="white" stroke-width="0.998599" stroke-miterlimit="10"/>
<path d="M786.514 676.212L750.416 718.958L769.653 733.064L805.751 690.318L786.514 676.212Z" fill="#32ACE2" fill-opacity="0.5"/>
<path d="M1118.51 956.046L1096.37 965.776L1121.27 1014.97L1143.41 1005.24L1118.51 956.046Z" fill="#76BF6B" fill-opacity="0.5"/>
<path d="M1287.19 697.21L1265.99 708.615L1295.17 755.722L1316.37 744.317L1287.19 697.21Z" fill="#F3CB52" fill-opacity="0.5"/>
<path d="M14.1373 689.287L-0.0606079 707.763L47.222 739.312L61.4199 720.836L14.1373 689.287Z" fill="#EF4B68" fill-opacity="0.5" stroke="white" stroke-width="0.996243" stroke-miterlimit="10"/>
<path d="M35.1684 995.854L32.7541 1018.55L90.843 1023.92L93.2573 1001.22L35.1684 995.854Z" fill="#32ACE2" fill-opacity="0.5"/>
<path d="M367.185 696.408L313.119 716.917L322.349 738.044L376.414 717.535L367.185 696.408Z" fill="#76BF6B" fill-opacity="0.5"/>
<path d="M253.348 846.147L201.291 870.757L212.366 891.1L264.424 866.49L253.348 846.147Z" fill="#F3CB52" fill-opacity="0.5"/>
<path d="M583.835 790.707L571.927 843.958L595.892 848.611L607.799 795.36L583.835 790.707Z" fill="#EF4B68" fill-opacity="0.5" stroke="white" stroke-miterlimit="10"/>
<path d="M1415.52 931.003H1357.15V953.814H1415.52V931.003Z" fill="#32ACE2" fill-opacity="0.5"/>
<path d="M444.825 958.2H420.346V1012.59H444.825V958.2Z" fill="#76BF6B" fill-opacity="0.5"/>
<path d="M896.121 894.079L845.568 921.276L857.808 941.031L908.361 913.833L896.121 894.079Z" fill="#F3CB52" fill-opacity="0.5"/>
<path d="M772.594 13.2485L751.98 25.5515L783.464 71.3557L804.078 59.0526L772.594 13.2485Z" fill="#EF4B68" fill-opacity="0.5" stroke="white" stroke-miterlimit="10"/>
<path d="M478.728 227.283L459.491 241.389L495.59 284.136L514.827 270.029L478.728 227.283Z" fill="#32ACE2" fill-opacity="0.5"/>
<path d="M146.76 506.969L121.86 556.166L144 565.897L168.9 516.699L146.76 506.969Z" fill="#76BF6B" fill-opacity="0.5"/>
<path d="M1219.23 243.155L1171.85 274.927L1186.15 293.442L1233.53 261.669L1219.23 243.155Z" fill="#EF4B68" fill-opacity="0.5" stroke="white" stroke-miterlimit="10"/>
<path d="M1291.16 536.559L1233.07 541.923L1235.49 564.623L1293.58 559.258L1291.16 536.559Z" fill="#32ACE2" fill-opacity="0.5"/>
<path d="M898.132 247.506L888.902 268.633L942.968 289.142L952.197 268.015L898.132 247.506Z" fill="#76BF6B" fill-opacity="0.5"/>
<path d="M1011.99 397.254L1000.91 417.596L1052.97 442.206L1064.04 421.864L1011.99 397.254Z" fill="#F3CB52" fill-opacity="0.5"/>
<path d="M420.698 492.591L396.733 497.244L408.64 550.495L432.605 545.842L420.698 492.591Z" fill="#EF4B68" fill-opacity="0.5" stroke="white" stroke-miterlimit="10"/>
<path d="M844.929 509.289H820.45V563.683H844.929V509.289Z" fill="#76BF6B" fill-opacity="0.5"/>
<path d="M668.413 369.371L632.314 412.117L651.551 426.223L687.65 383.477L668.413 369.371Z" fill="#F3CB52" fill-opacity="0.5"/>
</g>
<defs>
<clipPath id="clip0_43_22">
<rect width="1440" height="1024" fill="white"/>
</clipPath>
</defs>
</svg>
