<svg id="Layer_1" data-name="Layer 1" xmlns="http://www.w3.org/2000/svg" viewBox="0 0 764.73 583.57"><defs><style>.cls-1{fill:#76bf6b;}.cls-1,.cls-2,.cls-3,.cls-4{fill-opacity:0.5;}.cls-2{fill:#32ace2;}.cls-3{fill:#f3cb52;}.cls-4{fill:#ef4b68;stroke:#fff;}.cls-4,.cls-5{stroke-miterlimit:10;}.cls-5{fill:none;stroke:#f3cb53;}.cls-6{font-size:36px;fill:#ee4d69;font-family:RobotoSlab-Light, Roboto Slab;font-weight:300;}.cls-7{letter-spacing:-0.13em;}.cls-8{letter-spacing:-0.04em;}.cls-9{letter-spacing:-0.01em;}</style></defs><rect class="cls-1" x="160.5" y="68.62" width="13" height="31" transform="translate(48.51 -67.97) rotate(25.25)"/><rect class="cls-2" x="721.79" y="82.62" width="13" height="31" transform="matrix(0.1, 1, -1, 0.1, 750.7, -641.07)"/><rect class="cls-3" x="631.59" y="2.08" width="13" height="31" transform="translate(939.11 -548.3) rotate(116.9)"/><rect class="cls-2" x="19" y="44.12" width="13" height="31" transform="translate(-37.44 80.35) rotate(-90)"/><rect class="cls-1" x="751.73" y="189.73" width="13" height="31"/><rect class="cls-3" x="42.27" y="163.5" width="13" height="31" transform="translate(-133.96 126.96) rotate(-60)"/><rect class="cls-4" x="552.63" y="390.82" width="13" height="31" transform="translate(807.55 1045.25) rotate(-147.37)"/><rect class="cls-2" x="410.04" y="390.82" width="13" height="31" transform="translate(489.27 978.46) rotate(-141.8)"/><rect class="cls-1" x="591.57" y="550.85" width="13" height="31" transform="translate(1377.26 818.67) rotate(154.75)"/><rect class="cls-3" x="682.51" y="403.26" width="13" height="31" transform="translate(1491.77 432.13) rotate(150)"/><rect class="cls-4" x="13.9" y="398.02" width="13" height="31" transform="matrix(-0.58, 0.81, -0.81, -0.58, 364.65, 633.71)"/><rect class="cls-2" x="30.28" y="564.84" width="13" height="31" transform="translate(614.59 596.26) rotate(95.67)"/><rect class="cls-1" x="179.92" y="398.02" width="13" height="31" transform="translate(495.81 80.19) rotate(67.85)"/><rect class="cls-3" x="120.47" y="484.31" width="13" height="31" transform="translate(511.94 155.69) rotate(63.1)"/><rect class="cls-4" x="310.09" y="456.35" width="13" height="31" transform="translate(526.98 993.57) rotate(-168.23)"/><rect class="cls-2" x="733.06" y="526.35" width="13" height="31" transform="translate(194.39 1276.64) rotate(-90)"/><rect class="cls-1" x="226.57" y="550.85" width="13" height="31" transform="translate(462.81 1127.92) rotate(-180)"/><rect class="cls-3" x="462.57" y="512.17" width="13" height="31" transform="translate(243.3 1192.95) rotate(-120)"/><rect class="cls-4" x="410.04" y="13.4" width="13" height="31" transform="translate(46.84 224.42) rotate(-32.63)"/><rect class="cls-2" x="255.56" y="134.98" width="13" height="31" transform="translate(-40.26 189.52) rotate(-38.2)"/><rect class="cls-1" x="74.04" y="295" width="13" height="31" transform="translate(136.83 -9.46) rotate(25.25)"/><rect class="cls-4" x="635.51" y="142.17" width="13" height="31" transform="translate(391.7 -460.32) rotate(54.26)"/><rect class="cls-2" x="667.77" y="303" width="13" height="31" transform="matrix(0.1, 1, -1, 0.1, 921.32, -388.69)"/><rect class="cls-1" x="485.69" y="142.17" width="13" height="31" transform="translate(820.46 -243.52) rotate(112.15)"/><rect class="cls-3" x="545.13" y="228.46" width="13" height="31" transform="translate(1015.42 -142.4) rotate(116.9)"/><rect class="cls-4" x="217.04" y="286.5" width="13" height="31" transform="translate(-60.22 47.16) rotate(-11.77)"/><rect class="cls-1" x="435.71" y="290.23" width="13" height="31"/><rect class="cls-3" x="347.33" y="216" width="13" height="31" transform="translate(215.62 -174.01) rotate(38.2)"/><rect class="cls-5" x="183.72" y="154.06" width="459" height="267" rx="10"/><text class="cls-6" transform="translate(294.97 272.03)"><tspan class="cls-7">P</tspan><tspan class="cls-8" x="17.93" y="0">A</tspan><tspan x="42.63" y="0">GE UNDER </tspan></text><text class="cls-6" transform="translate(272.11 340.06)">CONSTRU<tspan class="cls-9" x="170.75" y="0">C</tspan><tspan x="193.96" y="0">TION</tspan></text></svg>