<svg xmlns="http://www.w3.org/2000/svg" width="375" viewBox="0 0 375 375" height="375" version="1.0"><defs><clipPath id="a"><path d="M 212 167 L 221 167 L 221 182 L 212 182 Z M 212 167"/></clipPath><clipPath id="b"><path d="M 152.5 119.382812 L 240.105469 131.921875 L 222.363281 255.910156 L 134.753906 243.371094 Z M 152.5 119.382812"/></clipPath><clipPath id="c"><path d="M 240.199219 131.933594 L 152.59375 119.398438 L 134.847656 243.382812 L 222.457031 255.921875 Z M 240.199219 131.933594"/></clipPath><clipPath id="d"><path d="M 213 172 L 227 172 L 227 185 L 213 185 Z M 213 172"/></clipPath><clipPath id="e"><path d="M 152.5 119.382812 L 240.105469 131.921875 L 222.363281 255.910156 L 134.753906 243.371094 Z M 152.5 119.382812"/></clipPath><clipPath id="f"><path d="M 240.199219 131.933594 L 152.59375 119.398438 L 134.847656 243.382812 L 222.457031 255.921875 Z M 240.199219 131.933594"/></clipPath><clipPath id="g"><path d="M 215 176 L 229 176 L 229 191 L 215 191 Z M 215 176"/></clipPath><clipPath id="h"><path d="M 152.5 119.382812 L 240.105469 131.921875 L 222.363281 255.910156 L 134.753906 243.371094 Z M 152.5 119.382812"/></clipPath><clipPath id="i"><path d="M 240.199219 131.933594 L 152.59375 119.398438 L 134.847656 243.382812 L 222.457031 255.921875 Z M 240.199219 131.933594"/></clipPath><clipPath id="j"><path d="M 219 141 L 239 141 L 239 152 L 219 152 Z M 219 141"/></clipPath><clipPath id="k"><path d="M 152.5 119.382812 L 240.105469 131.921875 L 222.363281 255.910156 L 134.753906 243.371094 Z M 152.5 119.382812"/></clipPath><clipPath id="l"><path d="M 240.199219 131.933594 L 152.59375 119.398438 L 134.847656 243.382812 L 222.457031 255.921875 Z M 240.199219 131.933594"/></clipPath><clipPath id="m"><path d="M 218 130 L 231 130 L 231 152 L 218 152 Z M 218 130"/></clipPath><clipPath id="n"><path d="M 152.5 119.382812 L 240.105469 131.921875 L 222.363281 255.910156 L 134.753906 243.371094 Z M 152.5 119.382812"/></clipPath><clipPath id="o"><path d="M 240.199219 131.933594 L 152.59375 119.398438 L 134.847656 243.382812 L 222.457031 255.921875 Z M 240.199219 131.933594"/></clipPath><clipPath id="p"><path d="M 218 148 L 237 148 L 237 157 L 218 157 Z M 218 148"/></clipPath><clipPath id="q"><path d="M 152.5 119.382812 L 240.105469 131.921875 L 222.363281 255.910156 L 134.753906 243.371094 Z M 152.5 119.382812"/></clipPath><clipPath id="r"><path d="M 240.199219 131.933594 L 152.59375 119.398438 L 134.847656 243.382812 L 222.457031 255.921875 Z M 240.199219 131.933594"/></clipPath><clipPath id="s"><path d="M 208 128 L 223 128 L 223 152 L 208 152 Z M 208 128"/></clipPath><clipPath id="t"><path d="M 152.5 119.382812 L 240.105469 131.921875 L 222.363281 255.910156 L 134.753906 243.371094 Z M 152.5 119.382812"/></clipPath><clipPath id="u"><path d="M 240.199219 131.933594 L 152.59375 119.398438 L 134.847656 243.382812 L 222.457031 255.921875 Z M 240.199219 131.933594"/></clipPath><clipPath id="v"><path d="M 202 132 L 220 132 L 220 153 L 202 153 Z M 202 132"/></clipPath><clipPath id="w"><path d="M 152.5 119.382812 L 240.105469 131.921875 L 222.363281 255.910156 L 134.753906 243.371094 Z M 152.5 119.382812"/></clipPath><clipPath id="x"><path d="M 240.199219 131.933594 L 152.59375 119.398438 L 134.847656 243.382812 L 222.457031 255.921875 Z M 240.199219 131.933594"/></clipPath><clipPath id="y"><path d="M 186 141 L 201 141 L 201 177 L 186 177 Z M 186 141"/></clipPath><clipPath id="z"><path d="M 152.5 119.382812 L 240.105469 131.921875 L 222.363281 255.910156 L 134.753906 243.371094 Z M 152.5 119.382812"/></clipPath><clipPath id="A"><path d="M 240.199219 131.933594 L 152.59375 119.398438 L 134.847656 243.382812 L 222.457031 255.921875 Z M 240.199219 131.933594"/></clipPath><clipPath id="B"><path d="M 186 141 L 201 141 L 201 169 L 186 169 Z M 186 141"/></clipPath><clipPath id="C"><path d="M 152.5 119.382812 L 240.105469 131.921875 L 222.363281 255.910156 L 134.753906 243.371094 Z M 152.5 119.382812"/></clipPath><clipPath id="D"><path d="M 240.199219 131.933594 L 152.59375 119.398438 L 134.847656 243.382812 L 222.457031 255.921875 Z M 240.199219 131.933594"/></clipPath><clipPath id="E"><path d="M 171 185 L 184 185 L 184 209 L 171 209 Z M 171 185"/></clipPath><clipPath id="F"><path d="M 152.5 119.382812 L 240.105469 131.921875 L 222.363281 255.910156 L 134.753906 243.371094 Z M 152.5 119.382812"/></clipPath><clipPath id="G"><path d="M 240.199219 131.933594 L 152.59375 119.398438 L 134.847656 243.382812 L 222.457031 255.921875 Z M 240.199219 131.933594"/></clipPath><clipPath id="H"><path d="M 179 178 L 186 178 L 186 200 L 179 200 Z M 179 178"/></clipPath><clipPath id="I"><path d="M 152.5 119.382812 L 240.105469 131.921875 L 222.363281 255.910156 L 134.753906 243.371094 Z M 152.5 119.382812"/></clipPath><clipPath id="J"><path d="M 240.199219 131.933594 L 152.59375 119.398438 L 134.847656 243.382812 L 222.457031 255.921875 Z M 240.199219 131.933594"/></clipPath><clipPath id="K"><path d="M 179 178 L 187 178 L 187 198 L 179 198 Z M 179 178"/></clipPath><clipPath id="L"><path d="M 152.5 119.382812 L 240.105469 131.921875 L 222.363281 255.910156 L 134.753906 243.371094 Z M 152.5 119.382812"/></clipPath><clipPath id="M"><path d="M 240.199219 131.933594 L 152.59375 119.398438 L 134.847656 243.382812 L 222.457031 255.921875 Z M 240.199219 131.933594"/></clipPath><clipPath id="N"><path d="M 162 198 L 181 198 L 181 206 L 162 206 Z M 162 198"/></clipPath><clipPath id="O"><path d="M 152.5 119.382812 L 240.105469 131.921875 L 222.363281 255.910156 L 134.753906 243.371094 Z M 152.5 119.382812"/></clipPath><clipPath id="P"><path d="M 240.199219 131.933594 L 152.59375 119.398438 L 134.847656 243.382812 L 222.457031 255.921875 Z M 240.199219 131.933594"/></clipPath><clipPath id="Q"><path d="M 162 198 L 180 198 L 180 207 L 162 207 Z M 162 198"/></clipPath><clipPath id="R"><path d="M 152.5 119.382812 L 240.105469 131.921875 L 222.363281 255.910156 L 134.753906 243.371094 Z M 152.5 119.382812"/></clipPath><clipPath id="S"><path d="M 240.199219 131.933594 L 152.59375 119.398438 L 134.847656 243.382812 L 222.457031 255.921875 Z M 240.199219 131.933594"/></clipPath><clipPath id="T"><path d="M 180 141 L 231 141 L 231 251 L 180 251 Z M 180 141"/></clipPath><clipPath id="U"><path d="M 152.5 119.382812 L 240.105469 131.921875 L 222.363281 255.910156 L 134.753906 243.371094 Z M 152.5 119.382812"/></clipPath><clipPath id="V"><path d="M 240.199219 131.933594 L 152.59375 119.398438 L 134.847656 243.382812 L 222.457031 255.921875 Z M 240.199219 131.933594"/></clipPath><clipPath id="W"><path d="M 231.027344 141.703125 L 192.328125 136.164062 L 176.113281 249.46875 L 214.8125 255.007812 Z M 231.027344 141.703125"/></clipPath><clipPath id="X"><path d="M 231.027344 141.703125 L 192.328125 136.164062 L 176.140625 249.261719 L 214.84375 254.800781 Z M 231.027344 141.703125"/></clipPath><clipPath id="Y"><path d="M 188 182 L 213 182 L 213 195 L 188 195 Z M 188 182"/></clipPath><clipPath id="Z"><path d="M 152.5 119.382812 L 240.105469 131.921875 L 222.363281 255.910156 L 134.753906 243.371094 Z M 152.5 119.382812"/></clipPath><clipPath id="aa"><path d="M 240.199219 131.933594 L 152.59375 119.398438 L 134.847656 243.382812 L 222.457031 255.921875 Z M 240.199219 131.933594"/></clipPath><clipPath id="ab"><path d="M 211 180 L 225 180 L 225 197 L 211 197 Z M 211 180"/></clipPath><clipPath id="ac"><path d="M 152.5 119.382812 L 240.105469 131.921875 L 222.363281 255.910156 L 134.753906 243.371094 Z M 152.5 119.382812"/></clipPath><clipPath id="ad"><path d="M 240.199219 131.933594 L 152.59375 119.398438 L 134.847656 243.382812 L 222.457031 255.921875 Z M 240.199219 131.933594"/></clipPath><clipPath id="ae"><path d="M 201 185 L 206 185 L 206 205 L 201 205 Z M 201 185"/></clipPath><clipPath id="af"><path d="M 152.5 119.382812 L 240.105469 131.921875 L 222.363281 255.910156 L 134.753906 243.371094 Z M 152.5 119.382812"/></clipPath><clipPath id="ag"><path d="M 240.199219 131.933594 L 152.59375 119.398438 L 134.847656 243.382812 L 222.457031 255.921875 Z M 240.199219 131.933594"/></clipPath><clipPath id="ah"><path d="M 200 186 L 204 186 L 204 204 L 200 204 Z M 200 186"/></clipPath><clipPath id="ai"><path d="M 152.5 119.382812 L 240.105469 131.921875 L 222.363281 255.910156 L 134.753906 243.371094 Z M 152.5 119.382812"/></clipPath><clipPath id="aj"><path d="M 240.199219 131.933594 L 152.59375 119.398438 L 134.847656 243.382812 L 222.457031 255.921875 Z M 240.199219 131.933594"/></clipPath><clipPath id="ak"><path d="M 145 184 L 173 184 L 173 196 L 145 196 Z M 145 184"/></clipPath><clipPath id="al"><path d="M 152.5 119.382812 L 240.105469 131.921875 L 222.363281 255.910156 L 134.753906 243.371094 Z M 152.5 119.382812"/></clipPath><clipPath id="am"><path d="M 240.199219 131.933594 L 152.59375 119.398438 L 134.847656 243.382812 L 222.457031 255.921875 Z M 240.199219 131.933594"/></clipPath><clipPath id="an"><path d="M 171 163 L 184 163 L 184 187 L 171 187 Z M 171 163"/></clipPath><clipPath id="ao"><path d="M 152.5 119.382812 L 240.105469 131.921875 L 222.363281 255.910156 L 134.753906 243.371094 Z M 152.5 119.382812"/></clipPath><clipPath id="ap"><path d="M 240.199219 131.933594 L 152.59375 119.398438 L 134.847656 243.382812 L 222.457031 255.921875 Z M 240.199219 131.933594"/></clipPath><clipPath id="aq"><path d="M 165 155 L 178 155 L 178 187 L 165 187 Z M 165 155"/></clipPath><clipPath id="ar"><path d="M 152.5 119.382812 L 240.105469 131.921875 L 222.363281 255.910156 L 134.753906 243.371094 Z M 152.5 119.382812"/></clipPath><clipPath id="as"><path d="M 240.199219 131.933594 L 152.59375 119.398438 L 134.847656 243.382812 L 222.457031 255.921875 Z M 240.199219 131.933594"/></clipPath><clipPath id="at"><path d="M 180 206 L 191 206 L 191 231 L 180 231 Z M 180 206"/></clipPath><clipPath id="au"><path d="M 152.5 119.382812 L 240.105469 131.921875 L 222.363281 255.910156 L 134.753906 243.371094 Z M 152.5 119.382812"/></clipPath><clipPath id="av"><path d="M 240.199219 131.933594 L 152.59375 119.398438 L 134.847656 243.382812 L 222.457031 255.921875 Z M 240.199219 131.933594"/></clipPath><clipPath id="aw"><path d="M 188 206 L 193 206 L 193 218 L 188 218 Z M 188 206"/></clipPath><clipPath id="ax"><path d="M 152.5 119.382812 L 240.105469 131.921875 L 222.363281 255.910156 L 134.753906 243.371094 Z M 152.5 119.382812"/></clipPath><clipPath id="ay"><path d="M 240.199219 131.933594 L 152.59375 119.398438 L 134.847656 243.382812 L 222.457031 255.921875 Z M 240.199219 131.933594"/></clipPath><clipPath id="az"><path d="M 187 214 L 201 214 L 201 222 L 187 222 Z M 187 214"/></clipPath><clipPath id="aA"><path d="M 152.5 119.382812 L 240.105469 131.921875 L 222.363281 255.910156 L 134.753906 243.371094 Z M 152.5 119.382812"/></clipPath><clipPath id="aB"><path d="M 240.199219 131.933594 L 152.59375 119.398438 L 134.847656 243.382812 L 222.457031 255.921875 Z M 240.199219 131.933594"/></clipPath><clipPath id="aC"><path d="M 190 214 L 201 214 L 201 222 L 190 222 Z M 190 214"/></clipPath><clipPath id="aD"><path d="M 152.5 119.382812 L 240.105469 131.921875 L 222.363281 255.910156 L 134.753906 243.371094 Z M 152.5 119.382812"/></clipPath><clipPath id="aE"><path d="M 240.199219 131.933594 L 152.59375 119.398438 L 134.847656 243.382812 L 222.457031 255.921875 Z M 240.199219 131.933594"/></clipPath><clipPath id="aF"><path d="M 144 176 L 172 176 L 172 191 L 144 191 Z M 144 176"/></clipPath><clipPath id="aG"><path d="M 152.5 119.382812 L 240.105469 131.921875 L 222.363281 255.910156 L 134.753906 243.371094 Z M 152.5 119.382812"/></clipPath><clipPath id="aH"><path d="M 240.199219 131.933594 L 152.59375 119.398438 L 134.847656 243.382812 L 222.457031 255.921875 Z M 240.199219 131.933594"/></clipPath><clipPath id="aI"><path d="M 144 163 L 173 163 L 173 186 L 144 186 Z M 144 163"/></clipPath><clipPath id="aJ"><path d="M 152.5 119.382812 L 240.105469 131.921875 L 222.363281 255.910156 L 134.753906 243.371094 Z M 152.5 119.382812"/></clipPath><clipPath id="aK"><path d="M 240.199219 131.933594 L 152.59375 119.398438 L 134.847656 243.382812 L 222.457031 255.921875 Z M 240.199219 131.933594"/></clipPath><clipPath id="aL"><path d="M 174.835938 166.984375 L 146.242188 162.894531 L 143.410156 182.683594 L 172.003906 186.777344 Z M 174.835938 166.984375"/></clipPath><clipPath id="aM"><path d="M 174.835938 166.984375 L 146.351562 162.910156 L 143.519531 182.699219 L 172.003906 186.777344 Z M 174.835938 166.984375"/></clipPath><clipPath id="aN"><path d="M 152 154 L 167 154 L 167 165 L 152 165 Z M 152 154"/></clipPath><clipPath id="aO"><path d="M 152.5 119.382812 L 240.105469 131.921875 L 222.363281 255.910156 L 134.753906 243.371094 Z M 152.5 119.382812"/></clipPath><clipPath id="aP"><path d="M 240.199219 131.933594 L 152.59375 119.398438 L 134.847656 243.382812 L 222.457031 255.921875 Z M 240.199219 131.933594"/></clipPath><clipPath id="aQ"><path d="M 70 79 L 314 79 L 314 279 L 70 279 Z M 70 79"/></clipPath><clipPath id="aR"><path d="M 59.328125 98.101562 L 308.90625 69.167969 L 331.449219 263.617188 L 81.871094 292.550781 Z M 59.328125 98.101562"/></clipPath><clipPath id="aS"><path d="M 59.328125 98.101562 L 308.90625 69.167969 L 331.449219 263.617188 L 81.871094 292.550781 Z M 59.328125 98.101562"/></clipPath><clipPath id="aT"><path d="M 59.328125 98.101562 L 308.90625 69.167969 L 331.449219 263.617188 L 81.871094 292.550781 Z M 59.328125 98.101562"/></clipPath></defs><g clip-path="url(#a)"><g clip-path="url(#b)"><g clip-path="url(#c)"><path fill="#642714" d="M 219.832031 168.5625 C 219.863281 168.566406 219.886719 168.574219 219.894531 168.582031 C 219.898438 168.597656 219.878906 168.675781 219.839844 168.804688 L 219.472656 169.90625 C 218.796875 171.933594 218.121094 173.964844 217.445312 175.996094 C 217.160156 176.855469 216.871094 177.71875 216.585938 178.578125 C 216.429688 179.046875 216.269531 179.53125 215.992188 179.910156 C 215.527344 180.558594 214.675781 180.917969 213.777344 180.84375 C 213.519531 180.824219 213.273438 180.769531 213.046875 180.679688 C 212.96875 179.96875 213.257812 179.160156 213.527344 178.519531 C 214.980469 175.046875 216.933594 171.820312 219.335938 168.929688 C 219.460938 168.777344 219.59375 168.621094 219.734375 168.570312 C 219.765625 168.558594 219.804688 168.558594 219.832031 168.5625 Z M 212.703125 181.503906 C 212.765625 181.511719 212.828125 181.503906 212.890625 181.484375 C 212.914062 181.472656 212.941406 181.460938 212.960938 181.445312 C 213.199219 181.523438 213.457031 181.574219 213.71875 181.59375 C 214.875 181.683594 215.980469 181.207031 216.597656 180.351562 C 216.941406 179.875 217.128906 179.3125 217.292969 178.8125 C 217.578125 177.953125 217.867188 177.09375 218.15625 176.230469 C 218.828125 174.199219 219.503906 172.171875 220.179688 170.140625 L 220.546875 169.042969 C 220.601562 168.875 220.691406 168.601562 220.589844 168.316406 C 220.421875 167.867188 219.882812 167.71875 219.480469 167.867188 C 219.15625 167.984375 218.9375 168.238281 218.761719 168.445312 C 216.3125 171.398438 214.320312 174.6875 212.835938 178.230469 C 212.503906 179.027344 212.148438 180.0625 212.339844 181.015625 C 212.339844 181.019531 212.34375 181.023438 212.34375 181.027344 C 212.359375 181.101562 212.375 181.179688 212.410156 181.265625 C 212.457031 181.398438 212.574219 181.484375 212.703125 181.503906"/></g></g></g><g clip-path="url(#d)"><g clip-path="url(#e)"><g clip-path="url(#f)"><path fill="#642714" d="M 216.40625 184.09375 C 217.070312 184.191406 217.824219 184.171875 218.738281 184.042969 C 219.824219 183.894531 221.371094 183.558594 222.230469 182.382812 C 222.769531 181.636719 222.90625 180.746094 223.039062 179.882812 C 223.144531 179.179688 223.246094 178.515625 223.550781 177.945312 C 223.789062 177.5 224.15625 177.121094 224.480469 176.8125 C 224.597656 176.703125 224.714844 176.59375 224.832031 176.484375 C 225.382812 175.976562 225.953125 175.453125 226.300781 174.746094 C 226.519531 174.308594 226.585938 173.898438 226.492188 173.53125 C 226.242188 172.496094 225.023438 172.253906 224.054688 172.359375 C 222.515625 172.535156 221.035156 173.105469 219.78125 174.019531 C 219.371094 174.316406 218.976562 174.652344 218.59375 174.980469 C 218.261719 175.261719 217.921875 175.554688 217.578125 175.8125 C 217.414062 175.9375 217.378906 176.171875 217.5 176.335938 C 217.625 176.503906 217.859375 176.539062 218.023438 176.414062 C 218.386719 176.140625 218.738281 175.839844 219.078125 175.550781 C 219.449219 175.234375 219.832031 174.90625 220.21875 174.625 C 221.371094 173.789062 222.722656 173.265625 224.136719 173.105469 C 224.832031 173.027344 225.640625 173.183594 225.769531 173.710938 C 225.816406 173.902344 225.769531 174.136719 225.628906 174.414062 C 225.34375 174.996094 224.851562 175.449219 224.328125 175.933594 C 224.207031 176.042969 224.085938 176.15625 223.96875 176.269531 C 223.597656 176.617188 223.183594 177.050781 222.894531 177.589844 C 222.527344 178.273438 222.410156 179.035156 222.300781 179.769531 C 222.175781 180.578125 222.058594 181.34375 221.625 181.941406 C 220.9375 182.886719 219.589844 183.167969 218.636719 183.300781 C 217.609375 183.445312 216.789062 183.4375 216.117188 183.277344 C 215.707031 183.179688 215.347656 183.023438 215.046875 182.8125 C 214.539062 182.464844 214.175781 181.828125 214.117188 181.183594 C 214.101562 180.976562 213.917969 180.824219 213.714844 180.84375 C 213.507812 180.863281 213.355469 181.046875 213.375 181.253906 C 213.453125 182.121094 213.933594 182.957031 214.625 183.429688 C 215 183.691406 215.441406 183.886719 215.941406 184.003906 C 216.089844 184.042969 216.246094 184.070312 216.40625 184.09375"/></g></g></g><g clip-path="url(#g)"><g clip-path="url(#h)"><g clip-path="url(#i)"><path fill="#642714" d="M 223.53125 190.632812 C 223.558594 190.636719 223.585938 190.640625 223.613281 190.644531 C 223.613281 190.644531 223.613281 190.644531 223.617188 190.644531 C 223.753906 190.664062 223.910156 190.679688 224.074219 190.683594 C 225.121094 190.710938 226.207031 190.246094 226.917969 189.46875 C 227.472656 188.863281 227.730469 188.121094 227.644531 187.382812 C 227.589844 186.917969 227.414062 186.492188 227.242188 186.082031 C 227.03125 185.578125 226.832031 185.105469 226.90625 184.644531 C 226.976562 184.222656 227.269531 183.855469 227.582031 183.460938 C 227.742188 183.261719 227.90625 183.054688 228.046875 182.832031 C 229.058594 181.246094 228.601562 178.898438 227.070312 177.808594 C 226.707031 177.550781 226.308594 177.367188 225.921875 177.191406 C 225.640625 177.0625 225.378906 176.941406 225.128906 176.792969 C 224.882812 176.648438 224.667969 176.472656 224.503906 176.289062 C 224.363281 176.136719 224.128906 176.125 223.976562 176.261719 C 223.820312 176.398438 223.808594 176.636719 223.945312 176.789062 C 224.160156 177.03125 224.4375 177.253906 224.75 177.4375 C 225.03125 177.605469 225.324219 177.742188 225.609375 177.871094 C 225.980469 178.042969 226.332031 178.203125 226.636719 178.421875 C 227.859375 179.289062 228.222656 181.164062 227.417969 182.429688 C 227.296875 182.617188 227.152344 182.800781 226.996094 182.996094 C 226.640625 183.445312 226.269531 183.910156 226.167969 184.523438 C 226.0625 185.199219 226.3125 185.792969 226.550781 186.371094 C 226.710938 186.75 226.859375 187.109375 226.902344 187.46875 C 226.980469 188.132812 226.652344 188.648438 226.367188 188.964844 C 225.808594 189.574219 224.917969 189.957031 224.097656 189.933594 C 223.960938 189.929688 223.832031 189.917969 223.714844 189.902344 C 222.328125 189.722656 221.042969 188.839844 219.953125 188.019531 C 218.992188 187.296875 217.992188 186.507812 217.28125 185.527344 C 216.835938 184.910156 216.527344 184.230469 216.394531 183.566406 C 216.355469 183.363281 216.15625 183.234375 215.957031 183.273438 C 215.753906 183.316406 215.621094 183.511719 215.664062 183.714844 C 215.816406 184.484375 216.167969 185.265625 216.679688 185.96875 C 217.449219 187.035156 218.496094 187.863281 219.503906 188.621094 C 220.652344 189.480469 222 190.414062 223.53125 190.632812"/></g></g></g><g clip-path="url(#j)"><g clip-path="url(#k)"><g clip-path="url(#l)"><path fill="#642714" d="M 228.703125 151.023438 C 229.101562 151.082031 229.507812 151.109375 229.917969 151.089844 C 231.285156 151.035156 232.585938 150.476562 233.695312 149.960938 C 234.15625 149.746094 234.703125 149.484375 235.238281 149.164062 C 235.859375 148.796875 236.367188 148.40625 236.785156 147.972656 C 237.789062 146.921875 238.242188 145.585938 237.992188 144.394531 C 237.863281 143.78125 237.554688 143.28125 237.125 142.980469 C 236.503906 142.554688 235.78125 142.59375 235.082031 142.628906 C 234.480469 142.660156 233.910156 142.691406 233.503906 142.40625 C 233.378906 142.316406 233.261719 142.195312 233.140625 142.066406 C 232.945312 141.859375 232.722656 141.628906 232.417969 141.492188 C 231.886719 141.257812 231.332031 141.386719 230.804688 141.542969 L 230.421875 141.652344 C 230.375 141.667969 230.34375 141.675781 230.3125 141.683594 C 230.113281 141.738281 229.992188 141.941406 230.046875 142.140625 C 230.097656 142.34375 230.300781 142.460938 230.5 142.410156 C 230.550781 142.398438 230.59375 142.382812 230.644531 142.367188 L 231.011719 142.261719 C 231.421875 142.140625 231.816406 142.042969 232.113281 142.175781 C 232.285156 142.253906 232.4375 142.414062 232.597656 142.582031 C 232.738281 142.734375 232.886719 142.890625 233.078125 143.019531 C 233.691406 143.453125 234.417969 143.414062 235.121094 143.378906 C 235.722656 143.347656 236.292969 143.316406 236.699219 143.597656 C 236.972656 143.785156 237.171875 144.125 237.261719 144.550781 C 237.457031 145.484375 237.066406 146.597656 236.246094 147.453125 C 235.875 147.835938 235.421875 148.1875 234.859375 148.515625 C 234.351562 148.820312 233.828125 149.074219 233.382812 149.28125 C 232.289062 149.789062 231.117188 150.289062 229.886719 150.34375 C 228.765625 150.390625 227.683594 150.0625 226.539062 149.71875 C 226.140625 149.597656 225.730469 149.472656 225.320312 149.367188 C 223.511719 148.898438 221.640625 148.769531 219.761719 148.976562 C 219.554688 149 219.410156 149.183594 219.433594 149.390625 C 219.453125 149.597656 219.640625 149.746094 219.84375 149.722656 C 221.632812 149.523438 223.410156 149.648438 225.132812 150.09375 C 225.527344 150.195312 225.933594 150.316406 226.324219 150.433594 C 227.097656 150.667969 227.890625 150.90625 228.703125 151.023438"/></g></g></g><g clip-path="url(#m)"><g clip-path="url(#n)"><g clip-path="url(#o)"><path fill="#642714" d="M 218.382812 151.019531 C 218.566406 151.046875 218.742188 150.933594 218.792969 150.75 C 218.902344 150.367188 219.003906 149.984375 219.105469 149.601562 C 220.351562 144.832031 221.269531 139.917969 221.832031 135 L 221.835938 134.941406 C 221.894531 134.433594 221.953125 133.90625 222.078125 133.421875 C 222.148438 133.167969 222.226562 132.945312 222.316406 132.746094 C 222.574219 132.191406 223.101562 131.570312 223.820312 131.480469 C 224.90625 131.347656 225.808594 132.476562 226.253906 133.164062 C 227.121094 134.515625 227.738281 135.996094 228.078125 137.570312 C 228.105469 137.695312 228.128906 137.816406 228.15625 137.9375 C 228.261719 138.464844 228.375 139.007812 228.617188 139.515625 C 228.800781 139.898438 229.042969 140.238281 229.277344 140.5625 C 229.503906 140.882812 229.722656 141.183594 229.875 141.511719 C 229.957031 141.691406 230.015625 141.890625 230.035156 142.089844 C 230.035156 142.09375 230.035156 142.097656 230.035156 142.101562 C 230.042969 142.28125 230.175781 142.4375 230.359375 142.460938 C 230.5625 142.492188 230.75 142.347656 230.78125 142.144531 C 230.789062 142.085938 230.785156 142.035156 230.777344 141.980469 C 230.742188 141.710938 230.667969 141.4375 230.550781 141.191406 C 230.367188 140.800781 230.121094 140.457031 229.882812 140.125 C 229.65625 139.8125 229.445312 139.515625 229.292969 139.191406 C 229.085938 138.765625 228.988281 138.289062 228.886719 137.785156 C 228.863281 137.660156 228.835938 137.535156 228.808594 137.410156 C 228.445312 135.75 227.796875 134.183594 226.878906 132.757812 C 225.953125 131.316406 224.832031 130.597656 223.726562 130.738281 C 222.875 130.84375 222.074219 131.492188 221.640625 132.433594 C 221.53125 132.671875 221.4375 132.933594 221.359375 133.230469 C 221.21875 133.773438 221.15625 134.324219 221.09375 134.859375 L 221.089844 134.914062 C 220.53125 139.800781 219.621094 144.675781 218.382812 149.410156 C 218.28125 149.789062 218.179688 150.167969 218.074219 150.546875 C 218.019531 150.746094 218.136719 150.953125 218.335938 151.007812 C 218.351562 151.011719 218.367188 151.015625 218.382812 151.019531"/></g></g></g><g clip-path="url(#p)"><g clip-path="url(#q)"><g clip-path="url(#r)"><path fill="#642714" d="M 226.453125 156.339844 C 228.261719 156.597656 229.742188 155.9375 230.515625 155.011719 C 230.613281 154.894531 230.703125 154.773438 230.789062 154.652344 C 230.96875 154.410156 231.132812 154.183594 231.34375 154.042969 C 231.746094 153.773438 232.296875 153.816406 232.875 153.859375 C 233.464844 153.90625 234.074219 153.957031 234.648438 153.707031 C 235.871094 153.175781 236.210938 151.582031 235.910156 150.277344 C 235.796875 149.796875 235.628906 149.335938 235.464844 148.890625 L 235.398438 148.710938 C 235.328125 148.515625 235.113281 148.417969 234.921875 148.488281 C 234.726562 148.558594 234.625 148.777344 234.699219 148.96875 L 234.761719 149.148438 C 234.925781 149.59375 235.082031 150.011719 235.179688 150.445312 C 235.40625 151.421875 235.191406 152.65625 234.355469 153.019531 C 233.949219 153.195312 233.453125 153.15625 232.933594 153.113281 C 232.253906 153.058594 231.546875 153.003906 230.929688 153.417969 C 230.609375 153.632812 230.394531 153.925781 230.1875 154.210938 C 230.109375 154.320312 230.03125 154.425781 229.945312 154.527344 C 228.84375 155.839844 226.777344 155.832031 225.324219 155.269531 C 224.121094 154.800781 223.042969 153.988281 222 153.203125 C 221.625 152.917969 221.234375 152.625 220.839844 152.347656 C 220.207031 151.90625 219.625 151.5625 219.0625 151.292969 C 218.878906 151.203125 218.65625 151.285156 218.566406 151.472656 C 218.476562 151.660156 218.558594 151.882812 218.746094 151.972656 C 219.269531 152.21875 219.8125 152.542969 220.410156 152.964844 C 220.792969 153.234375 221.179688 153.523438 221.554688 153.804688 C 222.636719 154.617188 223.753906 155.460938 225.054688 155.96875 C 225.539062 156.15625 226.007812 156.273438 226.453125 156.339844"/></g></g></g><g clip-path="url(#s)"><g clip-path="url(#t)"><g clip-path="url(#u)"><path fill="#642714" d="M 218.152344 151.25 C 218.195312 151.253906 218.242188 151.253906 218.289062 151.242188 C 218.488281 151.195312 218.617188 150.996094 218.570312 150.792969 C 218.472656 150.382812 218.367188 149.972656 218.25 149.578125 C 217.082031 145.691406 214.6875 142.210938 211.507812 139.769531 L 211.332031 139.636719 C 210.65625 139.121094 209.960938 138.59375 209.746094 137.855469 C 209.554688 137.195312 209.773438 136.484375 210.003906 135.734375 C 210.234375 134.988281 210.472656 134.21875 210.335938 133.414062 C 210.285156 133.136719 210.195312 132.871094 210.105469 132.625 L 210.074219 132.53125 C 209.9375 132.167969 209.8125 131.820312 209.828125 131.484375 C 209.859375 130.929688 210.296875 130.367188 211.011719 129.984375 C 213.015625 128.894531 215.398438 129.589844 216.636719 130.105469 C 218.472656 130.863281 220.132812 132.0625 221.433594 133.570312 C 221.570312 133.726562 221.804688 133.746094 221.960938 133.609375 C 222.117188 133.472656 222.136719 133.238281 222 133.082031 C 220.621094 131.484375 218.867188 130.214844 216.921875 129.410156 C 215.558594 128.847656 212.933594 128.085938 210.65625 129.324219 C 209.710938 129.832031 209.125 130.628906 209.082031 131.449219 C 209.058594 131.933594 209.21875 132.371094 209.371094 132.789062 L 209.402344 132.878906 C 209.492188 133.128906 209.5625 133.339844 209.597656 133.542969 C 209.707031 134.167969 209.503906 134.820312 209.289062 135.511719 C 209.035156 136.335938 208.773438 137.1875 209.027344 138.066406 C 209.3125 139.042969 210.144531 139.675781 210.878906 140.234375 L 211.054688 140.367188 C 214.109375 142.710938 216.410156 146.058594 217.535156 149.796875 C 217.648438 150.175781 217.75 150.566406 217.839844 150.960938 C 217.875 151.117188 218.003906 151.226562 218.152344 151.25"/></g></g></g><g clip-path="url(#v)"><g clip-path="url(#w)"><g clip-path="url(#x)"><path fill="#642714" d="M 217.460938 151.914062 C 217.472656 151.917969 217.488281 151.917969 217.503906 151.921875 C 217.683594 151.945312 217.910156 151.96875 218.144531 151.984375 C 218.382812 152.003906 218.640625 152.011719 218.910156 152.007812 C 219.117188 152.003906 219.28125 151.835938 219.277344 151.625 C 219.273438 151.421875 219.105469 151.253906 218.898438 151.257812 C 218.65625 151.261719 218.417969 151.253906 218.195312 151.238281 C 217.976562 151.222656 217.765625 151.199219 217.605469 151.179688 C 216.925781 151.085938 216.253906 150.914062 215.613281 150.675781 C 213.953125 150.070312 212.527344 149.039062 211.484375 147.691406 C 211.203125 147.324219 210.933594 146.925781 210.679688 146.535156 C 210.308594 145.976562 209.925781 145.398438 209.464844 144.882812 C 208.488281 143.792969 207.292969 143.226562 206.179688 143.324219 C 205.996094 143.339844 205.824219 143.371094 205.65625 143.402344 C 205.445312 143.441406 205.242188 143.476562 205.050781 143.480469 C 204.007812 143.488281 203.203125 142.324219 203.183594 141.277344 C 203.160156 140.050781 203.875 138.910156 204.496094 138.054688 C 205.917969 136.109375 207.75 134.414062 209.796875 133.160156 L 209.847656 133.132812 C 209.875 133.113281 209.902344 133.097656 209.929688 133.082031 C 210.113281 132.984375 210.179688 132.757812 210.085938 132.574219 C 209.988281 132.394531 209.757812 132.324219 209.578125 132.421875 C 209.539062 132.445312 209.5 132.464844 209.464844 132.488281 L 209.414062 132.515625 C 207.28125 133.828125 205.375 135.585938 203.894531 137.613281 C 203.203125 138.5625 202.410156 139.839844 202.4375 141.292969 C 202.464844 142.691406 203.546875 144.238281 205.054688 144.230469 C 205.3125 144.226562 205.554688 144.183594 205.789062 144.140625 C 205.949219 144.109375 206.097656 144.082031 206.242188 144.070312 C 207.121094 143.992188 208.089844 144.472656 208.910156 145.382812 C 209.332031 145.859375 209.683594 146.390625 210.054688 146.949219 C 210.320312 147.351562 210.59375 147.761719 210.894531 148.152344 C 212.023438 149.609375 213.566406 150.726562 215.355469 151.382812 C 216.03125 151.632812 216.738281 151.8125 217.460938 151.914062"/></g></g></g><g clip-path="url(#y)"><g clip-path="url(#z)"><g clip-path="url(#A)"><path fill="#642714" d="M 199.589844 176.804688 C 199.773438 176.828125 199.953125 176.714844 200 176.527344 C 200.738281 173.738281 200.867188 170.757812 200.378906 167.667969 C 199.871094 164.414062 198.675781 161.15625 196.925781 158.246094 C 195.828125 156.425781 194.527344 154.714844 193.269531 153.058594 C 192.386719 151.898438 191.476562 150.699219 190.644531 149.476562 C 188.839844 146.8125 187.726562 144.402344 187.238281 142.113281 C 187.191406 141.910156 186.996094 141.785156 186.792969 141.824219 C 186.59375 141.871094 186.464844 142.070312 186.507812 142.273438 C 187.015625 144.65625 188.167969 147.152344 190.027344 149.898438 C 190.867188 151.136719 191.789062 152.34375 192.675781 153.511719 C 193.921875 155.152344 195.210938 156.847656 196.285156 158.632812 C 197.988281 161.460938 199.148438 164.625 199.640625 167.785156 C 200.113281 170.773438 199.992188 173.648438 199.28125 176.335938 C 199.226562 176.535156 199.347656 176.742188 199.542969 176.792969 C 199.558594 176.796875 199.574219 176.800781 199.589844 176.804688"/></g></g></g><g clip-path="url(#B)"><g clip-path="url(#C)"><g clip-path="url(#D)"><path fill="#642714" d="M 199.957031 168.097656 C 200.050781 168.109375 200.152344 168.089844 200.234375 168.027344 C 200.398438 167.90625 200.433594 167.667969 200.3125 167.503906 C 199.25 166.066406 197.777344 164.871094 196.355469 163.714844 C 195.851562 163.304688 195.335938 162.886719 194.851562 162.464844 C 192.613281 160.527344 190.742188 158.230469 189.285156 155.632812 C 188.042969 153.421875 187.277344 151.257812 187.007812 149.203125 C 186.703125 146.910156 186.972656 144.554688 187.238281 142.273438 L 187.242188 142.246094 C 187.269531 142.039062 187.128906 141.851562 186.925781 141.820312 C 186.722656 141.792969 186.53125 141.933594 186.503906 142.140625 L 186.496094 142.179688 C 186.226562 144.515625 185.949219 146.917969 186.265625 149.304688 C 186.550781 151.453125 187.34375 153.707031 188.632812 156.003906 C 190.132812 158.671875 192.0625 161.039062 194.363281 163.035156 C 194.855469 163.460938 195.378906 163.886719 195.882812 164.296875 C 197.269531 165.421875 198.703125 166.589844 199.710938 167.949219 C 199.773438 168.035156 199.863281 168.085938 199.957031 168.097656"/></g></g></g><g clip-path="url(#E)"><g clip-path="url(#F)"><g clip-path="url(#G)"><path fill="#642714" d="M 182.933594 208.898438 C 182.992188 208.90625 183.054688 208.902344 183.113281 208.882812 C 183.289062 208.820312 183.394531 208.632812 183.355469 208.449219 C 183.351562 208.445312 183.351562 208.441406 183.351562 208.4375 C 182.703125 205.085938 181.664062 201.800781 180.261719 198.667969 C 178.269531 194.207031 175.601562 190.140625 172.335938 186.589844 C 172.242188 186.488281 172.15625 186.390625 172.066406 186.296875 C 172.042969 186.269531 172.019531 186.246094 172 186.226562 C 171.976562 186.199219 171.949219 186.171875 171.925781 186.144531 L 171.714844 185.925781 C 171.574219 185.773438 171.339844 185.765625 171.1875 185.90625 C 171.039062 186.050781 171.03125 186.289062 171.171875 186.4375 L 171.382812 186.664062 C 171.410156 186.6875 171.429688 186.710938 171.449219 186.734375 C 171.476562 186.761719 171.503906 186.789062 171.53125 186.820312 C 171.609375 186.902344 171.691406 186.992188 171.773438 187.085938 C 174.996094 190.589844 177.621094 194.585938 179.578125 198.976562 C 180.960938 202.054688 181.980469 205.285156 182.617188 208.578125 C 182.617188 208.582031 182.617188 208.582031 182.617188 208.585938 C 182.621094 208.605469 182.628906 208.632812 182.636719 208.652344 C 182.683594 208.789062 182.800781 208.878906 182.933594 208.898438"/></g></g></g><g clip-path="url(#H)"><g clip-path="url(#I)"><g clip-path="url(#J)"><path fill="#642714" d="M 180.320312 199.980469 C 180.363281 199.988281 180.410156 199.984375 180.453125 199.976562 C 180.65625 199.929688 180.78125 199.730469 180.738281 199.527344 C 180.675781 199.253906 180.628906 199.011719 180.59375 198.785156 C 180.507812 198.273438 180.449219 197.730469 180.417969 197.171875 C 180.382812 196.382812 180.394531 195.539062 180.460938 194.59375 C 180.835938 189.117188 182.640625 183.796875 185.675781 179.214844 C 185.789062 179.042969 185.742188 178.808594 185.574219 178.695312 C 185.402344 178.578125 185.167969 178.628906 185.054688 178.800781 C 181.945312 183.492188 180.101562 188.933594 179.714844 194.542969 C 179.648438 195.515625 179.632812 196.390625 179.675781 197.210938 C 179.703125 197.800781 179.765625 198.371094 179.855469 198.90625 C 179.894531 199.144531 179.945312 199.402344 180.007812 199.691406 C 180.042969 199.847656 180.171875 199.960938 180.320312 199.980469"/></g></g></g><g clip-path="url(#K)"><g clip-path="url(#L)"><g clip-path="url(#M)"><path fill="#642714" d="M 179.992188 197.5625 C 180.101562 197.578125 180.214844 197.546875 180.300781 197.46875 C 183.035156 194.960938 186.015625 191.960938 186.710938 188.027344 C 187.136719 185.585938 186.613281 183.136719 186.109375 180.769531 C 185.980469 180.167969 185.847656 179.546875 185.734375 178.9375 C 185.695312 178.734375 185.496094 178.601562 185.296875 178.640625 C 185.09375 178.679688 184.960938 178.875 185 179.078125 C 185.113281 179.695312 185.25 180.320312 185.378906 180.925781 C 185.890625 183.328125 186.375 185.601562 185.972656 187.898438 C 185.320312 191.597656 182.441406 194.492188 179.796875 196.914062 C 179.644531 197.054688 179.632812 197.289062 179.769531 197.441406 C 179.832031 197.511719 179.910156 197.550781 179.992188 197.5625"/></g></g></g><g clip-path="url(#N)"><g clip-path="url(#O)"><g clip-path="url(#P)"><path fill="#642714" d="M 163.269531 205.625 C 163.359375 205.636719 163.453125 205.617188 163.535156 205.5625 C 167.464844 202.878906 171.785156 200.898438 176.375 199.683594 C 177.554688 199.371094 178.503906 199.214844 179.359375 199.191406 C 179.542969 199.1875 179.726562 199.1875 179.90625 199.195312 C 180.003906 199.203125 180.09375 199.207031 180.183594 199.214844 C 180.386719 199.238281 180.574219 199.089844 180.59375 198.882812 C 180.617188 198.679688 180.464844 198.492188 180.265625 198.46875 C 180.160156 198.457031 180.058594 198.453125 179.953125 198.449219 C 179.742188 198.441406 179.539062 198.4375 179.339844 198.445312 C 178.425781 198.46875 177.421875 198.632812 176.183594 198.960938 C 171.511719 200.195312 167.117188 202.207031 163.113281 204.945312 C 162.941406 205.058594 162.898438 205.292969 163.015625 205.464844 C 163.078125 205.554688 163.171875 205.609375 163.269531 205.625"/></g></g></g><g clip-path="url(#Q)"><g clip-path="url(#R)"><g clip-path="url(#S)"><path fill="#642714" d="M 168.703125 206.859375 C 168.765625 206.871094 168.824219 206.878906 168.882812 206.886719 C 170.984375 207.128906 173.328125 206.320312 175.316406 204.675781 C 177 203.273438 178.234375 201.5625 179.667969 199.46875 C 179.785156 199.300781 179.742188 199.066406 179.574219 198.949219 C 179.402344 198.832031 179.171875 198.875 179.054688 199.046875 C 177.652344 201.089844 176.449219 202.761719 174.839844 204.097656 C 173.007812 205.613281 170.867188 206.359375 168.972656 206.140625 C 168.226562 206.054688 167.507812 205.828125 166.753906 205.589844 C 166.355469 205.464844 165.941406 205.335938 165.527344 205.226562 C 164.808594 205.042969 164.078125 204.929688 163.347656 204.878906 C 163.144531 204.867188 162.964844 205.023438 162.953125 205.230469 C 162.9375 205.4375 163.09375 205.617188 163.300781 205.628906 C 163.980469 205.671875 164.667969 205.78125 165.34375 205.953125 C 165.738281 206.054688 166.140625 206.183594 166.527344 206.304688 C 167.230469 206.527344 167.953125 206.753906 168.703125 206.859375"/></g></g></g><g clip-path="url(#T)"><g clip-path="url(#U)"><g clip-path="url(#V)"><g clip-path="url(#W)"><g clip-path="url(#X)"><path fill="#642714" d="M 185.644531 250.621094 C 185.695312 250.628906 185.746094 250.625 185.796875 250.613281 C 185.996094 250.558594 186.113281 250.351562 186.058594 250.152344 C 184.429688 244.101562 182.585938 237.246094 181.71875 230.433594 C 181.046875 225.179688 181.023438 220.484375 181.648438 216.074219 C 181.992188 213.65625 182.5625 211.15625 183.34375 208.640625 C 184.667969 204.367188 186.609375 199.898438 189.464844 194.574219 C 190.78125 192.117188 192.152344 189.730469 193.804688 186.902344 C 196.222656 182.773438 198.121094 179.605469 199.957031 176.628906 C 204.894531 168.625 209.289062 162.25 213.785156 156.558594 C 214.84375 155.214844 216.257812 153.464844 217.828125 151.808594 L 218.140625 151.480469 C 218.191406 151.429688 218.246094 151.371094 218.304688 151.3125 C 218.359375 151.253906 218.414062 151.199219 218.46875 151.140625 C 218.546875 151.0625 218.621094 150.988281 218.695312 150.917969 C 219.148438 150.464844 219.601562 150.03125 220.050781 149.628906 C 220.539062 149.191406 220.996094 148.804688 221.445312 148.445312 C 223.289062 146.972656 225.351562 145.699219 227.347656 144.472656 C 228.429688 143.804688 229.542969 143.117188 230.617188 142.402344 C 230.636719 142.390625 230.667969 142.367188 230.703125 142.34375 L 230.734375 142.324219 C 230.90625 142.207031 230.949219 141.972656 230.835938 141.800781 C 230.71875 141.632812 230.488281 141.585938 230.316406 141.703125 L 230.273438 141.730469 C 230.253906 141.746094 230.238281 141.757812 230.21875 141.769531 C 229.144531 142.484375 228.03125 143.167969 226.957031 143.832031 C 224.941406 145.074219 222.859375 146.355469 220.980469 147.859375 C 220.519531 148.226562 220.050781 148.621094 219.554688 149.070312 C 219.09375 149.484375 218.628906 149.925781 218.171875 150.382812 C 218.097656 150.453125 218.023438 150.53125 217.945312 150.609375 C 217.882812 150.671875 217.828125 150.730469 217.769531 150.789062 C 217.714844 150.84375 217.660156 150.902344 217.605469 150.957031 L 217.285156 151.292969 C 215.695312 152.972656 214.265625 154.738281 213.199219 156.09375 C 208.683594 161.808594 204.277344 168.207031 199.324219 176.234375 C 197.484375 179.214844 195.582031 182.386719 193.160156 186.523438 C 191.503906 189.359375 190.128906 191.753906 188.804688 194.21875 C 185.929688 199.585938 183.964844 204.097656 182.632812 208.417969 C 181.839844 210.96875 181.257812 213.511719 180.910156 215.96875 C 180.273438 220.445312 180.296875 225.210938 180.976562 230.53125 C 181.851562 237.394531 183.703125 244.277344 185.335938 250.347656 C 185.378906 250.496094 185.503906 250.601562 185.644531 250.621094"/></g></g></g></g></g><g clip-path="url(#Y)"><g clip-path="url(#Z)"><g clip-path="url(#aa)"><path fill="#642714" d="M 189.082031 194.769531 C 189.191406 194.785156 189.304688 194.75 189.390625 194.671875 C 192.21875 192.003906 195.152344 189.777344 198.109375 188.046875 C 199.402344 187.292969 200.726562 186.621094 202.039062 186.046875 L 202.152344 185.996094 C 202.25 185.953125 202.351562 185.910156 202.453125 185.871094 C 205.628906 184.523438 208.839844 183.695312 212 183.410156 C 212.207031 183.394531 212.359375 183.210938 212.339844 183.003906 C 212.320312 182.796875 212.140625 182.644531 211.933594 182.664062 C 208.695312 182.957031 205.410156 183.800781 202.171875 185.175781 C 202.070312 185.214844 201.960938 185.261719 201.855469 185.308594 L 201.742188 185.359375 C 200.402344 185.945312 199.050781 186.632812 197.734375 187.398438 C 194.726562 189.15625 191.746094 191.417969 188.878906 194.125 C 188.726562 194.265625 188.71875 194.503906 188.863281 194.65625 C 188.921875 194.71875 189 194.757812 189.082031 194.769531"/></g></g></g><g clip-path="url(#ab)"><g clip-path="url(#ac)"><g clip-path="url(#ad)"><path fill="#642714" d="M 219.132812 196.800781 C 219.230469 196.816406 219.328125 196.828125 219.425781 196.835938 C 220.359375 196.917969 221.136719 196.714844 221.671875 196.253906 C 222.402344 195.621094 222.558594 194.640625 222.695312 193.773438 C 222.722656 193.59375 222.753906 193.414062 222.785156 193.234375 C 222.972656 192.265625 223.378906 191.316406 223.964844 190.492188 C 224.085938 190.320312 224.046875 190.085938 223.878906 189.96875 C 223.710938 189.847656 223.476562 189.886719 223.355469 190.054688 C 222.707031 190.96875 222.257812 192.019531 222.054688 193.09375 C 222.019531 193.277344 221.988281 193.464844 221.957031 193.65625 C 221.828125 194.46875 221.707031 195.234375 221.183594 195.6875 C 220.707031 196.097656 220 196.132812 219.492188 196.089844 C 217.433594 195.914062 215.570312 194.324219 215.070312 192.3125 C 214.945312 191.816406 214.890625 191.273438 214.835938 190.75 C 214.730469 189.722656 214.621094 188.65625 214 187.765625 C 213.796875 187.472656 213.550781 187.226562 213.316406 186.988281 C 213.101562 186.773438 212.902344 186.570312 212.738281 186.34375 C 212.164062 185.554688 212.007812 184.417969 212.304688 183.222656 C 212.308594 183.199219 212.3125 183.183594 212.320312 183.164062 C 212.324219 183.152344 212.328125 183.144531 212.328125 183.132812 C 212.476562 182.578125 212.710938 182.015625 213.085938 181.308594 C 213.109375 181.261719 213.132812 181.222656 213.15625 181.183594 L 212.507812 180.808594 L 212.832031 180.996094 L 212.507812 180.8125 C 212.476562 180.863281 212.449219 180.914062 212.425781 180.964844 C 212.027344 181.710938 211.773438 182.320312 211.609375 182.929688 C 211.597656 182.96875 211.589844 183.003906 211.578125 183.042969 C 211.226562 184.453125 211.429688 185.820312 212.136719 186.785156 C 212.332031 187.058594 212.5625 187.289062 212.785156 187.515625 C 213.007812 187.742188 213.21875 187.957031 213.386719 188.195312 C 213.898438 188.925781 213.992188 189.851562 214.09375 190.828125 C 214.148438 191.378906 214.207031 191.949219 214.34375 192.496094 C 214.898438 194.710938 216.886719 196.480469 219.132812 196.800781"/></g></g></g><g clip-path="url(#ae)"><g clip-path="url(#af)"><g clip-path="url(#ag)"><path fill="#642714" d="M 203.175781 204.109375 C 203.328125 204.132812 203.484375 204.058594 203.558594 203.910156 C 203.648438 203.738281 203.730469 203.566406 203.808594 203.390625 C 205.125 200.511719 205.542969 197.136719 205.011719 193.632812 C 204.65625 191.277344 203.871094 188.851562 202.675781 186.421875 C 202.515625 186.09375 202.347656 185.773438 202.21875 185.527344 C 202.121094 185.34375 201.898438 185.273438 201.714844 185.371094 C 201.53125 185.46875 201.460938 185.695312 201.558594 185.878906 C 201.683594 186.117188 201.847656 186.433594 202.003906 186.753906 C 203.167969 189.117188 203.929688 191.46875 204.273438 193.746094 C 204.78125 197.105469 204.386719 200.332031 203.128906 203.078125 C 203.054688 203.246094 202.980469 203.410156 202.894531 203.566406 C 202.800781 203.753906 202.875 203.976562 203.058594 204.074219 C 203.09375 204.09375 203.136719 204.105469 203.175781 204.109375"/></g></g></g><g clip-path="url(#ah)"><g clip-path="url(#ai)"><g clip-path="url(#aj)"><path fill="#642714" d="M 203.414062 203.605469 C 203.613281 203.636719 203.800781 203.503906 203.835938 203.300781 C 204.101562 201.839844 203.890625 200.308594 203.246094 198.996094 C 203.019531 198.53125 202.742188 198.09375 202.476562 197.675781 C 202.09375 197.070312 201.730469 196.503906 201.515625 195.871094 C 200.957031 194.230469 201.441406 192.507812 201.957031 190.6875 C 202.164062 189.960938 202.378906 189.207031 202.515625 188.464844 C 202.628906 187.851562 202.695312 187.222656 202.714844 186.601562 C 202.71875 186.390625 202.554688 186.21875 202.351562 186.214844 C 202.144531 186.210938 201.972656 186.375 201.964844 186.582031 C 201.953125 187.164062 201.890625 187.753906 201.78125 188.324219 C 201.648438 189.035156 201.441406 189.773438 201.238281 190.484375 C 200.714844 192.335938 200.171875 194.253906 200.808594 196.113281 C 201.054688 196.832031 201.457031 197.464844 201.847656 198.078125 C 202.113281 198.5 202.367188 198.898438 202.574219 199.324219 C 203.152344 200.5 203.335938 201.863281 203.101562 203.167969 C 203.0625 203.375 203.199219 203.566406 203.402344 203.605469 C 203.40625 203.605469 203.410156 203.605469 203.414062 203.605469"/></g></g></g><g clip-path="url(#ak)"><g clip-path="url(#al)"><g clip-path="url(#am)"><path fill="#642714" d="M 146.84375 195.023438 C 146.953125 195.039062 147.058594 195.042969 147.15625 195.046875 C 148.679688 195.09375 150.097656 194.515625 151.46875 193.953125 C 152.210938 193.652344 152.976562 193.339844 153.742188 193.136719 C 155.3125 192.71875 157.117188 192.703125 159.105469 193.085938 C 159.226562 193.109375 159.347656 193.132812 159.46875 193.15625 C 160.128906 193.292969 160.8125 193.429688 161.519531 193.378906 C 162.558594 193.304688 163.515625 192.824219 164.398438 192.316406 C 167.128906 190.730469 169.589844 188.753906 171.71875 186.433594 C 171.894531 186.246094 172.066406 186.054688 172.230469 185.859375 C 172.304688 185.777344 172.378906 185.691406 172.457031 185.601562 C 172.589844 185.445312 172.570312 185.207031 172.414062 185.074219 C 172.257812 184.941406 172.023438 184.957031 171.886719 185.117188 C 171.816406 185.199219 171.742188 185.28125 171.667969 185.363281 C 171.503906 185.558594 171.339844 185.742188 171.167969 185.925781 C 169.09375 188.191406 166.691406 190.121094 164.023438 191.667969 C 163.097656 192.203125 162.304688 192.570312 161.464844 192.632812 C 160.863281 192.675781 160.257812 192.550781 159.617188 192.421875 C 159.492188 192.398438 159.371094 192.371094 159.246094 192.347656 C 157.148438 191.941406 155.230469 191.964844 153.550781 192.410156 C 152.738281 192.628906 151.949219 192.949219 151.1875 193.261719 C 149.828125 193.816406 148.546875 194.339844 147.175781 194.296875 C 146.992188 194.292969 146.761719 194.273438 146.644531 194.160156 C 146.503906 194.023438 146.5 193.726562 146.632812 193.273438 C 146.769531 192.796875 146.9375 192.316406 147.097656 191.847656 C 147.347656 191.125 147.609375 190.378906 147.78125 189.609375 C 147.929688 188.9375 148 188.296875 147.984375 187.703125 C 147.976562 187.496094 147.804688 187.332031 147.601562 187.339844 C 147.394531 187.34375 147.230469 187.515625 147.238281 187.722656 C 147.25 188.253906 147.1875 188.832031 147.050781 189.441406 C 146.886719 190.171875 146.636719 190.902344 146.390625 191.605469 C 146.226562 192.078125 146.058594 192.570312 145.914062 193.0625 C 145.832031 193.339844 145.585938 194.183594 146.128906 194.703125 C 146.335938 194.902344 146.597656 194.988281 146.84375 195.023438"/></g></g></g><g clip-path="url(#an)"><g clip-path="url(#ao)"><g clip-path="url(#ap)"><path fill="#642714" d="M 171.605469 186.777344 C 171.730469 186.796875 171.867188 186.746094 171.949219 186.636719 C 172.050781 186.507812 172.15625 186.382812 172.269531 186.261719 C 172.273438 186.253906 172.28125 186.25 172.285156 186.242188 C 172.496094 186.019531 172.71875 185.804688 172.949219 185.609375 C 173.417969 185.207031 173.964844 184.820312 174.574219 184.453125 C 174.832031 184.300781 175.09375 184.152344 175.355469 184 C 177.125 182.980469 178.953125 181.925781 179.824219 180.046875 C 180.148438 179.339844 180.300781 178.589844 180.414062 177.882812 C 180.523438 177.183594 180.605469 176.472656 180.683594 175.785156 C 180.851562 174.316406 181.027344 172.796875 181.488281 171.386719 C 181.769531 170.53125 182.167969 169.6875 182.554688 168.875 C 183.019531 167.890625 183.503906 166.871094 183.800781 165.785156 C 184.082031 164.773438 183.773438 164.285156 183.464844 164.050781 C 183.222656 163.871094 182.941406 163.824219 182.738281 163.789062 C 180.726562 163.445312 178.667969 163.1875 176.613281 163.023438 C 176.40625 163.007812 176.226562 163.164062 176.210938 163.367188 C 176.195312 163.574219 176.34375 163.757812 176.554688 163.773438 C 178.585938 163.933594 180.621094 164.1875 182.609375 164.527344 C 182.785156 164.558594 182.929688 164.585938 183.019531 164.652344 C 183.257812 164.832031 183.144531 165.367188 183.082031 165.585938 C 182.800781 166.609375 182.332031 167.597656 181.878906 168.554688 C 181.484375 169.386719 181.074219 170.253906 180.78125 171.15625 C 180.292969 172.632812 180.113281 174.191406 179.941406 175.699219 C 179.863281 176.378906 179.785156 177.082031 179.675781 177.761719 C 179.570312 178.417969 179.433594 179.109375 179.144531 179.730469 C 178.375 181.394531 176.652344 182.386719 174.984375 183.347656 C 174.71875 183.503906 174.453125 183.65625 174.195312 183.808594 C 173.546875 184.195312 172.964844 184.609375 172.464844 185.039062 C 172.210938 185.253906 171.96875 185.488281 171.738281 185.734375 C 171.734375 185.738281 171.730469 185.742188 171.726562 185.746094 C 171.722656 185.75 171.722656 185.75 171.71875 185.753906 C 171.59375 185.890625 171.472656 186.03125 171.363281 186.175781 C 171.234375 186.339844 171.265625 186.574219 171.425781 186.703125 C 171.480469 186.742188 171.542969 186.769531 171.605469 186.777344"/></g></g></g><g clip-path="url(#aq)"><g clip-path="url(#ar)"><g clip-path="url(#as)"><path fill="#642714" d="M 175.277344 159.230469 C 175.691406 159.289062 176.042969 159.429688 176.183594 159.730469 C 176.269531 159.914062 176.269531 160.164062 176.269531 160.402344 C 176.273438 161.460938 176.253906 162.4375 176.210938 163.382812 C 175.941406 170.15625 174.71875 176.851562 172.574219 183.285156 C 172.441406 183.683594 172.304688 184.089844 172.160156 184.5 C 172.152344 184.457031 172.144531 184.414062 172.136719 184.375 C 172.097656 184.144531 172.054688 183.917969 172.007812 183.695312 C 171.957031 183.421875 171.890625 183.125 171.804688 182.746094 C 171.171875 179.964844 170.308594 177.1875 169.472656 174.503906 C 167.984375 169.714844 166.445312 164.769531 166.195312 159.714844 C 166.128906 158.457031 166.285156 157.488281 166.660156 156.839844 C 166.835938 156.542969 167.0625 156.300781 167.332031 156.128906 C 167.550781 155.988281 167.765625 155.933594 167.917969 155.976562 C 168.171875 156.039062 168.351562 156.34375 168.542969 156.667969 C 168.589844 156.746094 168.632812 156.824219 168.679688 156.894531 C 169.640625 158.429688 171.640625 159.222656 174.457031 159.191406 C 174.734375 159.1875 175.019531 159.195312 175.277344 159.230469 Z M 171.640625 185.9375 Z M 171.945312 186.398438 C 171.960938 186.398438 171.976562 186.402344 171.992188 186.402344 C 172.148438 186.402344 172.285156 186.308594 172.34375 186.167969 L 172 186.027344 L 172.34375 186.167969 C 172.351562 186.152344 172.359375 186.128906 172.367188 186.101562 C 172.46875 185.84375 172.566406 185.585938 172.65625 185.328125 C 172.875 184.722656 173.085938 184.113281 173.285156 183.519531 C 175.449219 177.019531 176.6875 170.253906 176.957031 163.414062 C 177 162.457031 177.019531 161.46875 177.019531 160.398438 C 177.015625 160.105469 177.015625 159.746094 176.859375 159.414062 C 176.394531 158.421875 175.078125 158.433594 174.449219 158.441406 C 172.675781 158.460938 170.34375 158.140625 169.3125 156.496094 C 169.269531 156.429688 169.226562 156.355469 169.1875 156.285156 C 168.953125 155.886719 168.660156 155.390625 168.105469 155.25 C 167.742188 155.152344 167.328125 155.242188 166.933594 155.496094 C 166.5625 155.730469 166.25 156.058594 166.011719 156.460938 C 165.558594 157.253906 165.371094 158.332031 165.445312 159.753906 C 165.707031 164.902344 167.257812 169.894531 168.757812 174.726562 C 169.589844 177.398438 170.449219 180.164062 171.078125 182.917969 C 171.148438 183.222656 171.214844 183.53125 171.277344 183.84375 C 171.324219 184.066406 171.363281 184.285156 171.402344 184.503906 C 171.4375 184.703125 171.46875 184.90625 171.5 185.105469 C 171.527344 185.289062 171.554688 185.476562 171.574219 185.660156 L 171.582031 185.695312 C 171.597656 185.816406 171.613281 185.933594 171.625 186.046875 C 171.628906 186.085938 171.636719 186.125 171.648438 186.15625 C 171.695312 186.285156 171.8125 186.378906 171.945312 186.398438"/></g></g></g><g clip-path="url(#at)"><g clip-path="url(#au)"><g clip-path="url(#av)"><path fill="#642714" d="M 181.296875 230.851562 C 181.371094 230.863281 181.445312 230.851562 181.519531 230.816406 C 184.203125 229.441406 186.410156 226.859375 187.738281 223.550781 C 188.007812 222.875 188.25 222.148438 188.460938 221.394531 C 188.8125 220.117188 189.074219 218.730469 189.261719 217.164062 C 189.40625 215.976562 189.503906 214.699219 189.578125 213.140625 L 189.59375 212.78125 C 189.679688 210.894531 189.765625 208.9375 190.382812 207.199219 C 190.453125 207.007812 190.347656 206.792969 190.15625 206.722656 C 189.960938 206.652344 189.746094 206.753906 189.679688 206.949219 C 189.027344 208.792969 188.933594 210.804688 188.847656 212.75 L 188.828125 213.105469 C 188.757812 214.644531 188.660156 215.90625 188.519531 217.074219 C 188.339844 218.605469 188.085938 219.953125 187.742188 221.195312 C 187.539062 221.921875 187.304688 222.621094 187.042969 223.269531 C 185.785156 226.414062 183.703125 228.855469 181.179688 230.148438 C 180.996094 230.242188 180.921875 230.46875 181.015625 230.652344 C 181.074219 230.765625 181.179688 230.835938 181.296875 230.851562"/></g></g></g><g clip-path="url(#aw)"><g clip-path="url(#ax)"><g clip-path="url(#ay)"><path fill="#642714" d="M 188.835938 217.488281 C 188.9375 217.503906 189.046875 217.476562 189.128906 217.40625 C 190.359375 216.363281 191.257812 215.089844 191.730469 213.722656 C 192.3125 212.039062 192.222656 210.230469 191.488281 208.765625 C 191.300781 208.390625 191.074219 208.039062 190.855469 207.699219 C 190.675781 207.425781 190.507812 207.164062 190.355469 206.894531 C 190.257812 206.714844 190.03125 206.648438 189.851562 206.746094 C 189.667969 206.847656 189.601562 207.074219 189.703125 207.257812 C 189.863281 207.550781 190.050781 207.835938 190.226562 208.109375 C 190.445312 208.445312 190.652344 208.761719 190.824219 209.101562 C 191.464844 210.390625 191.539062 211.984375 191.023438 213.480469 C 190.597656 214.71875 189.777344 215.878906 188.648438 216.832031 C 188.492188 216.964844 188.472656 217.203125 188.605469 217.359375 C 188.664062 217.433594 188.75 217.476562 188.835938 217.488281"/></g></g></g><g clip-path="url(#az)"><g clip-path="url(#aA)"><g clip-path="url(#aB)"><path fill="#642714" d="M 189.074219 221.867188 C 189.660156 221.949219 190.253906 221.984375 190.847656 221.96875 C 192.21875 221.9375 193.585938 221.628906 194.804688 221.085938 C 197.296875 219.96875 199.292969 217.847656 200.285156 215.261719 C 200.359375 215.070312 200.261719 214.851562 200.070312 214.777344 C 199.878906 214.703125 199.660156 214.800781 199.585938 214.992188 C 198.667969 217.394531 196.8125 219.363281 194.5 220.402344 C 193.375 220.90625 192.105469 221.1875 190.832031 221.21875 C 189.9375 221.242188 189.050781 221.144531 188.191406 220.929688 C 187.992188 220.882812 187.789062 221.003906 187.738281 221.203125 C 187.6875 221.402344 187.808594 221.609375 188.011719 221.65625 C 188.363281 221.746094 188.714844 221.816406 189.074219 221.867188"/></g></g></g><g clip-path="url(#aC)"><g clip-path="url(#aD)"><g clip-path="url(#aE)"><path fill="#642714" d="M 190.785156 221.964844 C 190.953125 221.992188 191.121094 221.898438 191.1875 221.734375 C 191.707031 220.433594 192.488281 218.820312 193.925781 217.875 C 194.800781 217.292969 195.824219 217.015625 196.910156 216.71875 C 198.023438 216.417969 199.171875 216.105469 200.144531 215.4375 C 200.234375 215.378906 200.324219 215.3125 200.414062 215.242188 C 200.578125 215.113281 200.605469 214.878906 200.476562 214.714844 C 200.351562 214.550781 200.117188 214.523438 199.953125 214.652344 C 199.882812 214.707031 199.808594 214.765625 199.730469 214.8125 C 198.855469 215.414062 197.816406 215.695312 196.714844 215.996094 C 195.621094 216.292969 194.488281 216.601562 193.511719 217.246094 C 191.90625 218.308594 191.054688 220.054688 190.492188 221.457031 C 190.414062 221.648438 190.507812 221.867188 190.699219 221.941406 C 190.726562 221.953125 190.757812 221.960938 190.785156 221.964844"/></g></g></g><g clip-path="url(#aF)"><g clip-path="url(#aG)"><g clip-path="url(#aH)"><path fill="#642714" d="M 146.15625 188.429688 C 146.167969 188.429688 146.179688 188.433594 146.1875 188.433594 C 146.804688 188.507812 147.339844 188.277344 147.785156 188.042969 C 147.921875 187.972656 148.0625 187.894531 148.203125 187.816406 C 148.589844 187.597656 148.953125 187.390625 149.328125 187.308594 C 150.152344 187.125 151.027344 187.519531 151.871094 187.898438 L 151.925781 187.921875 C 153.296875 188.539062 154.71875 189.074219 156.144531 189.515625 C 157.089844 189.8125 158.113281 190.082031 159.148438 190.046875 C 160.035156 190.019531 160.863281 189.78125 161.703125 189.519531 C 164.394531 188.671875 167.046875 187.605469 169.582031 186.347656 C 170.21875 186.03125 170.957031 185.636719 171.582031 185.121094 C 171.742188 184.988281 171.765625 184.753906 171.636719 184.59375 C 171.503906 184.433594 171.269531 184.410156 171.109375 184.542969 C 170.542969 185.007812 169.851562 185.375 169.25 185.675781 C 166.75 186.914062 164.136719 187.96875 161.480469 188.800781 C 160.691406 189.050781 159.917969 189.273438 159.125 189.296875 C 158.25 189.328125 157.390625 189.121094 156.367188 188.800781 C 154.96875 188.367188 153.578125 187.84375 152.230469 187.238281 L 152.175781 187.214844 C 151.265625 186.804688 150.230469 186.339844 149.167969 186.578125 C 148.683594 186.683594 148.253906 186.925781 147.835938 187.160156 C 147.703125 187.234375 147.570312 187.3125 147.4375 187.378906 C 147.078125 187.570312 146.691406 187.738281 146.28125 187.6875 C 146.277344 187.6875 146.269531 187.6875 146.261719 187.6875 C 145.371094 187.558594 144.878906 186.394531 144.855469 185.300781 C 144.789062 182.460938 146.359375 179.835938 147.972656 177.390625 C 148.089844 177.21875 148.042969 176.984375 147.871094 176.871094 C 147.699219 176.757812 147.464844 176.804688 147.351562 176.976562 C 145.671875 179.523438 144.035156 182.261719 144.109375 185.320312 C 144.140625 186.6875 144.792969 188.234375 146.15625 188.429688"/></g></g></g><g clip-path="url(#aI)"><g clip-path="url(#aJ)"><g clip-path="url(#aK)"><g clip-path="url(#aL)"><g clip-path="url(#aM)"><path fill="#642714" d="M 169.46875 184.234375 C 166.730469 185.152344 164.351562 185.191406 162.386719 184.347656 C 161.832031 184.109375 161.289062 183.789062 160.765625 183.480469 C 159.933594 182.988281 159.070312 182.480469 158.09375 182.242188 C 157.753906 182.160156 157.414062 182.113281 157.082031 182.070312 C 156.628906 182.007812 156.199219 181.949219 155.792969 181.804688 C 154.78125 181.441406 154.050781 180.59375 153.277344 179.695312 C 152.523438 178.816406 151.742188 177.90625 150.644531 177.433594 C 149.996094 177.15625 149.289062 177.054688 148.609375 176.957031 C 148.304688 176.914062 148.015625 176.871094 147.738281 176.816406 C 147.019531 176.671875 146.53125 176.464844 146.164062 176.136719 C 145.585938 175.628906 145.324219 174.757812 145.53125 174.011719 C 145.730469 173.285156 146.292969 172.722656 146.886719 172.125 C 147.457031 171.546875 148.050781 170.949219 148.355469 170.160156 C 148.59375 169.546875 148.625 168.890625 148.660156 168.257812 C 148.699219 167.488281 148.738281 166.761719 149.140625 166.214844 C 149.371094 165.902344 149.714844 165.65625 150.019531 165.453125 C 150.753906 164.960938 151.617188 164.472656 152.476562 164.578125 C 152.488281 164.578125 152.503906 164.582031 152.515625 164.582031 C 153.328125 164.699219 154.003906 165.296875 154.613281 165.929688 C 156.226562 167.59375 157.582031 169.484375 158.640625 171.542969 C 158.882812 172.011719 159.113281 172.496094 159.335938 172.964844 C 159.71875 173.773438 160.117188 174.609375 160.589844 175.398438 C 161.859375 177.515625 163.605469 179.210938 165.585938 181.050781 C 166.894531 182.265625 168.109375 183.355469 169.46875 184.234375 Z M 164.15625 185.609375 C 165.980469 185.871094 168.039062 185.578125 170.304688 184.734375 C 170.601562 184.894531 170.898438 185.042969 171.195312 185.175781 C 171.375 185.253906 171.554688 185.328125 171.738281 185.398438 C 171.933594 185.472656 172.144531 185.375 172.21875 185.183594 C 172.292969 184.988281 172.195312 184.773438 172.003906 184.699219 C 171.832031 184.632812 171.664062 184.5625 171.496094 184.488281 C 171.171875 184.34375 170.84375 184.179688 170.519531 183.996094 C 170.507812 183.988281 170.5 183.984375 170.484375 183.976562 L 170.464844 183.964844 C 168.910156 183.066406 167.566406 181.863281 166.09375 180.5 C 164.152344 178.699219 162.449219 177.042969 161.230469 175.007812 C 160.773438 174.253906 160.386719 173.433594 160.011719 172.644531 C 159.785156 172.167969 159.550781 171.675781 159.304688 171.195312 C 158.210938 169.074219 156.8125 167.125 155.148438 165.40625 C 154.433594 164.664062 153.621094 163.957031 152.582031 163.835938 C 151.460938 163.699219 150.449219 164.261719 149.605469 164.832031 C 149.25 165.070312 148.839844 165.355469 148.539062 165.769531 C 148.003906 166.5 147.957031 167.375 147.914062 168.21875 C 147.882812 168.820312 147.851562 169.386719 147.660156 169.890625 C 147.410156 170.53125 146.898438 171.046875 146.355469 171.59375 C 145.71875 172.234375 145.0625 172.894531 144.8125 173.816406 C 144.527344 174.839844 144.871094 176 145.667969 176.699219 C 146.277344 177.238281 147.015625 177.4375 147.589844 177.550781 C 147.890625 177.613281 148.203125 177.65625 148.5 177.699219 C 149.164062 177.792969 149.792969 177.882812 150.347656 178.125 C 151.289062 178.53125 151.980469 179.332031 152.714844 180.183594 C 153.515625 181.117188 154.34375 182.082031 155.542969 182.511719 C 156.019531 182.683594 156.507812 182.75 156.984375 182.8125 C 157.308594 182.859375 157.617188 182.898438 157.917969 182.972656 C 158.789062 183.183594 159.5625 183.640625 160.386719 184.125 C 160.929688 184.449219 161.496094 184.78125 162.09375 185.035156 C 162.742188 185.316406 163.429688 185.507812 164.15625 185.609375"/></g></g></g></g></g><g clip-path="url(#aN)"><g clip-path="url(#aO)"><g clip-path="url(#aP)"><path fill="#642714" d="M 152.46875 164.574219 C 152.617188 164.597656 152.769531 164.527344 152.847656 164.386719 C 153.386719 163.417969 153.816406 162.359375 154.234375 161.339844 C 154.429688 160.851562 154.636719 160.34375 154.847656 159.863281 C 155.777344 157.753906 157.421875 155.175781 160 154.851562 C 160.792969 154.753906 161.699219 154.878906 162.761719 155.238281 C 163.953125 155.636719 165.082031 156.214844 166.117188 156.957031 C 166.285156 157.078125 166.519531 157.039062 166.640625 156.871094 C 166.757812 156.703125 166.722656 156.46875 166.554688 156.347656 C 165.457031 155.5625 164.261719 154.949219 163 154.527344 C 161.828125 154.132812 160.816406 153.996094 159.90625 154.105469 C 156.980469 154.476562 155.171875 157.277344 154.164062 159.558594 C 153.949219 160.050781 153.742188 160.5625 153.542969 161.054688 C 153.132812 162.054688 152.714844 163.09375 152.195312 164.023438 C 152.09375 164.203125 152.160156 164.429688 152.339844 164.53125 C 152.378906 164.554688 152.421875 164.570312 152.46875 164.574219"/></g></g></g><g clip-path="url(#aQ)"><g clip-path="url(#aR)"><g clip-path="url(#aS)"><g clip-path="url(#aT)"><path fill="#272023" d="M 208.976562 81.953125 C 217.847656 80.925781 226.128906 80.503906 234.425781 80.742188 C 236.289062 80.765625 238.265625 80.777344 240.1875 80.796875 C 251.339844 80.824219 262.851562 80.867188 273.492188 83.714844 C 285.484375 86.886719 294.433594 93.230469 300.902344 103.039062 C 302.9375 106.105469 304.769531 109.492188 306.257812 113.039062 C 313.835938 131.363281 314.921875 154.699219 309.503906 182.390625 C 307.660156 188.726562 305.199219 194.890625 302.328125 200.625 C 282.925781 243.679688 248.097656 272.078125 209.066406 276.605469 C 206.582031 276.890625 204.082031 277.0625 201.578125 277.171875 C 196.746094 277.371094 191.867188 277.15625 187.011719 276.640625 L 186.953125 276.648438 L 186.894531 276.652344 C 162.371094 277.097656 135.710938 270.464844 115.554688 258.941406 C 97.964844 248.859375 76.300781 230.007812 72.808594 197.289062 C 70.5625 177.929688 74.46875 155.273438 83.472656 135.207031 C 85.546875 130.886719 88.085938 126.929688 90.914062 123.421875 C 94.007812 119.585938 97.402344 116.308594 101.328125 113.457031 C 104.804688 110.890625 108.6875 108.703125 113.078125 106.753906 C 119.96875 104.691406 126.96875 102.5 133.738281 100.398438 C 158.152344 92.824219 183.308594 84.929688 208.976562 81.953125 M 208.839844 80.769531 C 175.835938 84.59375 144.347656 96.285156 112.710938 105.65625 C 108.492188 107.523438 104.492188 109.726562 100.679688 112.511719 C 96.867188 115.292969 93.296875 118.644531 89.992188 122.691406 C 86.953125 126.464844 84.421875 130.476562 82.390625 134.671875 C 73.71875 153.980469 69.222656 176.703125 71.625 197.425781 C 77.886719 256.109375 142.234375 278.652344 186.789062 277.804688 C 191.769531 278.367188 196.699219 278.515625 201.539062 278.375 C 204.101562 278.257812 206.601562 278.089844 209.144531 277.796875 C 249.59375 273.105469 284.234375 243.585938 303.289062 201.171875 C 306.507812 194.800781 308.851562 188.648438 310.558594 182.6875 C 315.078125 159.664062 316.21875 134.328125 307.230469 112.628906 C 305.738281 109.078125 303.90625 105.691406 301.789062 102.398438 C 285.699219 77.859375 257.882812 79.882812 234.355469 79.609375 C 225.753906 79.347656 217.234375 79.796875 208.839844 80.769531 Z M 208.839844 80.769531"/></g></g></g></g></svg>