<svg id="Layer_1" data-name="Layer 1" xmlns="http://www.w3.org/2000/svg" viewBox="0 0 563 24.5"><defs><style>.cls-1{fill:#fff;}.cls-2{fill:none;stroke:#ef4a68;stroke-miterlimit:10;stroke-width:4.5px;}</style></defs><path class="cls-1" d="M51,109c9.7,0,9.7,20,19.41,20s9.71-20,19.41-20,9.71,20,19.41,20,9.71-20,19.41-20,9.71,20,19.41,20,9.71-20,19.42-20,9.7,20,19.41,20,9.7-20,19.41-20,9.71,20,19.41,20,9.71-20,19.42-20,9.7,20,19.41,20,9.7-20,19.41-20,9.71,20,19.41,20,9.71-20,19.42-20,9.71,20,19.41,20,9.71-20,19.42-20,9.7,20,19.41,20,9.71-20,19.41-20,9.71,20,19.41,20,9.71-20,19.42-20,9.7,20,19.41,20,9.71-20,19.41-20,9.71,20,19.42,20,9.71-20,19.42-20,9.7,20,19.41,20,9.71-20,19.42-20,9.71,20,19.42,20,9.71-20,19.42-20,9.71,20,19.42,20" transform="translate(-51 -106.75)"/><path class="cls-2" d="M51,109c9.7,0,9.7,20,19.41,20s9.71-20,19.41-20,9.71,20,19.41,20,9.71-20,19.41-20,9.71,20,19.41,20,9.71-20,19.42-20,9.7,20,19.41,20,9.7-20,19.41-20,9.71,20,19.41,20,9.71-20,19.42-20,9.7,20,19.41,20,9.7-20,19.41-20,9.71,20,19.41,20,9.71-20,19.42-20,9.71,20,19.41,20,9.71-20,19.42-20,9.7,20,19.41,20,9.71-20,19.41-20,9.71,20,19.41,20,9.71-20,19.42-20,9.7,20,19.41,20,9.71-20,19.41-20,9.71,20,19.42,20,9.71-20,19.42-20,9.7,20,19.41,20,9.71-20,19.42-20,9.71,20,19.42,20,9.71-20,19.42-20,9.71,20,19.42,20" transform="translate(-51 -106.75)"/></svg>