<svg id="Layer_1" data-name="Layer 1" xmlns="http://www.w3.org/2000/svg" xmlns:xlink="http://www.w3.org/1999/xlink" viewBox="0 0 721.92 472.87"><defs><style>.cls-1,.cls-15,.cls-16,.cls-18,.cls-20,.cls-26,.cls-27,.cls-3,.cls-31{fill:none;}.cls-2{clip-path:url(#clip-path);}.cls-18,.cls-3{stroke:#e9c368;}.cls-15,.cls-16,.cls-18,.cls-20,.cls-26,.cls-27,.cls-3,.cls-31{stroke-miterlimit:10;}.cls-3{stroke-width:0.53px;}.cls-17,.cls-4{font-size:13.59px;}.cls-17,.cls-21,.cls-4{fill:#231f20;}.cls-10,.cls-17,.cls-21,.cls-28,.cls-4{font-family:AntarcticanHeadline-Extralight, Antarctican Headline;font-weight:200;}.cls-5{letter-spacing:-0.07em;}.cls-6{letter-spacing:0em;}.cls-7{letter-spacing:0em;}.cls-8{letter-spacing:-0.01em;}.cls-9{letter-spacing:0em;}.cls-10{font-size:22.66px;}.cls-10,.cls-28,.cls-29{fill:#e76f51;}.cls-11{fill:#264653;}.cls-12{fill:#2a9d8f;}.cls-13{fill:#e9c368;}.cls-14{fill:#cea18c;}.cls-15,.cls-31{stroke:#e76f51;}.cls-15{stroke-width:0.63px;}.cls-16,.cls-27{stroke:#2a9d8f;}.cls-16{stroke-width:0.5px;}.cls-17{letter-spacing:0em;}.cls-18{stroke-width:0.48px;}.cls-19{letter-spacing:0em;}.cls-20,.cls-26{stroke:#e9c369;}.cls-20{stroke-width:0.53px;}.cls-21{font-size:13.76px;}.cls-22{letter-spacing:-0.07em;}.cls-23{letter-spacing:0em;}.cls-24{letter-spacing:-0.02em;}.cls-25{letter-spacing:-0.01em;}.cls-26{stroke-width:0.49px;}.cls-27{stroke-width:0.5px;}.cls-28{font-size:22.93px;}.cls-30{fill:#606161;}.cls-31{stroke-width:0.64px;}.cls-32{fill:#fff;}</style><clipPath id="clip-path" transform="translate(-68.37 -48.79)"><rect class="cls-1" x="37.94" y="21.58" width="374.62" height="529.82"/></clipPath></defs><g class="cls-2"><rect class="cls-3" x="0.26" y="3.12" width="312.88" height="120.01" rx="9.44"/></g><text class="cls-4" transform="translate(101.9 40.63)">As a use<tspan class="cls-5" x="28.29" y="0">r</tspan><tspan x="31.2" y="0">, I want to be able to create a proﬁl</tspan><tspan class="cls-6" x="151.89" y="0">e/</tspan><tspan x="159.01" y="0">log </tspan></text><text class="cls-4" transform="translate(101.9 56.94)">into my proﬁle so that I can sav<tspan class="cls-7" x="107.97" y="0">e</tspan><tspan class="cls-8" x="112.1" y="0">/</tspan><tspan class="cls-9" x="115.06" y="0">access stored data </tspan></text><text class="cls-4" transform="translate(101.9 73.25)">about my favorite movies. </text><text class="cls-10" transform="translate(43.87 107.28)">Nila</text><g class="cls-2"><path class="cls-11" d="M154.81,99.81c0,18.2-15.44,32.94-34.48,32.94S85.86,118,85.86,99.81s15.43-32.93,34.47-32.93,34.48,14.74,34.48,32.93" transform="translate(-68.37 -48.79)"/><path class="cls-12" d="M128.83,110.63c-3.32-.17-15.64,1.33-17.68-1.64s6.23-10.42,6.45-14.79S114.66,82.78,117,80s10.13-1.2,13.45-1a10.79,10.79,0,0,1,8.27,5.07,19.53,19.53,0,0,1-1.13,22.37,10.79,10.79,0,0,1-8.74,4.2" transform="translate(-68.37 -48.79)"/><path class="cls-12" d="M128.61,90.63a3.68,3.68,0,1,1,3.86-3.49,3.67,3.67,0,0,1-3.86,3.49" transform="translate(-68.37 -48.79)"/><path class="cls-12" d="M130,97.83a3.68,3.68,0,1,1,3.86-3.49A3.68,3.68,0,0,1,130,97.83" transform="translate(-68.37 -48.79)"/><path class="cls-12" d="M128.39,104.63a3.68,3.68,0,1,1,3.86-3.49,3.69,3.69,0,0,1-3.86,3.49" transform="translate(-68.37 -48.79)"/><path class="cls-12" d="M134.26,87.23a3.68,3.68,0,1,1,3.86-3.49,3.67,3.67,0,0,1-3.86,3.49" transform="translate(-68.37 -48.79)"/><path class="cls-12" d="M138.2,91.12a3.68,3.68,0,1,1,3.86-3.49,3.68,3.68,0,0,1-3.86,3.49" transform="translate(-68.37 -48.79)"/><path class="cls-12" d="M130.77,83.37a3.68,3.68,0,1,1,3.86-3.49,3.67,3.67,0,0,1-3.86,3.49" transform="translate(-68.37 -48.79)"/><path class="cls-12" d="M116.31,115.31a3.68,3.68,0,1,1,3.86-3.49,3.67,3.67,0,0,1-3.86,3.49" transform="translate(-68.37 -48.79)"/><path class="cls-12" d="M121.77,115.59a3.68,3.68,0,1,1,3.86-3.49,3.69,3.69,0,0,1-3.86,3.49" transform="translate(-68.37 -48.79)"/><path class="cls-12" d="M126.78,115a3.68,3.68,0,1,1,3.87-3.49,3.68,3.68,0,0,1-3.87,3.49" transform="translate(-68.37 -48.79)"/><path class="cls-12" d="M133,112.47a3.68,3.68,0,1,1,3.86-3.49,3.68,3.68,0,0,1-3.86,3.49" transform="translate(-68.37 -48.79)"/><path class="cls-12" d="M136.91,107.61a3.68,3.68,0,1,1,3.86-3.49,3.68,3.68,0,0,1-3.86,3.49" transform="translate(-68.37 -48.79)"/><path class="cls-12" d="M141.28,103a3.68,3.68,0,1,1,3.86-3.49,3.68,3.68,0,0,1-3.86,3.49" transform="translate(-68.37 -48.79)"/><path class="cls-12" d="M141.14,96.77A3.68,3.68,0,1,1,145,93.28a3.68,3.68,0,0,1-3.86,3.49" transform="translate(-68.37 -48.79)"/><path class="cls-12" d="M115.93,85.4a3.68,3.68,0,1,1,3.86-3.49,3.68,3.68,0,0,1-3.86,3.49" transform="translate(-68.37 -48.79)"/><path class="cls-12" d="M119.8,81.65a3.68,3.68,0,1,1,3.86-3.49,3.69,3.69,0,0,1-3.86,3.49" transform="translate(-68.37 -48.79)"/><path class="cls-12" d="M125.36,81.93a3.68,3.68,0,1,1,3.86-3.49,3.69,3.69,0,0,1-3.86,3.49" transform="translate(-68.37 -48.79)"/><path class="cls-12" d="M110.68,80.08c3.32.17,15.64-1.33,17.67,1.64s-6.22,10.42-6.44,14.79,2.94,11.42.61,14.18-10.12,1.19-13.44,1a10.8,10.8,0,0,1-8.28-5.07,19.53,19.53,0,0,1,1.13-22.37,10.8,10.8,0,0,1,8.75-4.2" transform="translate(-68.37 -48.79)"/><path class="cls-12" d="M110.9,100.08a3.68,3.68,0,1,1-3.86,3.49,3.68,3.68,0,0,1,3.86-3.49" transform="translate(-68.37 -48.79)"/><path class="cls-12" d="M109.47,92.88a3.68,3.68,0,1,1-3.86,3.49,3.69,3.69,0,0,1,3.86-3.49" transform="translate(-68.37 -48.79)"/><path class="cls-12" d="M111.12,86.08a3.68,3.68,0,1,1-3.86,3.49,3.69,3.69,0,0,1,3.86-3.49" transform="translate(-68.37 -48.79)"/><path class="cls-12" d="M105.25,103.48a3.68,3.68,0,1,1-3.86,3.49,3.68,3.68,0,0,1,3.86-3.49" transform="translate(-68.37 -48.79)"/><path class="cls-12" d="M101.31,99.59a3.68,3.68,0,1,1-3.86,3.49,3.69,3.69,0,0,1,3.86-3.49" transform="translate(-68.37 -48.79)"/><path class="cls-12" d="M108.74,107.34a3.68,3.68,0,1,1-3.86,3.49,3.68,3.68,0,0,1,3.86-3.49" transform="translate(-68.37 -48.79)"/><path class="cls-12" d="M123.2,75.4a3.68,3.68,0,1,1-3.86,3.49,3.68,3.68,0,0,1,3.86-3.49" transform="translate(-68.37 -48.79)"/><path class="cls-12" d="M117.74,75.12a3.68,3.68,0,1,1-3.86,3.49,3.69,3.69,0,0,1,3.86-3.49" transform="translate(-68.37 -48.79)"/><path class="cls-12" d="M112.72,75.74a3.68,3.68,0,1,1-3.86,3.49,3.69,3.69,0,0,1,3.86-3.49" transform="translate(-68.37 -48.79)"/><path class="cls-12" d="M106.52,78.24a3.68,3.68,0,1,1-3.86,3.49,3.67,3.67,0,0,1,3.86-3.49" transform="translate(-68.37 -48.79)"/><path class="cls-12" d="M102.59,83.1a3.68,3.68,0,1,1-3.86,3.49,3.67,3.67,0,0,1,3.86-3.49" transform="translate(-68.37 -48.79)"/><path class="cls-12" d="M98.23,87.68a3.68,3.68,0,1,1-3.86,3.49,3.68,3.68,0,0,1,3.86-3.49" transform="translate(-68.37 -48.79)"/><path class="cls-12" d="M98.36,93.94a3.68,3.68,0,1,1-3.86,3.49,3.68,3.68,0,0,1,3.86-3.49" transform="translate(-68.37 -48.79)"/><path class="cls-12" d="M123.58,105.31a3.68,3.68,0,1,1-3.86,3.49,3.68,3.68,0,0,1,3.86-3.49" transform="translate(-68.37 -48.79)"/><path class="cls-12" d="M119.71,109.06a3.68,3.68,0,1,1-3.87,3.49,3.67,3.67,0,0,1,3.87-3.49" transform="translate(-68.37 -48.79)"/><path class="cls-12" d="M114.14,108.78a3.68,3.68,0,1,1-3.86,3.49,3.67,3.67,0,0,1,3.86-3.49" transform="translate(-68.37 -48.79)"/><path class="cls-13" d="M102.24,122.59c0-5.73,7.7-10.38,17.21-10.38s17.2,4.65,17.2,10.38Z" transform="translate(-68.37 -48.79)"/><path class="cls-14" d="M130.62,90.8c-.47,0-.9.49-1.19,1.25a5.67,5.67,0,0,1-3.71-1.1c-2.3-1.55-5.26-1.78-6.33-5.53-1.2,3.53-3.34,3.3-5.48,4.74a5.32,5.32,0,0,1-4.21,1,1.07,1.07,0,0,0-.82-.51c-.89,0-1.62,1.66-1.62,3.71s.73,3.71,1.62,3.71a1.16,1.16,0,0,0,.9-.62,16,16,0,0,0,2.51,5.75c1.12,1.38,1.83,1,3.79,2.67V113a2.31,2.31,0,0,0-.1.64c0,1.58,1.81,2.86,4,2.86s4-1.28,4-2.86a2.12,2.12,0,0,0-.22-.93V106.5c2-1.66,4.2-2.52,5.17-5.72.31-1,.59-1.92.83-2.83a1,1,0,0,0,.77.46c.9,0,1.62-1.7,1.62-3.8s-.72-3.81-1.62-3.81" transform="translate(-68.37 -48.79)"/><path class="cls-15" d="M264.36,235.83c0,16.49-14.51,29.86-32.4,29.86s-32.41-13.37-32.41-29.86S214.06,206,232,206,264.36,219.34,264.36,235.83Z" transform="translate(-68.37 -48.79)"/></g><text class="cls-4" transform="translate(145.72 190.36)">Open app</text><g class="cls-2"><rect class="cls-16" x="116.36" y="247.53" width="86.97" height="37.34" rx="9.44"/></g><text class="cls-17" transform="translate(132.76 269.71)">W<tspan class="cls-9" x="6.1" y="0">elcome screen</tspan></text><g class="cls-2"><rect class="cls-18" x="202.26" y="376.6" width="59.39" height="59.39" transform="translate(-287.72 234.23) rotate(-45)"/></g><text class="cls-4" transform="translate(144.86 360.43)"><tspan class="cls-19">R</tspan><tspan x="4.31" y="0">egistered?</tspan></text><g class="cls-2"><rect class="cls-16" x="120.11" y="435.27" width="86.97" height="37.34" rx="9.44"/></g><text class="cls-4" transform="translate(145.62 459.55)">Movie List</text><g class="cls-2"><path class="cls-15" d="M146.32,406.64c0,16.49-14.5,29.86-32.4,29.86s-32.41-13.37-32.41-29.86S96,376.78,113.92,376.78,146.32,390.15,146.32,406.64Z" transform="translate(-68.37 -48.79)"/></g><text class="cls-4" transform="translate(33.32 360.77)">Register</text><g class="cls-2"><path class="cls-15" d="M370.65,403.72c0,16.48-14.51,29.85-32.41,29.85s-32.4-13.37-32.4-29.85,14.5-29.86,32.4-29.86S370.65,387.23,370.65,403.72Z" transform="translate(-68.37 -48.79)"/></g><text class="cls-4" transform="translate(259.54 357.85)">Sign in</text><g class="cls-2"><polygon class="cls-11" points="172.49 238.3 165.85 243.22 158.77 238.34 172.49 238.3"/><polygon class="cls-11" points="165.69 239.32 164.6 221.21 165.7 221.19 166.79 239.31 165.69 239.32"/><polygon class="cls-11" points="170.45 306.29 163.81 311.21 156.73 306.33 170.45 306.29"/><polygon class="cls-11" points="163.64 307.3 162.56 289.19 163.66 289.18 164.75 307.29 163.64 307.3"/><polygon class="cls-11" points="227.62 348.06 232.54 354.7 227.66 361.78 227.62 348.06"/><polygon class="cls-11" points="228.64 354.87 210.53 355.96 210.51 354.86 228.63 353.77 228.64 354.87"/></g><text class="cls-4" transform="translate(216.89 348.06)">y</text><g class="cls-2"><polygon class="cls-11" points="91.74 361.78 86.82 355.14 91.7 348.06 91.74 361.78"/><polygon class="cls-11" points="90.85 355.1 92.89 355.05 92.63 356.12 90.59 356.17 90.85 355.1"/><polygon class="cls-11" points="110.69 355.1 112.73 355.05 112.47 356.12 110.43 356.17 110.69 355.1"/><polygon class="cls-11" points="106.58 355.1 108.62 355.05 108.36 356.12 106.32 356.17 106.58 355.1"/><polygon class="cls-11" points="101.47 355.1 103.51 355.05 103.25 356.12 101.21 356.17 101.47 355.1"/><polygon class="cls-11" points="96.28 355.1 98.32 355.05 98.06 356.12 96.02 356.17 96.28 355.1"/></g><text class="cls-4" transform="translate(101.21 350.1)">N</text><g class="cls-2"><polygon class="cls-11" points="96.12 445.19 104.16 452.91 96.44 460.95 96.12 445.19"/><rect class="cls-11" x="137.1" y="501" width="29.13" height="1.27" transform="translate(-83.79 -43.87) rotate(-1.77)"/><path class="cls-11" d="M145.1,502.47l-28.48.88a.63.63,0,1,1,0-1.26l28.48-.89Z" transform="translate(-68.37 -48.79)"/><path class="cls-11" d="M115.91,502.64v-28.5h1.26v28.5a.63.63,0,1,1-1.26,0" transform="translate(-68.37 -48.79)"/><rect class="cls-11" x="47.54" y="404.2" width="1.27" height="29.13"/><polygon class="cls-11" points="229.13 445.94 221.09 453.66 228.81 461.71 229.13 445.94"/><rect class="cls-11" x="309.68" y="487.82" width="1.27" height="29.13" transform="translate(-269.78 748.26) rotate(-88.23)"/><path class="cls-11" d="M316.88,503.23l28.48.88a.64.64,0,0,0,.65-.62.63.63,0,0,0-.61-.65L316.92,502Z" transform="translate(-68.37 -48.79)"/><path class="cls-11" d="M346.07,503.4V474.9h-1.26v28.5a.63.63,0,0,0,1.26,0" transform="translate(-68.37 -48.79)"/><rect class="cls-11" x="276.44" y="404.96" width="1.27" height="29.13"/></g><text x="-68.37" y="-48.79"/><text x="-68.37" y="-48.79"/><rect class="cls-20" x="392.73" y="0.27" width="316.73" height="121.48" rx="15"/><text class="cls-21" transform="translate(494.92 45.68)">As a use<tspan class="cls-22" x="28.63" y="0">r</tspan><tspan class="cls-23" x="31.57" y="0">, I want to select a movie or its directo</tspan><tspan class="cls-24" x="164.94" y="0">r</tspan><tspan class="cls-25" x="168.59" y="0">/</tspan><tspan x="171.59" y="0">genre </tspan><tspan x="0" y="16.51">and learn even more details about it</tspan></text><rect class="cls-26" x="716.74" y="287.96" width="60.12" height="60.12" transform="translate(375.25 -483.71) rotate(45)"/><text class="cls-21" transform="translate(659.48 272.19)">View genre?</text><rect class="cls-27" x="513" y="164.23" width="88.03" height="37.8" rx="15"/><text class="cls-21" transform="translate(538.83 188.81)">Movie view</text><polygon class="cls-11" points="567.14 232.72 560.42 237.7 553.25 232.75 567.14 232.72"/><polygon class="cls-11" points="560.25 233.75 559.15 215.41 560.26 215.4 561.36 233.73 560.25 233.75"/><text class="cls-21" transform="translate(696.18 362.31)">y</text><text class="cls-28" transform="translate(425.6 107.18)">Lolie</text><ellipse class="cls-29" cx="443.18" cy="49.96" rx="36.76" ry="35.12"/><path class="cls-11" d="M526.12,85.45c0,3.35,2.13,15.67-.76,17.87s-10.8-5.73-15.2-5.73-11.35,3.54-14.24,1.34S494.2,88.8,494.2,85.45a10.88,10.88,0,0,1,4.67-8.58,19.67,19.67,0,0,1,22.57,0A10.87,10.87,0,0,1,526.12,85.45Z" transform="translate(-68.37 -48.79)"/><path class="cls-12" d="M492.38,121.82c0-6.12,8.21-11.08,18.34-11.08s18.35,5,18.35,11.08Z" transform="translate(-68.37 -48.79)"/><path class="cls-30" d="M522.32,88.23c-.51,0-1,.52-1.28,1.34a6.13,6.13,0,0,1-3.95-1.18c-2.45-1.65-5.61-1.9-6.75-5.9-1.28,3.77-3.56,3.52-5.84,5.05A5.66,5.66,0,0,1,500,88.61a1.16,1.16,0,0,0-.87-.54c-1,0-1.73,1.77-1.73,4s.77,4,1.73,4a1.2,1.2,0,0,0,.95-.66,17.13,17.13,0,0,0,2.68,6.13c1.2,1.47,2,1,4.05,2.85v7.6a2.25,2.25,0,0,0-.11.68c0,1.69,1.93,3,4.31,3s4.31-1.36,4.31-3a2.21,2.21,0,0,0-.23-1V105c2.14-1.77,4.47-2.69,5.51-6.1.33-1.07.63-2.05.88-3a1.09,1.09,0,0,0,.83.5c.95,0,1.73-1.82,1.73-4.06S523.27,88.23,522.32,88.23Z" transform="translate(-68.37 -48.79)"/><ellipse class="cls-29" cx="454.21" cy="46.47" rx="0.62" ry="0.52"/><ellipse class="cls-29" cx="430.84" cy="46.47" rx="0.62" ry="0.52"/><circle class="cls-11" cx="433.93" cy="37.9" r="3.71"/><circle class="cls-11" cx="441.1" cy="36.1" r="3.71"/><circle class="cls-11" cx="448.02" cy="37.41" r="3.71"/><circle class="cls-11" cx="430.22" cy="32.39" r="3.71"/><circle class="cls-11" cx="433.93" cy="28.23" r="3.71"/><circle class="cls-11" cx="426.52" cy="36.1" r="3.71"/><circle class="cls-11" cx="459.39" cy="49.02" r="3.71"/><circle class="cls-11" cx="459.39" cy="43.51" r="3.71"/><circle class="cls-11" cx="458.51" cy="38.5" r="3.71"/><circle class="cls-11" cx="455.68" cy="32.39" r="3.71"/><circle class="cls-11" cx="450.6" cy="28.68" r="3.71"/><circle class="cls-11" cx="445.76" cy="24.52" r="3.71"/><circle class="cls-11" cx="439.47" cy="24.97" r="3.71"/><circle class="cls-11" cx="429.31" cy="50.93" r="3.71"/><circle class="cls-11" cx="425.34" cy="47.22" r="3.71"/><circle class="cls-11" cx="425.34" cy="41.61" r="3.71"/><ellipse class="cls-31" cx="560.2" cy="277.1" rx="32.81" ry="30.22"/><text class="cls-21" transform="translate(539.6 281.79)">Select movie</text><rect class="cls-26" x="485.19" y="294.18" width="60.12" height="60.12" transform="translate(311.82 -318.16) rotate(45)"/><text class="cls-21" transform="translate(422.81 278.41)">View director?</text><rect class="cls-27" x="402.1" y="412.87" width="88.03" height="37.8" rx="15"/><text class="cls-21" transform="translate(427.92 437.44)">Director view</text><rect class="cls-27" x="633.64" y="416.71" width="88.03" height="37.8" rx="15"/><text class="cls-21" transform="translate(659.46 441.29)">Genre view</text><text class="cls-21" transform="translate(433.42 369.07)">y</text><polygon class="cls-11" points="621.12 262.3 625.62 269.35 620.2 276.16 621.12 262.3"/><polygon class="cls-11" points="621.67 269.25 603.3 269.08 603.37 267.97 621.73 268.14 621.67 269.25"/><polygon class="cls-11" points="499.81 262.32 495.3 269.37 500.73 276.18 499.81 262.32"/><polygon class="cls-11" points="499.26 269.26 517.63 269.1 517.56 267.98 499.19 268.15 499.26 269.26"/><polygon class="cls-11" points="493.62 181.84 501.76 174.02 493.95 165.88 493.62 181.84"/><rect class="cls-11" x="534.27" y="222.24" width="29.49" height="1.28" transform="translate(-61.22 -65.64) rotate(1.77)"/><path class="cls-11" d="M513.42,221.58h28.94a0,0,0,0,1,0,0v1.28a0,0,0,0,1,0,0H513.42a.55.55,0,0,1-.55-.55v-.19a.55.55,0,0,1,.55-.55Z" transform="translate(-61.25 -64.98) rotate(1.77)"/><path class="cls-11" d="M498.71,235.32h28.94a.55.55,0,0,1,.55.55v.19a.55.55,0,0,1-.55.55H498.71a0,0,0,0,1,0,0v-1.28a0,0,0,0,1,0,0Z" transform="translate(209.13 700.63) rotate(-90)"/><rect class="cls-11" x="498.71" y="256.73" width="29.49" height="1.28" transform="translate(187.72 722.04) rotate(-90)"/><rect class="cls-32" x="443.61" y="212.46" width="2.96" height="2.96"/><rect class="cls-32" x="443.61" y="217.91" width="2.96" height="2.96"/><rect class="cls-32" x="443.61" y="201.55" width="2.96" height="2.96"/><rect class="cls-32" x="443.61" y="207" width="2.96" height="2.96"/><rect class="cls-32" x="443.61" y="190.64" width="2.96" height="2.96"/><rect class="cls-32" x="443.61" y="196.09" width="2.96" height="2.96"/><rect class="cls-32" x="443.61" y="179.73" width="2.96" height="2.96"/><rect class="cls-32" x="443.61" y="185.18" width="2.96" height="2.96"/><rect class="cls-32" x="443.61" y="175.06" width="2.96" height="2.96"/><rect class="cls-32" x="448.5" y="171.66" width="2.96" height="2.96"/><rect class="cls-32" x="527.87" y="220.75" width="2.96" height="2.96" transform="translate(699.46 -348.8) rotate(91.77)"/><rect class="cls-32" x="522.42" y="220.58" width="2.96" height="2.96" transform="translate(693.67 -343.52) rotate(91.77)"/><rect class="cls-32" x="538.78" y="221.09" width="2.96" height="2.96" transform="translate(711.04 -359.35) rotate(91.77)"/><rect class="cls-32" x="533.33" y="220.92" width="2.96" height="2.96" transform="translate(705.25 -354.08) rotate(91.77)"/><rect class="cls-32" x="549.68" y="221.42" width="2.96" height="2.96" transform="translate(722.62 -369.91) rotate(91.77)"/><rect class="cls-32" x="544.23" y="221.26" width="2.96" height="2.96" transform="translate(716.83 -364.63) rotate(91.77)"/><rect class="cls-32" x="555.14" y="221.59" width="2.96" height="2.96" transform="translate(728.41 -375.18) rotate(91.77)"/><polygon class="cls-11" points="628.48 180.83 620.34 173.01 628.16 164.87 628.48 180.83"/><rect class="cls-11" x="695.08" y="221.23" width="29.49" height="1.28" transform="translate(1357.79 372.93) rotate(178.23)"/><path class="cls-11" d="M717,220.57H746a0,0,0,0,1,0,0v1.28a0,0,0,0,1,0,0H717a.55.55,0,0,1-.55-.55v-.19A.55.55,0,0,1,717,220.57Z" transform="translate(1400.57 370.94) rotate(178.23)"/><path class="cls-11" d="M730.64,234.32h28.94a.55.55,0,0,1,.55.55V235a.55.55,0,0,1-.55.55H730.64a0,0,0,0,1,0,0v-1.28A0,0,0,0,1,730.64,234.32Z" transform="translate(442.06 931.54) rotate(-90)"/><rect class="cls-11" x="730.64" y="255.73" width="29.49" height="1.28" transform="translate(420.65 952.96) rotate(-90)"/><rect class="cls-32" x="743.9" y="260.24" width="2.96" height="2.96" transform="translate(1422.39 474.65) rotate(-180)"/><rect class="cls-32" x="743.9" y="265.7" width="2.96" height="2.96" transform="translate(1422.39 485.56) rotate(-180)"/><rect class="cls-32" x="743.9" y="249.33" width="2.96" height="2.96" transform="translate(1422.39 452.83) rotate(-180)"/><rect class="cls-32" x="743.9" y="254.79" width="2.96" height="2.96" transform="translate(1422.39 463.74) rotate(-180)"/><rect class="cls-32" x="743.9" y="238.42" width="2.96" height="2.96" transform="translate(1422.39 431.01) rotate(-180)"/><rect class="cls-32" x="743.9" y="243.88" width="2.96" height="2.96" transform="translate(1422.39 441.92) rotate(-180)"/><rect class="cls-32" x="743.9" y="227.51" width="2.96" height="2.96" transform="translate(1422.39 409.19) rotate(-180)"/><rect class="cls-32" x="743.9" y="232.97" width="2.96" height="2.96" transform="translate(1422.39 420.1) rotate(-180)"/><rect class="cls-32" x="743.9" y="222.84" width="2.96" height="2.96" transform="translate(1422.39 399.85) rotate(-180)"/><rect class="cls-32" x="739.02" y="219.45" width="2.96" height="2.96" transform="translate(1412.63 393.06) rotate(-180)"/><rect class="cls-32" x="728" y="219.74" width="2.96" height="2.96" transform="translate(859.71 -563.53) rotate(88.23)"/><rect class="cls-32" x="733.45" y="219.58" width="2.96" height="2.96" transform="translate(864.82 -569.15) rotate(88.23)"/><rect class="cls-32" x="717.1" y="220.08" width="2.96" height="2.96" transform="translate(849.47 -552.31) rotate(88.23)"/><rect class="cls-32" x="722.55" y="219.91" width="2.96" height="2.96" transform="translate(854.59 -557.92) rotate(88.23)"/><rect class="cls-32" x="706.19" y="220.42" width="2.96" height="2.96" transform="translate(839.24 -541.08) rotate(88.23)"/><rect class="cls-32" x="711.65" y="220.25" width="2.96" height="2.96" transform="translate(844.36 -546.69) rotate(88.23)"/><rect class="cls-32" x="700.74" y="220.59" width="2.96" height="2.96" transform="translate(834.13 -535.47) rotate(88.23)"/><text class="cls-21" transform="translate(692.07 197.57)">N</text><text class="cls-21" transform="translate(429.31 203.03)">N</text><polygon class="cls-11" points="454.55 386.1 446.7 394.21 438.59 386.36 454.55 386.1"/><rect class="cls-11" x="500.47" y="421.25" width="29.49" height="1.28" transform="translate(854.56 -153.41) rotate(88.44)"/><rect class="cls-11" x="499.74" y="394.35" width="29.49" height="1.28" transform="translate(826.96 -178.84) rotate(88.44)"/><polygon class="cls-11" points="686.69 391.8 678.85 399.91 670.73 392.06 686.69 391.8"/><rect class="cls-11" x="732.61" y="426.95" width="29.49" height="1.28" transform="translate(1086.08 -379.92) rotate(88.44)"/><rect class="cls-11" x="731.88" y="400.05" width="29.49" height="1.28" transform="translate(1058.48 -405.35) rotate(88.44)"/></svg>