<svg width="475" height="528" viewBox="0 0 475 528" fill="none" xmlns="http://www.w3.org/2000/svg">
<g clip-path="url(#clip0_0_313)">
<path d="M470.188 374.516L335.035 160.373L201.258 244.294L336.41 458.437L470.188 374.516Z" fill="#EF4968"/>
<path d="M311.706 181.061L307.849 323.441C307.814 324.145 307.976 324.84 308.317 325.45C308.658 326.06 309.165 326.563 309.782 326.902L430.741 389.779L468.673 373.152L334.562 160.674L311.706 181.061Z" fill="#625051"/>
<path opacity="0.8" d="M313.146 180.148L312.998 320.303C312.998 320.976 313.178 321.634 313.519 322.21C313.86 322.786 314.351 323.259 314.943 323.583L434.36 389.438L468.751 373.131L334.64 160.653L313.146 180.148Z" fill="#EF4968"/>
<path d="M160.501 236.271C133.369 239.856 28.9067 179.75 14.4524 171.407C14.2422 171.28 14.0649 171.107 13.9336 170.902C13.8024 170.696 13.7206 170.463 13.6945 170.219C13.6683 169.975 13.6984 169.728 13.7825 169.495C13.8666 169.262 14.0026 169.05 14.1803 168.874L67.2934 108.291C67.6034 107.887 68.0589 107.615 68.5623 107.533C69.0656 107.452 69.5769 107.568 69.9865 107.856L181.754 188.18C181.754 188.18 175.639 234.364 160.501 236.271Z" fill="#E1A68B"/>
<path d="M136.161 225.678C125.225 214.125 158.465 185.165 158.465 185.165C158.465 185.165 241.596 112.201 262.557 127.018C281.839 140.633 224.198 220.993 224.198 220.993C224.198 220.993 167.648 258.935 136.161 225.678Z" fill="#E1A68B"/>
<path d="M302.092 184.27L248.619 142.707C248.262 142.409 247.975 142.039 247.775 141.621C247.574 141.202 247.466 140.746 247.457 140.28C247.448 139.814 247.539 139.349 247.722 138.915C247.906 138.481 248.178 138.088 248.523 137.761L257.711 127.891C258.376 127.141 259.294 126.654 260.287 126.527C261.281 126.4 262.278 126.641 263.086 127.203L316.55 168.749C316.907 169.047 317.195 169.417 317.397 169.835C317.598 170.252 317.708 170.709 317.719 171.175C317.731 171.641 317.644 172.106 317.463 172.542C317.283 172.977 317.014 173.372 316.672 173.702L307.467 183.582C306.8 184.329 305.882 184.812 304.89 184.939C303.898 185.066 302.901 184.828 302.092 184.27V184.27Z" fill="#E1A68B"/>
<path d="M321.404 219.766L300.03 179.898C299.625 179.038 299.584 178.046 299.918 177.14C300.251 176.234 300.932 175.487 301.811 175.061L308.382 171.5C310.261 170.45 316.668 168.64 317.571 170.297L334.813 212.516C335.208 213.378 335.243 214.366 334.911 215.269C334.578 216.172 333.904 216.92 333.032 217.353L326.461 220.914C325.62 221.425 324.616 221.591 323.669 221.376C322.721 221.161 321.906 220.581 321.404 219.766Z" fill="#E1A68B"/>
<path d="M309.935 208.903L269.409 136.355C268.382 134.517 266.021 133.881 264.134 134.935L247.873 144.019C245.986 145.073 245.289 147.417 246.315 149.255L286.842 221.804C287.868 223.642 290.23 224.277 292.117 223.223L308.378 214.139C310.265 213.086 310.962 210.741 309.935 208.903Z" fill="#E1A68B"/>
<path d="M291.732 272.123L286.316 215.286C286.262 214.074 286.668 212.877 287.453 211.925C288.239 210.974 289.349 210.337 290.567 210.138L299.444 208.498C302.023 208.018 309.944 208.396 310.166 210.761L309.928 268.748C309.981 269.96 309.576 271.157 308.79 272.109C308.005 273.06 306.895 273.697 305.676 273.896L296.799 275.536C296.229 275.675 295.638 275.695 295.066 275.595C294.493 275.495 293.95 275.277 293.472 274.956C292.995 274.634 292.594 274.216 292.294 273.728C291.994 273.24 291.803 272.693 291.732 272.123V272.123Z" fill="#E1A68B"/>
<path d="M285.816 213.95L245.29 141.401C244.263 139.563 241.901 138.928 240.014 139.982L223.753 149.065C221.866 150.119 221.169 152.464 222.196 154.301L262.722 226.85C263.749 228.688 266.111 229.323 267.997 228.269L284.259 219.186C286.145 218.132 286.843 215.787 285.816 213.95Z" fill="#E1A68B"/>
<path d="M267.641 277.219L262.224 220.382C262.171 219.171 262.576 217.973 263.362 217.022C264.147 216.07 265.257 215.433 266.476 215.234L275.353 213.594C277.931 213.114 285.835 213.502 286.075 215.857L285.836 273.845C285.89 275.056 285.484 276.254 284.699 277.205C283.913 278.156 282.803 278.793 281.585 278.992L272.68 280.583C272.115 280.717 271.532 280.735 270.965 280.636C270.399 280.537 269.862 280.323 269.388 280.007C268.915 279.691 268.515 279.28 268.214 278.8C267.913 278.32 267.718 277.782 267.641 277.219V277.219Z" fill="#E1A68B"/>
<path d="M243.359 223.519L216.199 157.127C216.036 156.831 215.936 156.503 215.907 156.164C215.878 155.825 215.92 155.482 216.03 155.157C216.14 154.831 216.316 154.53 216.548 154.271C216.779 154.013 217.06 153.803 217.375 153.654L228.166 149.984C228.877 149.851 229.607 149.976 230.221 150.336C230.834 150.697 231.289 151.267 231.501 151.942L258.651 218.318C259.261 219.811 258.741 221.367 257.475 221.79L246.684 225.461C245.976 225.6 245.246 225.48 244.633 225.122C244.02 224.764 243.566 224.194 243.359 223.519V223.519Z" fill="#E1A68B"/>
<path d="M246.496 263.88L242.903 218.01C242.821 217.615 242.835 217.204 242.944 216.811C243.052 216.417 243.252 216.052 243.528 215.745C243.803 215.439 244.147 215.198 244.53 215.044C244.914 214.889 245.327 214.825 245.736 214.856L251.636 215.468C253.339 215.63 258.583 217.635 258.746 219.531L258.576 265.123C258.647 265.508 258.628 265.906 258.52 266.286C258.412 266.667 258.219 267.02 257.954 267.319C257.69 267.619 257.361 267.856 256.992 268.014C256.624 268.172 256.226 268.245 255.829 268.23L249.929 267.617C249.012 267.461 248.179 267.011 247.559 266.336C246.938 265.66 246.565 264.798 246.496 263.88Z" fill="#E1A68B"/>
<path d="M274.787 211.858L201.493 229.855C201.038 229.997 200.559 230.045 200.089 229.995C199.618 229.945 199.165 229.799 198.759 229.566C198.353 229.333 198.002 229.019 197.729 228.642C197.456 228.265 197.267 227.835 197.173 227.378L195.2 215.381C195.104 214.407 195.378 213.425 195.969 212.623C196.56 211.821 197.426 211.257 198.4 211.039L271.694 193.042C272.149 192.9 272.627 192.852 273.097 192.903C273.567 192.953 274.019 193.1 274.424 193.334C274.829 193.568 275.178 193.885 275.449 194.262C275.72 194.64 275.906 195.072 275.997 195.529L277.986 207.516C278.082 208.49 277.808 209.473 277.218 210.274C276.627 211.076 275.761 211.64 274.787 211.858Z" fill="#E1A68B"/>
<path d="M255.199 195.248L245.17 177.294L212.767 195.395L222.796 213.349L255.199 195.248Z" fill="#E1A68B"/>
</g>
<defs>
<clipPath id="clip0_0_313">
<rect width="437" height="299" fill="white" transform="translate(261.034) rotate(60.8119)"/>
</clipPath>
</defs>
</svg>
