<svg width="527" height="515" viewBox="0 0 527 515" fill="none" xmlns="http://www.w3.org/2000/svg">
<path d="M309.404 360.754L316.146 363.091C321.339 364.891 326.859 361.665 328.477 355.886L362.137 235.605C363.755 229.825 360.856 223.681 355.664 221.881L348.922 219.544C343.729 217.744 338.209 220.97 336.592 226.749L302.931 347.03C301.313 352.809 304.212 358.954 309.404 360.754Z" fill="#5B96BA"/>
<path d="M402.371 428.244L405.66 447.452L440.279 440.108L436.991 420.901L402.371 428.244Z" fill="#E1A68B"/>
<path d="M475.38 463.467C475.38 463.467 464.959 435.369 454.728 439.393C451.833 440.593 448.747 441.125 445.661 440.954C442.575 440.783 439.552 439.913 436.777 438.399L436.161 415.626L466.49 417.26L481.378 420.55L489.375 467.893C489.375 467.893 477.38 488.914 475.38 463.467Z" fill="black"/>
<path d="M480.333 420.374L485.373 442.142L495.854 439.135L490.813 417.368L480.333 420.374Z" fill="black"/>
<path d="M298.104 93.3609C303.155 93.3609 307.25 88.8037 307.25 83.1821C307.25 77.5605 303.155 73.0033 298.104 73.0033C293.053 73.0033 288.959 77.5605 288.959 83.1821C288.959 88.8037 293.053 93.3609 298.104 93.3609Z" fill="#505A63"/>
<path d="M328.051 145.131C333.102 145.131 337.197 140.574 337.197 134.952C337.197 129.33 333.102 124.773 328.051 124.773C323 124.773 318.905 129.33 318.905 134.952C318.905 140.574 323 145.131 328.051 145.131Z" fill="#505A63"/>
<path d="M321.521 133.863C326.572 133.863 330.667 129.306 330.667 123.684C330.667 118.063 326.572 113.505 321.521 113.505C316.47 113.505 312.376 118.063 312.376 123.684C312.376 129.306 316.47 133.863 321.521 133.863Z" fill="#505A63"/>
<path d="M313.078 119.234C318.129 119.234 322.223 114.677 322.223 109.055C322.223 103.434 318.129 98.8764 313.078 98.8764C308.027 98.8764 303.932 103.434 303.932 109.055C303.932 114.677 308.027 119.234 313.078 119.234Z" fill="#505A63"/>
<path d="M305.187 105.599C310.238 105.599 314.333 101.042 314.333 95.4203C314.333 89.7987 310.238 85.2415 305.187 85.2415C300.136 85.2415 296.041 89.7987 296.041 95.4203C296.041 101.042 300.136 105.599 305.187 105.599Z" fill="#505A63"/>
<path d="M307.803 91.3251C312.854 91.3251 316.949 86.7679 316.949 81.1463C316.949 75.5247 312.854 70.9675 307.803 70.9675C302.752 70.9675 298.657 75.5247 298.657 81.1463C298.657 86.7679 302.752 91.3251 307.803 91.3251Z" fill="#505A63"/>
<path d="M337.75 143.095C342.801 143.095 346.895 138.538 346.895 132.916C346.895 127.295 342.801 122.737 337.75 122.737C332.699 122.737 328.604 127.295 328.604 132.916C328.604 138.538 332.699 143.095 337.75 143.095Z" fill="#505A63"/>
<path d="M331.241 131.827C336.292 131.827 340.387 127.27 340.387 121.649C340.387 116.027 336.292 111.47 331.241 111.47C326.19 111.47 322.096 116.027 322.096 121.649C322.096 127.27 326.19 131.827 331.241 131.827Z" fill="#505A63"/>
<path d="M322.776 117.222C327.827 117.222 331.922 112.665 331.922 107.043C331.922 101.422 327.827 96.8643 322.776 96.8643C317.725 96.8643 313.631 101.422 313.631 107.043C313.631 112.665 317.725 117.222 322.776 117.222Z" fill="#505A63"/>
<path d="M314.886 103.563C319.937 103.563 324.031 99.0062 324.031 93.3846C324.031 87.763 319.937 83.2058 314.886 83.2058C309.835 83.2058 305.74 87.763 305.74 93.3846C305.74 99.0062 309.835 103.563 314.886 103.563Z" fill="#505A63"/>
<path d="M344.371 101.794C360.026 90.5781 362.868 64.456 350.717 43.4487C338.567 22.4414 316.027 14.5039 300.372 25.7198C284.717 36.9356 281.875 63.0577 294.025 84.065C306.175 105.072 328.716 113.01 344.371 101.794Z" fill="#E1A68B"/>
<path d="M347.51 65.3324L317.376 86.9218L340.227 126.432L370.362 104.842L347.51 65.3324Z" fill="#E1A68B"/>
<path d="M293.978 21.7069C293.978 21.7069 300.061 -1.04158 324.223 0.0473102C348.384 1.13621 335.644 2.60385 349.277 24.4291C362.911 46.2543 356.402 51.9356 335.176 43.9109C320.785 38.1296 306.977 30.6877 293.978 21.7069Z" fill="#505A63"/>
<path d="M313.354 25.1156C313.354 25.1156 296.509 10.5339 277.41 27.0567C258.31 43.5795 269.455 36.5253 269.774 63.1085C270.093 89.6918 278.282 90.0942 291.426 69.855C300.109 55.8284 307.458 40.8346 313.354 25.1156Z" fill="#505A63"/>
<path d="M352.51 54.3737C357.561 54.3737 361.656 49.8165 361.656 44.1949C361.656 38.5733 357.561 34.0161 352.51 34.0161C347.459 34.0161 343.365 38.5733 343.365 44.1949C343.365 49.8165 347.459 54.3737 352.51 54.3737Z" fill="#505A63"/>
<path d="M382.457 106.144C387.508 106.144 391.602 101.586 391.602 95.9648C391.602 90.3432 387.508 85.786 382.457 85.786C377.406 85.786 373.311 90.3432 373.311 95.9648C373.311 101.586 377.406 106.144 382.457 106.144Z" fill="#505A63"/>
<path d="M375.949 94.8759C380.999 94.8759 385.094 90.3187 385.094 84.6971C385.094 79.0755 380.999 74.5183 375.949 74.5183C370.898 74.5183 366.803 79.0755 366.803 84.6971C366.803 90.3187 370.898 94.8759 375.949 94.8759Z" fill="#505A63"/>
<path d="M367.483 80.2468C372.534 80.2468 376.629 75.6896 376.629 70.068C376.629 64.4464 372.534 59.8892 367.483 59.8892C362.433 59.8892 358.338 64.4464 358.338 70.068C358.338 75.6896 362.433 80.2468 367.483 80.2468Z" fill="#505A63"/>
<path d="M359.593 66.612C364.644 66.612 368.738 62.0548 368.738 56.4332C368.738 50.8116 364.644 46.2544 359.593 46.2544C354.542 46.2544 350.447 50.8116 350.447 56.4332C350.447 62.0548 354.542 66.612 359.593 66.612Z" fill="#505A63"/>
<path d="M345.109 22.204C350.16 22.204 354.254 17.6468 354.254 12.0252C354.254 6.40358 350.16 1.84637 345.109 1.84637C340.058 1.84637 335.963 6.40358 335.963 12.0252C335.963 17.6468 340.058 22.204 345.109 22.204Z" fill="#505A63"/>
<path d="M375.055 73.9739C380.106 73.9739 384.201 69.4167 384.201 63.7951C384.201 58.1735 380.106 53.6163 375.055 53.6163C370.004 53.6163 365.91 58.1735 365.91 63.7951C365.91 69.4167 370.004 73.9739 375.055 73.9739Z" fill="#505A63"/>
<path d="M368.547 62.7062C373.598 62.7062 377.693 58.149 377.693 52.5274C377.693 46.9058 373.598 42.3486 368.547 42.3486C363.496 42.3486 359.401 46.9058 359.401 52.5274C359.401 58.149 363.496 62.7062 368.547 62.7062Z" fill="#505A63"/>
<path d="M360.082 48.1008C365.133 48.1008 369.228 43.5436 369.228 37.922C369.228 32.3004 365.133 27.7432 360.082 27.7432C355.031 27.7432 350.936 32.3004 350.936 37.922C350.936 43.5436 355.031 48.1008 360.082 48.1008Z" fill="#505A63"/>
<path d="M352.191 34.4422C357.242 34.4422 361.337 29.885 361.337 24.2634C361.337 18.6418 357.242 14.0846 352.191 14.0846C347.14 14.0846 343.046 18.6418 343.046 24.2634C343.046 29.885 347.14 34.4422 352.191 34.4422Z" fill="#505A63"/>
<path d="M275.708 80.5072C280.759 80.5072 284.854 75.95 284.854 70.3284C284.854 64.7068 280.759 60.1496 275.708 60.1496C270.657 60.1496 266.563 64.7068 266.563 70.3284C266.563 75.95 270.657 80.5072 275.708 80.5072Z" fill="#505A63"/>
<path d="M305.655 132.277C310.706 132.277 314.801 127.72 314.801 122.098C314.801 116.477 310.706 111.919 305.655 111.919C300.604 111.919 296.509 116.477 296.509 122.098C296.509 127.72 300.604 132.277 305.655 132.277Z" fill="#505A63"/>
<path d="M299.125 121.009C304.176 121.009 308.271 116.452 308.271 110.831C308.271 105.209 304.176 100.652 299.125 100.652C294.074 100.652 289.98 105.209 289.98 110.831C289.98 116.452 294.074 121.009 299.125 121.009Z" fill="#505A63"/>
<path d="M290.682 106.404C295.733 106.404 299.827 101.847 299.827 96.2252C299.827 90.6036 295.733 86.0464 290.682 86.0464C285.631 86.0464 281.536 90.6036 281.536 96.2252C281.536 101.847 285.631 106.404 290.682 106.404Z" fill="#505A63"/>
<path d="M282.791 92.7454C287.842 92.7454 291.936 88.1882 291.936 82.5666C291.936 76.945 287.842 72.3878 282.791 72.3878C277.74 72.3878 273.645 76.945 273.645 82.5666C273.645 88.1882 277.74 92.7454 282.791 92.7454Z" fill="#505A63"/>
<path d="M359.912 38.9398C364.963 38.9398 369.057 34.3826 369.057 28.761C369.057 23.1394 364.963 18.5822 359.912 18.5822C354.861 18.5822 350.766 23.1394 350.766 28.761C350.766 34.3826 354.861 38.9398 359.912 38.9398Z" fill="#505A63"/>
<path d="M408.086 69.1685C413.137 69.1685 417.231 64.6113 417.231 58.9897C417.231 53.3681 413.137 48.8109 408.086 48.8109C403.035 48.8109 398.94 53.3681 398.94 58.9897C398.94 64.6113 403.035 69.1685 408.086 69.1685Z" fill="#505A63"/>
<path d="M397.621 62.5878C402.672 62.5878 406.767 58.0306 406.767 52.409C406.767 46.7874 402.672 42.2302 397.621 42.2302C392.57 42.2302 388.476 46.7874 388.476 52.409C388.476 58.0306 392.57 62.5878 397.621 62.5878Z" fill="#505A63"/>
<path d="M383.988 54.0424C389.039 54.0424 393.134 49.4852 393.134 43.8636C393.134 38.242 389.039 33.6848 383.988 33.6848C378.937 33.6848 374.843 38.242 374.843 43.8636C374.843 49.4852 378.937 54.0424 383.988 54.0424Z" fill="#505A63"/>
<path d="M371.291 46.0887C376.342 46.0887 380.436 41.5315 380.436 35.9099C380.436 30.2883 376.342 25.7311 371.291 25.7311C366.24 25.7311 362.145 30.2883 362.145 35.9099C362.145 41.5315 366.24 46.0887 371.291 46.0887Z" fill="#505A63"/>
<path d="M349.66 20.4286C354.711 20.4286 358.806 15.8714 358.806 10.2498C358.806 4.62822 354.711 0.0710144 349.66 0.0710144C344.609 0.0710144 340.515 4.62822 340.515 10.2498C340.515 15.8714 344.609 20.4286 349.66 20.4286Z" fill="#505A63"/>
<path d="M400.067 45.7573C405.118 45.7573 409.213 41.2001 409.213 35.5785C409.213 29.9569 405.118 25.3997 400.067 25.3997C395.016 25.3997 390.922 29.9569 390.922 35.5785C390.922 41.2001 395.016 45.7573 400.067 45.7573Z" fill="#505A63"/>
<path d="M389.114 40.2418C394.165 40.2418 398.26 35.6846 398.26 30.063C398.26 24.4414 394.165 19.8842 389.114 19.8842C384.063 19.8842 379.968 24.4414 379.968 30.063C379.968 35.6846 384.063 40.2418 389.114 40.2418Z" fill="#505A63"/>
<path d="M374.864 33.093C379.915 33.093 384.009 28.5358 384.009 22.9142C384.009 17.2926 379.915 12.7354 374.864 12.7354C369.813 12.7354 365.718 17.2926 365.718 22.9142C365.718 28.5358 369.813 33.093 374.864 33.093Z" fill="#505A63"/>
<path d="M361.571 26.4175C366.622 26.4175 370.716 21.8603 370.716 16.2387C370.716 10.6171 366.622 6.05994 361.571 6.05994C356.52 6.05994 352.425 10.6171 352.425 16.2387C352.425 21.8603 356.52 26.4175 361.571 26.4175Z" fill="#505A63"/>
<path d="M282.068 73.5004C287.119 73.5004 291.213 68.9432 291.213 63.3216C291.213 57.7 287.119 53.1428 282.068 53.1428C277.017 53.1428 272.922 57.7 272.922 63.3216C272.922 68.9432 277.017 73.5004 282.068 73.5004Z" fill="#505A63"/>
<path d="M290.086 134.408C295.137 134.408 299.232 129.85 299.232 124.229C299.232 118.607 295.137 114.05 290.086 114.05C285.035 114.05 280.94 118.607 280.94 124.229C280.94 129.85 285.035 134.408 290.086 134.408Z" fill="#505A63"/>
<path d="M288.342 121.175C293.393 121.175 297.488 116.618 297.488 110.996C297.488 105.375 293.393 100.818 288.342 100.818C283.291 100.818 279.196 105.375 279.196 110.996C279.196 116.618 283.291 121.175 288.342 121.175Z" fill="#505A63"/>
<path d="M286.066 103.966C291.117 103.966 295.212 99.4086 295.212 93.787C295.212 88.1654 291.117 83.6082 286.066 83.6082C281.015 83.6082 276.921 88.1654 276.921 93.787C276.921 99.4086 281.015 103.966 286.066 103.966Z" fill="#505A63"/>
<path d="M283.961 87.9164C289.012 87.9164 293.106 83.3592 293.106 77.7376C293.106 72.116 289.012 67.5588 283.961 67.5588C278.91 67.5588 274.815 72.116 274.815 77.7376C274.815 83.3592 278.91 87.9164 283.961 87.9164Z" fill="#505A63"/>
<path d="M367.689 89.3429L328.667 117.3L342.93 141.962L381.953 114.004L367.689 89.3429Z" fill="#32ACE2"/>
<path d="M344.832 59.8892C349.883 59.8892 353.978 55.332 353.978 49.7104C353.978 44.0888 349.883 39.5316 344.832 39.5316C339.781 39.5316 335.687 44.0888 335.687 49.7104C335.687 55.332 339.781 59.8892 344.832 59.8892Z" fill="#505A63"/>
<path d="M374.757 111.635C379.808 111.635 383.903 107.078 383.903 101.457C383.903 95.835 379.808 91.2778 374.757 91.2778C369.706 91.2778 365.612 95.835 365.612 101.457C365.612 107.078 369.706 111.635 374.757 111.635Z" fill="#505A63"/>
<path d="M368.249 100.391C373.3 100.391 377.395 95.8342 377.395 90.2126C377.395 84.591 373.3 80.0338 368.249 80.0338C363.198 80.0338 359.104 84.591 359.104 90.2126C359.104 95.8342 363.198 100.391 368.249 100.391Z" fill="#505A63"/>
<path d="M359.784 85.7623C364.835 85.7623 368.93 81.2051 368.93 75.5835C368.93 69.9619 364.835 65.4047 359.784 65.4047C354.733 65.4047 350.639 69.9619 350.639 75.5835C350.639 81.2051 354.733 85.7623 359.784 85.7623Z" fill="#505A63"/>
<path d="M351.893 72.1274C356.944 72.1274 361.039 67.5702 361.039 61.9486C361.039 56.327 356.944 51.7698 351.893 51.7698C346.842 51.7698 342.748 56.327 342.748 61.9486C342.748 67.5702 346.842 72.1274 351.893 72.1274Z" fill="#505A63"/>
<path d="M365.399 57.2617C370.45 57.2617 374.545 52.7044 374.545 47.0829C374.545 41.4613 370.45 36.9041 365.399 36.9041C360.348 36.9041 356.254 41.4613 356.254 47.0829C356.254 52.7044 360.348 57.2617 365.399 57.2617Z" fill="#505A63"/>
<path d="M395.324 109.032C400.375 109.032 404.47 104.474 404.47 98.8527C404.47 93.2312 400.375 88.674 395.324 88.674C390.273 88.674 386.179 93.2312 386.179 98.8527C386.179 104.474 390.273 109.032 395.324 109.032Z" fill="#505A63"/>
<path d="M388.816 97.7638C393.867 97.7638 397.962 93.2066 397.962 87.585C397.962 81.9635 393.867 77.4062 388.816 77.4062C383.765 77.4062 379.671 81.9635 379.671 87.585C379.671 93.2066 383.765 97.7638 388.816 97.7638Z" fill="#505A63"/>
<path d="M380.351 83.1348C385.402 83.1348 389.497 78.5776 389.497 72.956C389.497 67.3344 385.402 62.7772 380.351 62.7772C375.3 62.7772 371.206 67.3344 371.206 72.956C371.206 78.5776 375.3 83.1348 380.351 83.1348Z" fill="#505A63"/>
<path d="M372.46 69.4999C377.511 69.4999 381.606 64.9427 381.606 59.3211C381.606 53.6995 377.511 49.1423 372.46 49.1423C367.409 49.1423 363.315 53.6995 363.315 59.3211C363.315 64.9427 367.409 69.4999 372.46 69.4999Z" fill="#505A63"/>
<path d="M371.206 38.7268C376.257 38.7268 380.351 34.1696 380.351 28.548C380.351 22.9264 376.257 18.3692 371.206 18.3692C366.155 18.3692 362.06 22.9264 362.06 28.548C362.06 34.1696 366.155 38.7268 371.206 38.7268Z" fill="#505A63"/>
<path d="M401.152 90.473C406.203 90.473 410.298 85.9157 410.298 80.2942C410.298 74.6726 406.203 70.1154 401.152 70.1154C396.101 70.1154 392.007 74.6726 392.007 80.2942C392.007 85.9157 396.101 90.473 401.152 90.473Z" fill="#505A63"/>
<path d="M394.644 79.2289C399.695 79.2289 403.789 74.6717 403.789 69.0501C403.789 63.4285 399.695 58.8713 394.644 58.8713C389.593 58.8713 385.498 63.4285 385.498 69.0501C385.498 74.6717 389.593 79.2289 394.644 79.2289Z" fill="#505A63"/>
<path d="M386.179 64.5999C391.23 64.5999 395.324 60.0427 395.324 54.4211C395.324 48.7995 391.23 44.2423 386.179 44.2423C381.128 44.2423 377.033 48.7995 377.033 54.4211C377.033 60.0427 381.128 64.5999 386.179 64.5999Z" fill="#505A63"/>
<path d="M378.288 50.965C383.339 50.965 387.434 46.4078 387.434 40.7862C387.434 35.1646 383.339 30.6074 378.288 30.6074C373.237 30.6074 369.142 35.1646 369.142 40.7862C369.142 46.4078 373.237 50.965 378.288 50.965Z" fill="#505A63"/>
<path d="M332.135 46.6095C336.093 46.6095 339.302 43.0379 339.302 38.6321C339.302 34.2264 336.093 30.6548 332.135 30.6548C328.176 30.6548 324.967 34.2264 324.967 38.6321C324.967 43.0379 328.176 46.6095 332.135 46.6095Z" fill="#505A63"/>
<path d="M317.31 39.9341C321.269 39.9341 324.478 36.3625 324.478 31.9567C324.478 27.5509 321.269 23.9794 317.31 23.9794C313.352 23.9794 310.143 27.5509 310.143 31.9567C310.143 36.3625 313.352 39.9341 317.31 39.9341Z" fill="#505A63"/>
<path d="M303.549 46.2544C307.508 46.2544 310.717 42.6828 310.717 38.277C310.717 33.8713 307.508 30.2997 303.549 30.2997C299.591 30.2997 296.382 33.8713 296.382 38.277C296.382 42.6828 299.591 46.2544 303.549 46.2544Z" fill="#505A63"/>
<path d="M301.678 59.6999C305.636 59.6999 308.845 56.1283 308.845 51.7225C308.845 47.3168 305.636 43.7452 301.678 43.7452C297.719 43.7452 294.51 47.3168 294.51 51.7225C294.51 56.1283 297.719 59.6999 301.678 59.6999Z" fill="#505A63"/>
<path d="M291.426 72.0801C295.385 72.0801 298.594 68.5085 298.594 64.1028C298.594 59.697 295.385 56.1254 291.426 56.1254C287.467 56.1254 284.258 59.697 284.258 64.1028C284.258 68.5085 287.467 72.0801 291.426 72.0801Z" fill="#505A63"/>
<path d="M270.561 54.9419C274.52 54.9419 277.729 51.3703 277.729 46.9645C277.729 42.5588 274.52 38.9872 270.561 38.9872C266.603 38.9872 263.394 42.5588 263.394 46.9645C263.394 51.3703 266.603 54.9419 270.561 54.9419Z" fill="#505A63"/>
<path d="M269.753 68.0086C273.712 68.0086 276.921 64.437 276.921 60.0312C276.921 55.6255 273.712 52.0539 269.753 52.0539C265.795 52.0539 262.585 55.6255 262.585 60.0312C262.585 64.437 265.795 68.0086 269.753 68.0086Z" fill="#505A63"/>
<path d="M437.906 430.708L440.281 450.081L475.2 444.778L472.825 425.405L437.906 430.708Z" fill="#E1A68B"/>
<path d="M512.473 463.491C512.473 463.491 497.883 437.807 488.418 443.725C485.743 445.444 482.782 446.541 479.714 446.948C476.647 447.354 473.537 447.063 470.574 446.092L466.469 423.77L496.607 419.58L511.835 419.982L527 464.958C527 464.958 518.344 488.204 512.473 463.491Z" fill="#56597A"/>
<path d="M504.884 421.75L513.261 442.161L523.089 437.165L514.712 416.753L504.884 421.75Z" fill="#56597A"/>
<path d="M188.591 373.633L103.707 324.159L115.469 319.685L182.189 351.879L188.591 373.633Z" fill="#EF4968"/>
<path d="M256.843 381.823L204.989 407.176C203.807 407.75 202.529 408.04 201.238 408.028C199.948 408.016 198.675 407.702 197.501 407.105C196.327 406.509 195.28 405.644 194.426 404.568C193.572 403.491 192.932 402.226 192.547 400.855L168.662 314.951C167.974 312.475 168.158 309.801 169.177 307.471C170.197 305.141 171.974 303.33 174.15 302.405L209.541 287.421C211.557 286.572 213.777 286.542 215.811 287.334C217.845 288.126 219.564 289.691 220.665 291.753L261.075 367.289C261.738 368.532 262.155 369.918 262.299 371.355C262.443 372.791 262.31 374.246 261.91 375.621C261.509 376.996 260.85 378.26 259.977 379.33C259.103 380.399 258.035 381.249 256.843 381.823Z" fill="#EF4968"/>
<path d="M219.941 293.576C219.941 293.576 242.465 275.609 255.248 286.735C268.03 297.86 267.073 295.588 274.815 308.039C282.557 320.49 261.352 338.812 251.866 342.789C242.38 346.766 219.941 293.576 219.941 293.576Z" fill="#EF4968"/>
<path d="M228.428 296.156C228.428 296.156 244.507 283.728 253.419 291.729C262.33 299.73 261.713 298.121 267.052 306.997C272.39 315.874 257.247 328.539 250.505 331.285C243.763 334.03 228.428 296.156 228.428 296.156Z" fill="white"/>
<path d="M318.055 366.011C318.091 371.564 317.678 377.11 316.821 382.581C316.017 387.759 314.586 392.791 312.567 397.541C311.397 399.909 311.355 403.53 308.909 400.974C306.463 398.417 308.696 391.908 311.312 382.534C312.791 377.433 313.9 372.208 314.63 366.91L318.055 366.011Z" fill="#B5994F"/>
<path d="M300.806 346.411C301.46 344.788 302.396 343.325 303.561 342.106C304.725 340.887 306.095 339.937 307.59 339.309C309.843 338.38 312.294 338.217 314.63 338.841C316.967 339.465 319.084 340.847 320.713 342.813C321.777 344.115 321.564 343.239 322.096 344.848C322.4 346.408 322.4 348.023 322.096 349.583C322.096 351.334 322.946 352.4 322.245 354.08C321.543 355.761 322.245 362.294 321.139 363.549C320.033 364.804 317.417 372.71 315.97 373.302C314.524 373.893 316.991 375.669 315.417 375.669C313.843 375.669 307.505 380.593 305.974 379.835C303.665 378.432 301.521 376.715 299.593 374.722C298.53 373.444 296.594 361.892 296.041 360.282C295.488 358.673 299.614 353.37 299.657 351.642C299.722 349.831 300.113 348.052 300.806 346.411Z" fill="#B5994F"/>
<path d="M311.865 361.702C306.677 360.564 301.391 360.079 296.105 360.258C291.322 360.45 286.615 361.655 282.238 363.809C280.111 365.111 276.644 364.472 279.409 368.709C282.174 372.946 288.151 370.816 296.828 368.709C301.622 367.476 306.521 366.826 311.44 366.768L311.865 361.702Z" fill="#B5994F"/>
<path d="M306.357 371.313C302.958 376.949 299.076 382.205 294.765 387.007C290.705 391.505 286.059 395.296 280.983 398.251C278.282 399.553 275.985 403.199 275.07 398.251C274.156 393.304 280.536 388.783 289.065 381.681C293.79 377.851 298.202 373.566 302.252 368.875L306.357 371.313Z" fill="#B5994F"/>
<path d="M309.739 375.148C306.366 381.586 302.524 387.706 298.253 393.446C294.156 398.943 289.479 403.871 284.322 408.123C281.557 410.158 279.303 414.301 278.133 409.874C276.963 405.448 283.429 399.317 292.085 390.085C296.829 385.114 301.25 379.774 305.315 374.106L309.739 375.148Z" fill="#B5994F"/>
<path d="M313.95 369.183C313.301 375.906 312.062 382.542 310.249 388.996C308.519 395.035 305.981 400.749 302.72 405.945C300.891 408.478 300.38 412.857 297.488 408.951C294.595 405.045 298.381 397.825 302.996 387.197C305.594 381.412 307.73 375.384 309.377 369.183H313.95Z" fill="#B5994F"/>
<path d="M317.161 365.75L332.241 323.662L313.801 309.696L299.062 350.624L317.161 365.75Z" fill="#E1A68B"/>
<path d="M427.547 437.357L427.759 432.93C428.015 427.959 422.038 422.941 413.446 420.929L276.495 388.806C265.095 386.132 254.099 389.824 253.759 396.429L252.057 429.569C251.738 436.031 261.756 442.162 273.092 442.446L411.51 445.903C420.507 446.163 427.292 442.47 427.547 437.357Z" fill="#525A92"/>
<path d="M246.315 413.023L247.463 420.669C248.761 429.309 255.163 433.072 262.777 429.664L384.201 375.574C394.325 371.053 402.173 356.116 400.45 344.659L391.815 287.279C390.135 276.082 380.096 273.62 370.759 282.142L256.822 385.966C249.42 392.594 244.975 404.027 246.315 413.023Z" fill="#525A92"/>
<path d="M452.814 439.345L452.942 434.848C453.069 429.782 447.135 426.326 438.756 426.586L304.91 430.942C293.766 431.297 283.174 438.044 282.982 444.695L282.11 478.475C281.94 485.055 291.809 488.559 302.847 485.813L437.437 452.175C446.157 449.998 452.665 444.577 452.814 439.345Z" fill="#3954A5"/>
<path d="M282.238 469.48L286.13 474.427C290.511 479.99 298.679 478.877 305.655 471.728L416.891 358.104C426.164 348.636 429.376 332.871 423.548 325.461L394.389 288.439C388.71 281.195 377.118 285.504 370.057 297.434L284.088 443.228C278.516 452.625 277.729 463.751 282.238 469.48Z" fill="#3954A5"/>
<path d="M449.22 290.546C447.518 321.911 419.167 364.946 395.239 372.047C371.312 379.149 360.848 347.665 362.549 316.277C364.251 284.888 385.052 253.713 409 246.611C432.949 239.51 450.943 259.157 449.22 290.546Z" fill="#3954A5"/>
<path d="M285.194 482.807C290.116 482.807 294.106 475.706 294.106 466.947C294.106 458.187 290.116 451.087 285.194 451.087C280.272 451.087 276.283 458.187 276.283 466.947C276.283 475.706 280.272 482.807 285.194 482.807Z" fill="#3954A5"/>
<path d="M256.481 432.741C261.403 432.741 265.393 425.64 265.393 416.881C265.393 408.122 261.403 401.021 256.481 401.021C251.56 401.021 247.57 408.122 247.57 416.881C247.57 425.64 251.56 432.741 256.481 432.741Z" fill="#525A92"/>
<path d="M435.99 227.934C435.99 241.356 434.098 241.001 431.333 252.624C428.568 264.246 427.355 263.087 422.421 271.892C417.487 280.698 413.616 276.059 407.086 280.959C399.029 286.396 389.905 289.572 380.5 290.214C372.971 290.214 377.182 290.806 370.674 285.882C364.166 280.959 367.42 286.261 362.485 277.479C357.551 268.697 353.978 242.184 345.896 234.752C343.152 223.129 335.687 233.189 329.348 203.221C329.303 190.445 330.733 177.716 333.602 165.346C336.108 154.5 340.051 144.128 345.3 134.573C350.234 125.767 364.123 112.204 370.631 107.304C377.14 102.403 380.543 114.405 388.072 114.405C399.685 117.269 399.706 115.731 406.235 120.654C412.765 125.578 413.871 130.62 418.805 139.402C423.74 148.184 429.121 178.981 431.886 190.604C434.71 202.795 436.09 215.345 435.99 227.934Z" fill="#32ACE2"/>
<path d="M415.466 282.071L378.841 293.505C368.526 296.724 358.614 289.054 356.849 276.461L340.089 157.866C338.324 145.273 345.321 132.324 355.637 129.105L392.262 117.695C402.577 114.476 412.488 122.146 414.254 134.739L430.95 253.31C432.8 265.927 425.782 278.852 415.466 282.071Z" fill="#32ACE2"/>
<path d="M61.9349 290.617C61.9349 318.715 74.2284 345.558 61.9349 345.558C49.6415 345.558 39.6664 322.786 39.6664 294.664C39.6664 266.543 61.9349 206.298 61.9349 206.298V290.617Z" fill="#7AA74C"/>
<path d="M35.4765 315.495C47.3019 337.25 68.1029 346.269 58.5957 358.104C49.0885 369.94 31.7757 361.679 19.9502 339.925C8.12472 318.17 0 250.328 0 250.328L35.4765 315.495Z" fill="#7AA74C"/>
<path d="M64.0831 322.1C55.4267 347.002 36.2634 362.342 47.068 370.792C57.8726 379.243 73.8242 366.058 82.4806 341.203C91.1371 316.348 90.0524 247.321 90.0524 247.321L64.0831 322.1Z" fill="#7AA74C"/>
<path d="M79.8646 362.578C62.6793 373.609 41.453 367.123 46.281 384.143C51.109 401.163 68.9537 406.016 86.1176 394.985C103.282 383.954 131.399 329.485 131.399 329.485L79.8646 362.578Z" fill="#7AA74C"/>
<path d="M62.6368 365.253H44.4519V428.244H62.6368V365.253Z" fill="#7AA74C"/>
<path d="M78.2056 515H22.7151L5.04071 413.094H96.6032L78.2056 515Z" fill="#B5994F"/>
<path d="M360.28 286.747L363.817 299.727L447.531 271.472L443.995 258.492L360.28 286.747Z" fill="#32ACE2"/>
<path d="M445.37 264.744L428.717 268.294L421.698 227.271C421.698 227.271 415.679 187.314 423.144 188.237C438.628 190.178 445.37 264.744 445.37 264.744Z" fill="#32ACE2"/>
<path d="M425.165 256.601L416.359 260.696C409.553 263.868 403.109 261.737 401.982 255.961L380.713 146.598C379.585 140.799 384.179 133.508 390.986 130.336L399.791 126.241C406.597 123.069 413.02 125.199 414.147 130.975L435.416 240.338C436.586 246.138 431.992 253.429 425.165 256.601Z" fill="#32ACE2"/>
<path d="M397.005 228.495C397.445 228.412 395.013 209.856 391.573 187.048C388.133 164.241 384.987 145.818 384.547 145.9C384.106 145.982 386.538 164.538 389.979 187.346C393.419 210.154 396.565 228.577 397.005 228.495Z" fill="#5B96BA"/>
<path d="M370.345 241.81C382.523 237.997 392.301 234.53 392.184 234.066C392.066 233.602 382.098 236.316 369.92 240.128C357.741 243.94 347.963 247.407 348.081 247.871C348.198 248.336 358.166 245.622 370.345 241.81Z" fill="#5B96BA"/>
<path d="M283.046 289.93L322.968 271.585L334.623 295.469L295.765 313.389L283.046 289.93Z" fill="#E1A68B"/>
<path d="M270.561 288.368C270.561 288.368 277.835 284.202 281.94 285.006C286.045 285.811 285.79 284.509 292.468 288.581C299.147 292.652 298.126 290.735 299.423 294.333C300.104 296.156 304.145 300.724 303.124 303.944C302.103 307.163 296.85 318.431 291.15 318.502C285.449 318.573 275.177 326.455 265.031 324.23C254.886 322.005 254.269 320.964 252.27 316.75C250.271 312.537 250.271 309.649 249.782 301.387C249.292 293.126 253.801 294.144 256.162 293.457C258.523 292.771 270.561 288.368 270.561 288.368Z" fill="#E1A68B"/>
<path d="M307.697 283.136L310.589 293.765C312.823 302.003 318.884 306.713 324.138 304.299L433.438 253.949C438.692 251.582 441.138 242.895 438.904 234.657L436.033 224.028C433.8 215.791 427.717 211.08 422.464 213.518L313.184 263.891C307.931 266.259 305.463 274.899 307.697 283.136Z" fill="#5B96BA"/>
<path d="M307.697 280.84L310.589 291.469C312.823 299.707 318.884 304.417 324.138 301.979L433.438 251.653C438.692 249.286 441.138 240.598 438.904 232.361L436.033 221.732C433.8 213.494 427.717 208.784 422.464 211.198L313.184 261.524C307.931 263.891 305.463 272.603 307.697 280.84Z" fill="#32ACE2"/>
</svg>
