<svg width="491" height="482" viewBox="0 0 491 482" fill="none" xmlns="http://www.w3.org/2000/svg">
<g clip-path="url(#clip0_43_1042)">
<path d="M315.464 420.066L301.517 416.571L294.391 444.092L308.337 447.586L315.464 420.066Z" fill="#E1A68B"/>
<path d="M249.785 366.701L236.827 360.539L224.262 386.108L237.219 392.269L249.785 366.701Z" fill="#E1A68B"/>
<path d="M438.677 270.316L467.06 421.088L479.779 419.494L451.396 268.722L438.677 270.316Z" fill="#939598"/>
<path d="M453.713 248.944H350.722C347.075 248.944 344.118 251.852 344.118 255.44V263.632C344.118 267.22 347.075 270.128 350.722 270.128H453.713C457.36 270.128 460.317 267.22 460.317 263.632V255.44C460.317 251.852 457.36 248.944 453.713 248.944Z" fill="#939598"/>
<path d="M406.46 267.934L378.094 418.706L365.358 417.112L393.741 266.357L406.46 267.934Z" fill="#939598"/>
<path d="M312.365 187.35L317.374 190.195C321.233 192.386 326.167 191.086 328.394 187.29L374.759 108.297C376.987 104.501 375.665 99.6482 371.806 97.4569L366.796 94.6119C362.938 92.4206 358.004 93.721 355.776 97.5164L309.412 176.51C307.184 180.305 308.506 185.158 312.365 187.35Z" fill="#32ACE2"/>
<path d="M419.38 91.3382L379.042 85.5003C367.618 83.8468 356.994 91.6165 355.313 102.854L344.153 177.463C342.472 188.7 350.371 199.151 361.796 200.804L402.133 206.642C413.557 208.295 424.181 200.526 425.862 189.288L437.022 114.68C438.703 103.442 430.804 92.9916 419.38 91.3382Z" fill="#32ACE2"/>
<path d="M285.836 263.666L286.759 269.631C287.805 276.366 292.683 280.668 298.416 279.914L389.943 267.917C397.574 266.906 403.394 257.633 402.017 248.653L395.048 203.851C393.689 195.11 386.074 190.946 379.07 195.11L293.555 245.91C288.049 249.235 284.756 256.725 285.836 263.666Z" fill="#3954A5"/>
<path d="M237.503 373.39L240.099 375.498C243.043 377.863 248.061 375.635 252.121 370.168L316.815 283.033C322.199 275.784 323.593 266.049 319.69 262.895L300.176 247.144C296.377 244.076 289.338 248.858 285.435 257.051L237.642 357.828C234.54 364.375 234.488 370.956 237.503 373.39Z" fill="#3954A5"/>
<path d="M313.418 314.244L316.397 318.82C317.12 320.027 318.1 321.065 319.27 321.864C320.44 322.663 321.772 323.203 323.174 323.448C324.577 323.692 326.016 323.635 327.394 323.279C328.771 322.924 330.055 322.28 331.155 321.391L414.562 262.604C421.532 257.702 423.832 246.682 419.371 239.809L397.034 205.394C392.678 198.675 383.931 199.155 378.687 206.422L314.637 295.048C310.49 300.789 309.968 308.913 313.418 314.244Z" fill="#3954A5"/>
<path d="M305.612 433.239L308.835 433.651C312.477 434.096 316.502 429.538 318.471 422.733L349.833 314.261C352.464 305.228 350.373 296.213 345.547 295.613L321.363 292.58C316.624 291.98 311.553 299.727 310.7 308.828L300.245 419.923C299.618 427.138 301.866 432.777 305.612 433.239Z" fill="#3954A5"/>
<path d="M435.407 232.065C440.39 212.821 428.366 193.195 408.55 188.231C388.734 183.266 368.63 194.842 363.647 214.086C358.664 233.33 370.688 252.956 390.504 257.921C410.32 262.886 430.424 251.31 435.407 232.065Z" fill="#3954A5"/>
<path d="M491 205.394H0V218.059H491V205.394Z" fill="#E8955D"/>
<path d="M74.2097 211.66L0.0267181 429.494L12.236 433.517L86.419 215.683L74.2097 211.66Z" fill="#E8955D"/>
<path d="M73.8059 215.588L147.989 433.422L160.198 429.399L86.0151 211.565L73.8059 215.588Z" fill="#E8955D"/>
<path d="M404.978 215.908L330.795 433.742L343.005 437.765L417.188 219.931L404.978 215.908Z" fill="#E8955D"/>
<path d="M404.516 219.843L478.699 437.677L490.908 433.654L416.725 215.82L404.516 219.843Z" fill="#E8955D"/>
<path d="M463.212 191.831L462.43 186.193C461.827 181.851 457.76 178.811 453.346 179.404L403.471 186.098C399.056 186.69 395.966 190.691 396.569 195.033L397.351 200.671C397.953 205.014 402.02 208.053 406.434 207.461L456.309 200.767C460.724 200.174 463.814 196.174 463.212 191.831Z" fill="#32ACE2"/>
<path d="M401.599 208.153H292.858C290.301 208.065 287.858 207.089 285.963 205.398C284.068 203.707 282.844 201.41 282.508 198.915L269.614 124.755C268.412 117.796 273.378 111.369 280.069 111.369H387.73C390.259 111.451 392.678 112.403 394.567 114.06C396.455 115.717 397.692 117.973 398.062 120.436L412.001 194.596C413.203 201.606 408.255 208.153 401.599 208.153Z" fill="#505A63"/>
<path d="M437.37 192.917H339.414C336.267 192.917 333.716 195.426 333.716 198.521V202.549C333.716 205.644 336.267 208.153 339.414 208.153H437.37C440.517 208.153 443.067 205.644 443.067 202.549V198.521C443.067 195.426 440.517 192.917 437.37 192.917Z" fill="#505A63"/>
<path d="M421.646 98.7175L416.23 100.717C412.059 102.257 409.947 106.831 411.512 110.934L444.092 196.333C445.658 200.436 450.308 202.514 454.48 200.974L459.895 198.975C464.067 197.435 466.179 192.86 464.614 188.757L432.033 103.359C430.468 99.2557 425.818 97.1777 421.646 98.7175Z" fill="#32ACE2"/>
<path d="M193.281 398.79C193.281 398.79 214.974 404.172 217.674 395.825C218.381 393.431 219.575 391.203 221.183 389.276C222.791 387.349 224.781 385.764 227.031 384.616L240.796 394.06L225.01 412.913L215.775 421.157L183.89 405.903C183.89 405.903 177.269 389.021 193.281 398.79Z" fill="black"/>
<path d="M218.868 416.527L203.543 410.464L200.241 418.542L215.565 424.605L218.868 416.527Z" fill="black"/>
<path d="M270.05 466.918C270.05 466.918 292.074 462.993 290.958 454.338C290.595 451.871 290.746 449.358 291.402 446.95C292.058 444.543 293.205 442.292 294.774 440.335L311.257 443.334L304.845 466.986L299.949 478.247L264.509 477.304C264.509 477.304 251.389 464.587 270.05 466.918Z" fill="black"/>
<path d="M300.812 472.652L284.31 473.355L284.693 482.053L301.195 481.35L300.812 472.652Z" fill="black"/>
<path d="M370.916 51.5712C375.054 51.5712 378.408 48.2716 378.408 44.2014C378.408 40.1312 375.054 36.8317 370.916 36.8317C366.778 36.8317 363.424 40.1312 363.424 44.2014C363.424 48.2716 366.778 51.5712 370.916 51.5712Z" fill="#505A63"/>
<path d="M370.916 96.1326C375.054 96.1326 378.408 92.833 378.408 88.7628C378.408 84.6926 375.054 81.3931 370.916 81.3931C366.778 81.3931 363.424 84.6926 363.424 88.7628C363.424 92.833 366.778 96.1326 370.916 96.1326Z" fill="#505A63"/>
<path d="M370.916 86.4491C375.054 86.4491 378.408 83.1496 378.408 79.0794C378.408 75.0092 375.054 71.7096 370.916 71.7096C366.778 71.7096 363.424 75.0092 363.424 79.0794C363.424 83.1496 366.778 86.4491 370.916 86.4491Z" fill="#505A63"/>
<path d="M370.916 73.852C375.054 73.852 378.408 70.5524 378.408 66.4822C378.408 62.412 375.054 59.1124 370.916 59.1124C366.778 59.1124 363.424 62.412 363.424 66.4822C363.424 70.5524 366.778 73.852 370.916 73.852Z" fill="#505A63"/>
<path d="M370.916 62.1117C375.054 62.1117 378.408 58.8122 378.408 54.742C378.408 50.6718 375.054 47.3722 370.916 47.3722C366.778 47.3722 363.424 50.6718 363.424 54.742C363.424 58.8122 366.778 62.1117 370.916 62.1117Z" fill="#505A63"/>
<path d="M378.425 54.5706C382.563 54.5706 385.918 51.271 385.918 47.2008C385.918 43.1306 382.563 39.8311 378.425 39.8311C374.288 39.8311 370.933 43.1306 370.933 47.2008C370.933 51.271 374.288 54.5706 378.425 54.5706Z" fill="#505A63"/>
<path d="M378.425 99.132C382.563 99.132 385.918 95.8324 385.918 91.7622C385.918 87.692 382.563 84.3925 378.425 84.3925C374.288 84.3925 370.933 87.692 370.933 91.7622C370.933 95.8324 374.288 99.132 378.425 99.132Z" fill="#505A63"/>
<path d="M378.425 89.4484C382.563 89.4484 385.918 86.1488 385.918 82.0786C385.918 78.0084 382.563 74.7089 378.425 74.7089C374.288 74.7089 370.933 78.0084 370.933 82.0786C370.933 86.1488 374.288 89.4484 378.425 89.4484Z" fill="#505A63"/>
<path d="M378.425 76.8512C382.563 76.8512 385.918 73.5517 385.918 69.4815C385.918 65.4113 382.563 62.1117 378.425 62.1117C374.288 62.1117 370.933 65.4113 370.933 69.4815C370.933 73.5517 374.288 76.8512 378.425 76.8512Z" fill="#505A63"/>
<path d="M378.425 65.111C382.563 65.111 385.918 61.8114 385.918 57.7412C385.918 53.671 382.563 50.3715 378.425 50.3715C374.288 50.3715 370.933 53.671 370.933 57.7412C370.933 61.8114 374.288 65.111 378.425 65.111Z" fill="#505A63"/>
<path d="M395.396 75.6515C410.648 75.6515 423.013 60.9876 423.013 42.8989C423.013 24.8101 410.648 10.1462 395.396 10.1462C380.144 10.1462 367.78 24.8101 367.78 42.8989C367.78 60.9876 380.144 75.6515 395.396 75.6515Z" fill="#E1A68B"/>
<path d="M412.105 54.8276H382.747V88.8485H412.105V54.8276Z" fill="#E1A68B"/>
<path d="M392.573 4.98735C392.573 4.98735 405.85 -6.22155 422.054 4.98735C438.259 16.1963 428.902 11.5344 429.599 30.6958C430.296 49.8572 423.535 50.5428 412.175 36.4031C404.553 26.6271 397.984 16.0987 392.573 4.98735V4.98735Z" fill="#505A63"/>
<path d="M404.578 15.5108C404.578 15.5108 398.776 -0.719844 379.035 1.01119C359.294 2.74223 369.783 3.32496 359.416 19.6241C349.049 35.9233 354.572 39.7968 371.613 33.1811C383.193 28.4279 394.24 22.5062 404.578 15.5108V15.5108Z" fill="#505A63"/>
<path d="M423.936 51.5712C428.074 51.5712 431.428 48.2716 431.428 44.2014C431.428 40.1312 428.074 36.8317 423.936 36.8317C419.798 36.8317 416.444 40.1312 416.444 44.2014C416.444 48.2716 419.798 51.5712 423.936 51.5712Z" fill="#505A63"/>
<path d="M423.936 96.1326C428.074 96.1326 431.428 92.833 431.428 88.7628C431.428 84.6926 428.074 81.3931 423.936 81.3931C419.798 81.3931 416.444 84.6926 416.444 88.7628C416.444 92.833 419.798 96.1326 423.936 96.1326Z" fill="#505A63"/>
<path d="M423.936 86.4491C428.074 86.4491 431.428 83.1496 431.428 79.0794C431.428 75.0092 428.074 71.7096 423.936 71.7096C419.798 71.7096 416.444 75.0092 416.444 79.0794C416.444 83.1496 419.798 86.4491 423.936 86.4491Z" fill="#505A63"/>
<path d="M423.936 73.852C428.074 73.852 431.428 70.5524 431.428 66.4822C431.428 62.412 428.074 59.1124 423.936 59.1124C419.798 59.1124 416.444 62.412 416.444 66.4822C416.444 70.5524 419.798 73.852 423.936 73.852Z" fill="#505A63"/>
<path d="M423.936 62.1117C428.074 62.1117 431.428 58.8122 431.428 54.742C431.428 50.6718 428.074 47.3722 423.936 47.3722C419.798 47.3722 416.444 50.6718 416.444 54.742C416.444 58.8122 419.798 62.1117 423.936 62.1117Z" fill="#505A63"/>
<path d="M431.655 28.7592C435.793 28.7592 439.147 25.4596 439.147 21.3894C439.147 17.3192 435.793 14.0197 431.655 14.0197C427.517 14.0197 424.163 17.3192 424.163 21.3894C424.163 25.4596 427.517 28.7592 431.655 28.7592Z" fill="#505A63"/>
<path d="M431.655 73.3378C435.793 73.3378 439.147 70.0383 439.147 65.968C439.147 61.8978 435.793 58.5983 431.655 58.5983C427.517 58.5983 424.163 61.8978 424.163 65.968C424.163 70.0383 427.517 73.3378 431.655 73.3378Z" fill="#505A63"/>
<path d="M431.655 63.6371C435.793 63.6371 439.147 60.3376 439.147 56.2674C439.147 52.1971 435.793 48.8976 431.655 48.8976C427.517 48.8976 424.163 52.1971 424.163 56.2674C424.163 60.3376 427.517 63.6371 431.655 63.6371Z" fill="#505A63"/>
<path d="M431.655 51.04C435.793 51.04 439.147 47.7404 439.147 43.6702C439.147 39.6 435.793 36.3004 431.655 36.3004C427.517 36.3004 424.163 39.6 424.163 43.6702C424.163 47.7404 427.517 51.04 431.655 51.04Z" fill="#505A63"/>
<path d="M431.655 39.2997C435.793 39.2997 439.147 36.0002 439.147 31.9299C439.147 27.8597 435.793 24.5602 431.655 24.5602C427.517 24.5602 424.163 27.8597 424.163 31.9299C424.163 36.0002 427.517 39.2997 431.655 39.2997Z" fill="#505A63"/>
<path d="M360.618 33.9695C364.756 33.9695 368.111 30.67 368.111 26.5997C368.111 22.5295 364.756 19.23 360.618 19.23C356.481 19.23 353.126 22.5295 353.126 26.5997C353.126 30.67 356.481 33.9695 360.618 33.9695Z" fill="#505A63"/>
<path d="M360.618 78.548C364.756 78.548 368.111 75.2485 368.111 71.1782C368.111 67.108 364.756 63.8085 360.618 63.8085C356.481 63.8085 353.126 67.108 353.126 71.1782C353.126 75.2485 356.481 78.548 360.618 78.548Z" fill="#505A63"/>
<path d="M360.618 68.8473C364.756 68.8473 368.111 65.5478 368.111 61.4776C368.111 57.4073 364.756 54.1078 360.618 54.1078C356.481 54.1078 353.126 57.4073 353.126 61.4776C353.126 65.5478 356.481 68.8473 360.618 68.8473Z" fill="#505A63"/>
<path d="M360.618 56.2674C364.756 56.2674 368.111 52.9678 368.111 48.8976C368.111 44.8274 364.756 41.5278 360.618 41.5278C356.481 41.5278 353.126 44.8274 353.126 48.8976C353.126 52.9678 356.481 56.2674 360.618 56.2674Z" fill="#505A63"/>
<path d="M360.618 44.5099C364.756 44.5099 368.111 41.2104 368.111 37.1402C368.111 33.0699 364.756 29.7704 360.618 29.7704C356.481 29.7704 353.126 33.0699 353.126 37.1402C353.126 41.2104 356.481 44.5099 360.618 44.5099Z" fill="#505A63"/>
<path d="M435.174 45.4012C439.312 45.4012 442.667 42.1016 442.667 38.0314C442.667 33.9612 439.312 30.6616 435.174 30.6616C431.037 30.6616 427.682 33.9612 427.682 38.0314C427.682 42.1016 431.037 45.4012 435.174 45.4012Z" fill="#505A63"/>
<path d="M456.327 84.8208C460.465 84.8208 463.819 81.5213 463.819 77.4511C463.819 73.3809 460.465 70.0813 456.327 70.0813C452.189 70.0813 448.835 73.3809 448.835 77.4511C448.835 81.5213 452.189 84.8208 456.327 84.8208Z" fill="#505A63"/>
<path d="M451.727 76.2343C455.865 76.2343 459.219 72.9347 459.219 68.8645C459.219 64.7943 455.865 61.4948 451.727 61.4948C447.589 61.4948 444.235 64.7943 444.235 68.8645C444.235 72.9347 447.589 76.2343 451.727 76.2343Z" fill="#505A63"/>
<path d="M445.751 65.111C449.888 65.111 453.243 61.8114 453.243 57.7412C453.243 53.671 449.888 50.3715 445.751 50.3715C441.613 50.3715 438.258 53.671 438.258 57.7412C438.258 61.8114 441.613 65.111 445.751 65.111Z" fill="#505A63"/>
<path d="M440.175 54.7248C444.313 54.7248 447.667 51.4252 447.667 47.355C447.667 43.2848 444.313 39.9852 440.175 39.9852C436.037 39.9852 432.683 43.2848 432.683 47.355C432.683 51.4252 436.037 54.7248 440.175 54.7248Z" fill="#505A63"/>
<path d="M435.488 29.6676C439.626 29.6676 442.98 26.3681 442.98 22.2979C442.98 18.2277 439.626 14.9281 435.488 14.9281C431.35 14.9281 427.996 18.2277 427.996 22.2979C427.996 26.3681 431.35 29.6676 435.488 29.6676Z" fill="#505A63"/>
<path d="M460.125 67.0649C464.263 67.0649 467.617 63.7653 467.617 59.6951C467.617 55.6249 464.263 52.3253 460.125 52.3253C455.987 52.3253 452.633 55.6249 452.633 59.6951C452.633 63.7653 455.987 67.0649 460.125 67.0649Z" fill="#505A63"/>
<path d="M454.776 58.9239C458.914 58.9239 462.268 55.6243 462.268 51.5541C462.268 47.4839 458.914 44.1843 454.776 44.1843C450.638 44.1843 447.284 47.4839 447.284 51.5541C447.284 55.6243 450.638 58.9239 454.776 58.9239Z" fill="#505A63"/>
<path d="M447.807 48.3662C451.945 48.3662 455.299 45.0667 455.299 40.9965C455.299 36.9263 451.945 33.6267 447.807 33.6267C443.669 33.6267 440.314 36.9263 440.314 40.9965C440.314 45.0667 443.669 48.3662 447.807 48.3662Z" fill="#505A63"/>
<path d="M441.308 38.5113C445.445 38.5113 448.8 35.2117 448.8 31.1415C448.8 27.0713 445.445 23.7717 441.308 23.7717C437.17 23.7717 433.815 27.0713 433.815 31.1415C433.815 35.2117 437.17 38.5113 441.308 38.5113Z" fill="#505A63"/>
<path d="M367.797 32.4955C371.935 32.4955 375.289 29.196 375.289 25.1257C375.289 21.0555 371.935 17.756 367.797 17.756C363.659 17.756 360.305 21.0555 360.305 25.1257C360.305 29.196 363.659 32.4955 367.797 32.4955Z" fill="#505A63"/>
<path d="M349.032 73.0635C353.17 73.0635 356.524 69.764 356.524 65.6937C356.524 61.6235 353.17 58.324 349.032 58.324C344.894 58.324 341.539 61.6235 341.539 65.6937C341.539 69.764 344.894 73.0635 349.032 73.0635Z" fill="#505A63"/>
<path d="M353.126 64.237C357.264 64.237 360.618 60.9374 360.618 56.8672C360.618 52.797 357.264 49.4974 353.126 49.4974C348.988 49.4974 345.634 52.797 345.634 56.8672C345.634 60.9374 348.988 64.237 353.126 64.237Z" fill="#505A63"/>
<path d="M358.423 52.771C362.561 52.771 365.915 49.4715 365.915 45.4013C365.915 41.3311 362.561 38.0315 358.423 38.0315C354.285 38.0315 350.931 41.3311 350.931 45.4013C350.931 49.4715 354.285 52.771 358.423 52.771Z" fill="#505A63"/>
<path d="M363.354 42.0762C367.492 42.0762 370.846 38.7766 370.846 34.7064C370.846 30.6362 367.492 27.3367 363.354 27.3367C359.216 27.3367 355.862 30.6362 355.862 34.7064C355.862 38.7766 359.216 42.0762 363.354 42.0762Z" fill="#505A63"/>
<path d="M416.444 78.2395H378.425V99.4747H416.444V78.2395Z" fill="#32ACE2"/>
<path d="M416.444 51.5712C420.582 51.5712 423.936 48.2716 423.936 44.2014C423.936 40.1312 420.582 36.8317 416.444 36.8317C412.306 36.8317 408.952 40.1312 408.952 44.2014C408.952 48.2716 412.306 51.5712 416.444 51.5712Z" fill="#505A63"/>
<path d="M416.444 96.1326C420.582 96.1326 423.936 92.833 423.936 88.7628C423.936 84.6926 420.582 81.3931 416.444 81.3931C412.306 81.3931 408.952 84.6926 408.952 88.7628C408.952 92.833 412.306 96.1326 416.444 96.1326Z" fill="#505A63"/>
<path d="M416.444 86.4491C420.582 86.4491 423.936 83.1496 423.936 79.0794C423.936 75.0092 420.582 71.7096 416.444 71.7096C412.306 71.7096 408.952 75.0092 408.952 79.0794C408.952 83.1496 412.306 86.4491 416.444 86.4491Z" fill="#505A63"/>
<path d="M416.444 73.852C420.582 73.852 423.936 70.5524 423.936 66.4822C423.936 62.412 420.582 59.1124 416.444 59.1124C412.306 59.1124 408.952 62.412 408.952 66.4822C408.952 70.5524 412.306 73.852 416.444 73.852Z" fill="#505A63"/>
<path d="M416.444 62.1117C420.582 62.1117 423.936 58.8122 423.936 54.742C423.936 50.6718 420.582 47.3722 416.444 47.3722C412.306 47.3722 408.952 50.6718 408.952 54.742C408.952 58.8122 412.306 62.1117 416.444 62.1117Z" fill="#505A63"/>
<path d="M431.655 58.9409C435.793 58.9409 439.147 55.6414 439.147 51.5712C439.147 47.501 435.793 44.2014 431.655 44.2014C427.517 44.2014 424.163 47.501 424.163 51.5712C424.163 55.6414 427.517 58.9409 431.655 58.9409Z" fill="#505A63"/>
<path d="M431.655 103.52C435.793 103.52 439.147 100.22 439.147 96.1498C439.147 92.0796 435.793 88.78 431.655 88.78C427.517 88.78 424.163 92.0796 424.163 96.1498C424.163 100.22 427.517 103.52 431.655 103.52Z" fill="#505A63"/>
<path d="M431.655 93.8189C435.793 93.8189 439.147 90.5193 439.147 86.4491C439.147 82.3789 435.793 79.0793 431.655 79.0793C427.517 79.0793 424.163 82.3789 424.163 86.4491C424.163 90.5193 427.517 93.8189 431.655 93.8189Z" fill="#505A63"/>
<path d="M431.655 81.2217C435.793 81.2217 439.147 77.9222 439.147 73.8519C439.147 69.7817 435.793 66.4822 431.655 66.4822C427.517 66.4822 424.163 69.7817 424.163 73.8519C424.163 77.9222 427.517 81.2217 431.655 81.2217Z" fill="#505A63"/>
<path d="M431.655 69.4815C435.793 69.4815 439.147 66.1819 439.147 62.1117C439.147 58.0415 435.793 54.7419 431.655 54.7419C427.517 54.7419 424.163 58.0415 424.163 62.1117C424.163 66.1819 427.517 69.4815 431.655 69.4815Z" fill="#505A63"/>
<path d="M443.05 50.2001C447.188 50.2001 450.542 46.9005 450.542 42.8303C450.542 38.7601 447.188 35.4606 443.05 35.4606C438.912 35.4606 435.558 38.7601 435.558 42.8303C435.558 46.9005 438.912 50.2001 443.05 50.2001Z" fill="#505A63"/>
<path d="M443.05 94.7615C447.188 94.7615 450.542 91.462 450.542 87.3917C450.542 83.3215 447.188 80.022 443.05 80.022C438.912 80.022 435.558 83.3215 435.558 87.3917C435.558 91.462 438.912 94.7615 443.05 94.7615Z" fill="#505A63"/>
<path d="M443.05 85.0779C447.188 85.0779 450.542 81.7784 450.542 77.7081C450.542 73.6379 447.188 70.3384 443.05 70.3384C438.912 70.3384 435.558 73.6379 435.558 77.7081C435.558 81.7784 438.912 85.0779 443.05 85.0779Z" fill="#505A63"/>
<path d="M443.05 72.4808C447.188 72.4808 450.542 69.1812 450.542 65.111C450.542 61.0408 447.188 57.7412 443.05 57.7412C438.912 57.7412 435.558 61.0408 435.558 65.111C435.558 69.1812 438.912 72.4808 443.05 72.4808Z" fill="#505A63"/>
<path d="M443.05 60.7406C447.188 60.7406 450.542 57.4411 450.542 53.3709C450.542 49.3007 447.188 46.0011 443.05 46.0011C438.912 46.0011 435.558 49.3007 435.558 53.3709C435.558 57.4411 438.912 60.7406 443.05 60.7406Z" fill="#505A63"/>
<path d="M412.123 37.7057C415.366 37.7057 417.995 35.1198 417.995 31.9299C417.995 28.74 415.366 26.1541 412.123 26.1541C408.88 26.1541 406.251 28.74 406.251 31.9299C406.251 35.1198 408.88 37.7057 412.123 37.7057Z" fill="#505A63"/>
<path d="M404.561 27.1653C407.804 27.1653 410.433 24.5794 410.433 21.3895C410.433 18.1996 407.804 15.6136 404.561 15.6136C401.318 15.6136 398.689 18.1996 398.689 21.3895C398.689 24.5794 401.318 27.1653 404.561 27.1653Z" fill="#505A63"/>
<path d="M392.574 25.0058C395.816 25.0058 398.445 22.4199 398.445 19.2299C398.445 16.04 395.816 13.4541 392.574 13.4541C389.331 13.4541 386.702 16.04 386.702 19.2299C386.702 22.4199 389.331 25.0058 392.574 25.0058Z" fill="#505A63"/>
<path d="M385.918 32.3755C389.161 32.3755 391.789 29.7896 391.789 26.5997C391.789 23.4098 389.161 20.8239 385.918 20.8239C382.675 20.8239 380.046 23.4098 380.046 26.5997C380.046 29.7896 382.675 32.3755 385.918 32.3755Z" fill="#505A63"/>
<path d="M373.93 35.4434C377.173 35.4434 379.802 32.8575 379.802 29.6676C379.802 26.4777 377.173 23.8917 373.93 23.8917C370.687 23.8917 368.058 26.4777 368.058 29.6676C368.058 32.8575 370.687 35.4434 373.93 35.4434Z" fill="#505A63"/>
<path d="M366.386 15.9222C369.629 15.9222 372.257 13.3362 372.257 10.1463C372.257 6.95642 369.629 4.37048 366.386 4.37048C363.143 4.37048 360.514 6.95642 360.514 10.1463C360.514 13.3362 363.143 15.9222 366.386 15.9222Z" fill="#505A63"/>
<path d="M360.618 23.5147C363.861 23.5147 366.49 20.9288 366.49 17.7389C366.49 14.5489 363.861 11.963 360.618 11.963C357.376 11.963 354.747 14.5489 354.747 17.7389C354.747 20.9288 357.376 23.5147 360.618 23.5147Z" fill="#505A63"/>
</g>
<defs>
<clipPath id="clip0_43_1042">
<rect width="491" height="482" fill="white"/>
</clipPath>
</defs>
</svg>
