<svg id="Layer_1" data-name="Layer 1" xmlns="http://www.w3.org/2000/svg" xmlns:xlink="http://www.w3.org/1999/xlink" viewBox="0 0 314.52 158.46"><defs><style>.cls-1{fill:none;}.cls-2{clip-path:url(#clip-path);}.cls-3{clip-path:url(#clip-path-2);}.cls-4{clip-path:url(#clip-path-3);}.cls-5{clip-path:url(#clip-path-4);}.cls-6{clip-path:url(#clip-path-7);}.cls-7{clip-path:url(#clip-path-10);}.cls-8{clip-path:url(#clip-path-13);}.cls-9{clip-path:url(#clip-path-16);}.cls-10{clip-path:url(#clip-path-19);}.cls-11{clip-path:url(#clip-path-22);}.cls-12{clip-path:url(#clip-path-25);}.cls-13{clip-path:url(#clip-path-28);}.cls-14{clip-path:url(#clip-path-31);}.cls-15{clip-path:url(#clip-path-34);}.cls-16{clip-path:url(#clip-path-37);}.cls-17{clip-path:url(#clip-path-40);}.cls-18{clip-path:url(#clip-path-43);}.cls-19{clip-path:url(#clip-path-46);}.cls-20{clip-path:url(#clip-path-49);}.cls-21{clip-path:url(#clip-path-50);}.cls-22{clip-path:url(#clip-path-51);}.cls-23{clip-path:url(#clip-path-54);}.cls-24{clip-path:url(#clip-path-57);}.cls-25{clip-path:url(#clip-path-60);}.cls-26{clip-path:url(#clip-path-63);}.cls-27{clip-path:url(#clip-path-66);}.cls-28{clip-path:url(#clip-path-69);}.cls-29{clip-path:url(#clip-path-72);}.cls-30{clip-path:url(#clip-path-75);}.cls-31{clip-path:url(#clip-path-78);}.cls-32{clip-path:url(#clip-path-81);}.cls-33{clip-path:url(#clip-path-84);}.cls-34{clip-path:url(#clip-path-87);}.cls-35{clip-path:url(#clip-path-90);}.cls-36{clip-path:url(#clip-path-91);}.cls-37{clip-path:url(#clip-path-92);}</style><clipPath id="clip-path" transform="translate(-30.14 -86.77)"><rect class="cls-1" x="119" y="137" width="11" height="19"/></clipPath><clipPath id="clip-path-2" transform="translate(-30.14 -86.77)"><rect class="cls-1" x="5.57" y="105.69" width="162.75" height="115.5" transform="translate(-87.17 226.35) rotate(-81.86)"/></clipPath><clipPath id="clip-path-3" transform="translate(-30.14 -86.77)"><rect class="cls-1" x="5.43" y="105.67" width="162.75" height="115.5" transform="translate(-87.27 226.19) rotate(-81.86)"/></clipPath><clipPath id="clip-path-4" transform="translate(-30.14 -86.77)"><rect class="cls-1" x="120" y="143" width="18" height="16"/></clipPath><clipPath id="clip-path-7" transform="translate(-30.14 -86.77)"><rect class="cls-1" x="123" y="148" width="18" height="20"/></clipPath><clipPath id="clip-path-10" transform="translate(-30.14 -86.77)"><rect class="cls-1" x="128" y="103" width="25" height="13"/></clipPath><clipPath id="clip-path-13" transform="translate(-30.14 -86.77)"><rect class="cls-1" x="126" y="89" width="18" height="27"/></clipPath><clipPath id="clip-path-16" transform="translate(-30.14 -86.77)"><rect class="cls-1" x="127" y="112" width="24" height="11"/></clipPath><clipPath id="clip-path-19" transform="translate(-30.14 -86.77)"><rect class="cls-1" x="114" y="86" width="18" height="31"/></clipPath><clipPath id="clip-path-22" transform="translate(-30.14 -86.77)"><rect class="cls-1" x="106" y="91" width="23" height="27"/></clipPath><clipPath id="clip-path-25" transform="translate(-30.14 -86.77)"><rect class="cls-1" x="85" y="103" width="19" height="47"/></clipPath><clipPath id="clip-path-28" transform="translate(-30.14 -86.77)"><rect class="cls-1" x="84" y="103" width="20" height="36"/></clipPath><clipPath id="clip-path-31" transform="translate(-30.14 -86.77)"><rect class="cls-1" x="65" y="161" width="17" height="31"/></clipPath><clipPath id="clip-path-34" transform="translate(-30.14 -86.77)"><rect class="cls-1" x="76" y="151" width="9" height="29"/></clipPath><clipPath id="clip-path-37" transform="translate(-30.14 -86.77)"><rect class="cls-1" x="76" y="151" width="10" height="26"/></clipPath><clipPath id="clip-path-40" transform="translate(-30.14 -86.77)"><rect class="cls-1" x="54" y="177" width="24" height="10"/></clipPath><clipPath id="clip-path-43" transform="translate(-30.14 -86.77)"><rect class="cls-1" x="54" y="177" width="23" height="12"/></clipPath><clipPath id="clip-path-46" transform="translate(-30.14 -86.77)"><rect class="cls-1" x="77" y="103" width="67" height="143"/></clipPath><clipPath id="clip-path-49" transform="translate(-30.14 -86.77)"><rect class="cls-1" x="33.39" y="148.22" width="148.71" height="51.02" transform="translate(-79.49 255.79) rotate(-81.86)"/></clipPath><clipPath id="clip-path-50" transform="translate(-30.14 -86.77)"><rect class="cls-1" x="33.55" y="148.09" width="148.44" height="51.02" transform="translate(-79.34 255.69) rotate(-81.86)"/></clipPath><clipPath id="clip-path-51" transform="translate(-30.14 -86.77)"><rect class="cls-1" x="88" y="156" width="32" height="17"/></clipPath><clipPath id="clip-path-54" transform="translate(-30.14 -86.77)"><rect class="cls-1" x="117" y="154" width="18" height="22"/></clipPath><clipPath id="clip-path-57" transform="translate(-30.14 -86.77)"><rect class="cls-1" x="105" y="160" width="5" height="25"/></clipPath><clipPath id="clip-path-60" transform="translate(-30.14 -86.77)"><rect class="cls-1" x="103" y="161" width="6" height="24"/></clipPath><clipPath id="clip-path-63" transform="translate(-30.14 -86.77)"><rect class="cls-1" x="32" y="159" width="36" height="14"/></clipPath><clipPath id="clip-path-66" transform="translate(-30.14 -86.77)"><rect class="cls-1" x="65" y="131" width="18" height="32"/></clipPath><clipPath id="clip-path-69" transform="translate(-30.14 -86.77)"><rect class="cls-1" x="57" y="121" width="17" height="41"/></clipPath><clipPath id="clip-path-72" transform="translate(-30.14 -86.77)"><rect class="cls-1" x="78" y="188" width="13" height="32"/></clipPath><clipPath id="clip-path-75" transform="translate(-30.14 -86.77)"><rect class="cls-1" x="88" y="188" width="5" height="15"/></clipPath><clipPath id="clip-path-78" transform="translate(-30.14 -86.77)"><rect class="cls-1" x="87" y="198" width="17" height="11"/></clipPath><clipPath id="clip-path-81" transform="translate(-30.14 -86.77)"><rect class="cls-1" x="90" y="198" width="14" height="11"/></clipPath><clipPath id="clip-path-84" transform="translate(-30.14 -86.77)"><rect class="cls-1" x="30" y="149" width="37" height="18"/></clipPath><clipPath id="clip-path-87" transform="translate(-30.14 -86.77)"><rect class="cls-1" x="30" y="132" width="37" height="29"/></clipPath><clipPath id="clip-path-90" transform="translate(-30.14 -86.77)"><rect class="cls-1" x="36.74" y="127.88" width="25.98" height="37.7" transform="translate(-102.57 175.17) rotate(-81.86)"/></clipPath><clipPath id="clip-path-91" transform="translate(-30.14 -86.77)"><rect class="cls-1" x="36.81" y="127.96" width="25.97" height="37.55" transform="translate(-102.51 175.26) rotate(-81.86)"/></clipPath><clipPath id="clip-path-92" transform="translate(-30.14 -86.77)"><rect class="cls-1" x="40" y="119" width="20" height="15"/></clipPath></defs><g class="cls-2"><g class="cls-3"><g class="cls-4"><path d="M129,138.63s.07,0,.08,0a1.42,1.42,0,0,1-.08.29l-.47,1.43-2.64,7.91c-.38,1.11-.75,2.23-1.12,3.35a6.17,6.17,0,0,1-.77,1.73,3.26,3.26,0,0,1-2.9,1.22,3.37,3.37,0,0,1-1-.22,6.07,6.07,0,0,1,.63-2.8,48.82,48.82,0,0,1,7.57-12.46,1.5,1.5,0,0,1,.52-.47Zm-9.29,16.81a.51.51,0,0,0,.24,0l.09,0a4.56,4.56,0,0,0,1,.18,4.17,4.17,0,0,0,3.75-1.6,6.75,6.75,0,0,0,.91-2l1.13-3.36q1.3-3.94,2.63-7.91l.48-1.43a1.43,1.43,0,0,0,.06-.94,1.15,1.15,0,0,0-1.45-.59,2.34,2.34,0,0,0-.94.76,50.2,50.2,0,0,0-7.72,12.71,6.41,6.41,0,0,0-.65,3.61v0a2.54,2.54,0,0,0,.09.31.51.51,0,0,0,.39.31" transform="translate(-30.14 -86.77)"/></g></g></g><g class="cls-5"><g class="cls-3"><g class="cls-4"><path d="M124.49,158.81a11.24,11.24,0,0,0,3-.06c1.42-.2,3.44-.63,4.56-2.16a7.17,7.17,0,0,0,1-3.25,7.73,7.73,0,0,1,.67-2.52,6,6,0,0,1,1.21-1.46l.46-.43a7.87,7.87,0,0,0,1.91-2.26,2.24,2.24,0,0,0,.25-1.58c-.33-1.34-1.92-1.66-3.18-1.52a11.7,11.7,0,0,0-5.57,2.15c-.54.39-1,.82-1.55,1.25s-.88.74-1.33,1.08a.49.49,0,0,0-.1.68.48.48,0,0,0,.68.1c.48-.35.93-.74,1.38-1.12s1-.84,1.49-1.2a10.63,10.63,0,0,1,5.11-2c.91-.1,2,.1,2.13.78a1.39,1.39,0,0,1-.18.92,7.29,7.29,0,0,1-1.7,2l-.47.44a6.72,6.72,0,0,0-1.4,1.71,8.39,8.39,0,0,0-.77,2.84,6.37,6.37,0,0,1-.88,2.82c-.9,1.22-2.66,1.59-3.9,1.76a8.91,8.91,0,0,1-3.29,0,4.14,4.14,0,0,1-1.4-.61A3,3,0,0,1,121.5,155a.49.49,0,0,0-1,.08,4,4,0,0,0,1.63,2.84,5.16,5.16,0,0,0,1.72.75l.61.11" transform="translate(-30.14 -86.77)"/></g></g></g><g class="cls-6"><g class="cls-3"><g class="cls-4"><path d="M133.79,167.31l.11,0h0a5.6,5.6,0,0,0,.6,0,5,5,0,0,0,3.71-1.58,3.42,3.42,0,0,0,.95-2.71,6,6,0,0,0-.53-1.69,3.68,3.68,0,0,1-.44-1.87,3.6,3.6,0,0,1,.88-1.53c.21-.26.42-.53.61-.82a5,5,0,0,0-1.28-6.53,9,9,0,0,0-1.5-.8c-.36-.17-.71-.33-1-.52a3.67,3.67,0,0,1-.82-.65.49.49,0,0,0-.69,0,.48.48,0,0,0,0,.68,4.25,4.25,0,0,0,1.05.85,10.78,10.78,0,0,0,1.13.56,8.15,8.15,0,0,1,1.34.72,4,4,0,0,1,1,5.2,8.83,8.83,0,0,1-.55.74,3.43,3.43,0,0,0-.58,4.39,5.46,5.46,0,0,1,.46,1.42,2.45,2.45,0,0,1-.7,1.94,4,4,0,0,1-3,1.26,3.75,3.75,0,0,1-.5,0,11.07,11.07,0,0,1-4.91-2.45,16,16,0,0,1-3.49-3.24,6.75,6.75,0,0,1-1.16-2.54.48.48,0,1,0-1,.19,7.69,7.69,0,0,0,1.32,2.93,17,17,0,0,0,3.7,3.44,12,12,0,0,0,5.25,2.62" transform="translate(-30.14 -86.77)"/></g></g></g><g class="cls-7"><g class="cls-3"><g class="cls-4"><path d="M140.51,115.85a9.25,9.25,0,0,0,1.58.09,13.43,13.43,0,0,0,4.93-1.47,21.82,21.82,0,0,0,2-1,9.09,9.09,0,0,0,2-1.54,5.26,5.26,0,0,0,1.57-4.65,2.85,2.85,0,0,0-1.13-1.83,4,4,0,0,0-2.66-.46,3.4,3.4,0,0,1-2.06-.3,2.78,2.78,0,0,1-.48-.44,3,3,0,0,0-.94-.75,3.07,3.07,0,0,0-2.11.07l-.49.14-.15,0a.49.49,0,0,0,.25,1l.19-.06.48-.14a2.19,2.19,0,0,1,1.43-.1,1.88,1.88,0,0,1,.63.52,3.86,3.86,0,0,0,.63.57,4.07,4.07,0,0,0,2.67.47,3.34,3.34,0,0,1,2.06.29,2,2,0,0,1,.73,1.23,4.35,4.35,0,0,1-1.32,3.77,8.11,8.11,0,0,1-1.81,1.38,18.91,18.91,0,0,1-1.93,1,12.13,12.13,0,0,1-4.56,1.37,13.41,13.41,0,0,1-4.37-.81c-.52-.16-1.05-.32-1.59-.46a20.08,20.08,0,0,0-7.25-.51.49.49,0,0,0-.43.54.49.49,0,0,0,.54.43,19.06,19.06,0,0,1,6.9.48l1.55.45a20.48,20.48,0,0,0,3.11.77" transform="translate(-30.14 -86.77)"/></g></g></g><g class="cls-8"><g class="cls-3"><g class="cls-4"><path d="M127,115.83a.48.48,0,0,0,.54-.35c.14-.5.27-1,.4-1.49a134.91,134.91,0,0,0,3.55-19V95a14.33,14.33,0,0,1,.31-2,5.63,5.63,0,0,1,.31-.88,2.73,2.73,0,0,1,2-1.64c1.42-.17,2.6,1.3,3.18,2.19a17.41,17.41,0,0,1,2.38,5.73c0,.16.07.31.1.47a8.45,8.45,0,0,0,.61,2,8.33,8.33,0,0,0,.86,1.37,7.45,7.45,0,0,1,.78,1.23,2.39,2.39,0,0,1,.21.75h0a.48.48,0,0,0,.42.47.47.47,0,0,0,.55-.41.74.74,0,0,0,0-.21,3.69,3.69,0,0,0-.3-1,8.47,8.47,0,0,0-.87-1.38,9,9,0,0,1-.77-1.21,7.56,7.56,0,0,1-.53-1.84c0-.16-.07-.32-.11-.48a18,18,0,0,0-2.52-6c-1.21-1.87-2.67-2.81-4.11-2.63a3.65,3.65,0,0,0-2.72,2.2,6.05,6.05,0,0,0-.37,1,14.17,14.17,0,0,0-.34,2.12v.07A134.62,134.62,0,0,1,127,113.74c-.13.49-.26,1-.4,1.48a.49.49,0,0,0,.34.6H127" transform="translate(-30.14 -86.77)"/></g></g></g><g class="cls-9"><g class="cls-3"><g class="cls-4"><path d="M137.58,122.75a5.8,5.8,0,0,0,5.3-1.72l.36-.47a2.91,2.91,0,0,1,.72-.79,3.15,3.15,0,0,1,2-.23,4.82,4.82,0,0,0,2.32-.2c1.6-.69,2-2.76,1.64-4.46a15.12,15.12,0,0,0-.58-1.8l-.08-.23a.49.49,0,0,0-.92.33l.08.24a13.14,13.14,0,0,1,.55,1.68c.3,1.27,0,2.87-1.08,3.34a4,4,0,0,1-1.85.13,3.11,3.11,0,0,0-3.58,1.42c-.1.14-.21.28-.32.41-1.43,1.71-4.13,1.69-6,1a19,19,0,0,1-4.34-2.68c-.5-.38-1-.76-1.52-1.12a16.41,16.41,0,0,0-2.32-1.37.49.49,0,1,0-.41.88,15.37,15.37,0,0,1,2.17,1.29c.5.35,1,.73,1.49,1.09a19.6,19.6,0,0,0,4.57,2.82,8.27,8.27,0,0,0,1.83.48" transform="translate(-30.14 -86.77)"/></g></g></g><g class="cls-10"><g class="cls-3"><g class="cls-4"><path d="M126.74,116.13a.54.54,0,0,0,.18,0,.51.51,0,0,0,.37-.59c-.13-.54-.27-1.07-.43-1.58a25.36,25.36,0,0,0-8.8-12.75l-.23-.17a5.14,5.14,0,0,1-2.07-2.32,4.93,4.93,0,0,1,.33-2.76,6.43,6.43,0,0,0,.43-3,5.59,5.59,0,0,0-.3-1l0-.12a3.68,3.68,0,0,1-.32-1.35,2.61,2.61,0,0,1,1.54-2c2.62-1.41,5.73-.5,7.35.17a16.76,16.76,0,0,1,6.26,4.5.49.49,0,0,0,.74-.63,17.8,17.8,0,0,0-6.63-4.78c-1.78-.73-5.21-1.72-8.18-.11a3.51,3.51,0,0,0-2,2.76,4.42,4.42,0,0,0,.38,1.74l0,.11a5.5,5.5,0,0,1,.26.87,5.8,5.8,0,0,1-.41,2.56,5.69,5.69,0,0,0-.34,3.31,5.92,5.92,0,0,0,2.42,2.82l.23.17a24.49,24.49,0,0,1,8.46,12.27c.15.48.28,1,.41,1.51a.48.48,0,0,0,.4.37" transform="translate(-30.14 -86.77)"/></g></g></g><g class="cls-11"><g class="cls-3"><g class="cls-4"><path d="M125.84,117h.06c.23,0,.53.07.83.09s.65,0,1,0a.49.49,0,0,0,0-1,9.08,9.08,0,0,1-.91,0L126,116a12.4,12.4,0,0,1-8-4.54c-.37-.47-.72-1-1.06-1.5a18,18,0,0,0-1.58-2.15,5.4,5.4,0,0,0-4.29-2c-.24,0-.46.07-.68.11a5.89,5.89,0,0,1-.79.1c-1.37,0-2.41-1.51-2.44-2.87A7.26,7.26,0,0,1,108.91,99a24.51,24.51,0,0,1,6.91-6.36l.07,0,.11-.06a.49.49,0,0,0-.46-.86l-.15.09-.07,0a25.37,25.37,0,0,0-7.2,6.61,8.21,8.21,0,0,0-1.9,4.78c0,1.82,1.46,3.83,3.42,3.82a5,5,0,0,0,1-.12c.2,0,.39-.07.59-.09a4.43,4.43,0,0,1,3.47,1.71,16.51,16.51,0,0,1,1.5,2c.35.52.71,1.06,1.1,1.56a12.87,12.87,0,0,0,5.82,4.2,13.53,13.53,0,0,0,2.75.7" transform="translate(-30.14 -86.77)"/></g></g></g><g class="cls-12"><g class="cls-3"><g class="cls-4"><path d="M102.54,149.32a.47.47,0,0,0,.53-.36,27.51,27.51,0,0,0,.49-11.51,34.23,34.23,0,0,0-4.51-12.24,78.59,78.59,0,0,0-4.78-6.75c-1.15-1.51-2.34-3.07-3.43-4.66a27.43,27.43,0,0,1-4.45-9.57.5.5,0,0,0-.58-.37.49.49,0,0,0-.37.58,28.27,28.27,0,0,0,4.6,9.91c1.1,1.61,2.3,3.19,3.46,4.7a76.71,76.71,0,0,1,4.71,6.66,33.37,33.37,0,0,1,4.39,11.9,26.74,26.74,0,0,1-.47,11.1.49.49,0,0,0,.35.6h.06" transform="translate(-30.14 -86.77)"/></g></g></g><g class="cls-13"><g class="cls-3"><g class="cls-4"><path d="M103,138a.47.47,0,0,0,.36-.09.48.48,0,0,0,.1-.68,28.84,28.84,0,0,0-5.17-4.93c-.65-.53-1.33-1.08-2-1.62a33.51,33.51,0,0,1-7.27-8.88,23.67,23.67,0,0,1-3-8.36,37.15,37.15,0,0,1,.3-9v0a.47.47,0,0,0-.41-.55.48.48,0,0,0-.55.41v0a36.76,36.76,0,0,0-.3,9.26,24.54,24.54,0,0,0,3.09,8.71,34.55,34.55,0,0,0,7.49,9.14c.64.55,1.32,1.1,2,1.64a28,28,0,0,1,5,4.75.49.49,0,0,0,.32.19" transform="translate(-30.14 -86.77)"/></g></g></g><g class="cls-14"><g class="cls-3"><g class="cls-4"><path d="M80.83,191a.46.46,0,0,0,.23,0,.49.49,0,0,0,.32-.56v0a57.71,57.71,0,0,0-4-12.69A57.9,57.9,0,0,0,67,162l-.35-.39-.09-.09-.1-.1-.27-.29a.49.49,0,0,0-.71.67l.28.29.08.09a1.14,1.14,0,0,0,.11.11c.11.11.21.23.32.35a57.33,57.33,0,0,1,10.2,15.46,56.81,56.81,0,0,1,4,12.48h0a.19.19,0,0,0,0,.08.5.5,0,0,0,.39.33" transform="translate(-30.14 -86.77)"/></g></g></g><g class="cls-15"><g class="cls-3"><g class="cls-4"><path d="M77.41,179.43h.18a.47.47,0,0,0,.36-.58c-.07-.36-.14-.68-.18-1a15.51,15.51,0,0,1-.23-2.1,27.31,27.31,0,0,1,0-3.35,41.18,41.18,0,0,1,6.79-20,.49.49,0,0,0-.13-.68.49.49,0,0,0-.68.14,42.1,42.1,0,0,0-6.95,20.45,27.13,27.13,0,0,0-.05,3.46A19,19,0,0,0,76.8,178c0,.31.12.64.2,1a.5.5,0,0,0,.41.38" transform="translate(-30.14 -86.77)"/></g></g></g><g class="cls-16"><g class="cls-3"><g class="cls-4"><path d="M77,176.28a.49.49,0,0,0,.4-.12c3.57-3.25,7.46-7.15,8.36-12.26.56-3.18-.13-6.36-.79-9.44-.17-.78-.34-1.58-.49-2.38a.49.49,0,0,0-1,.19c.15.8.32,1.61.5,2.4.67,3.12,1.3,6.07.78,9.06-.85,4.81-4.6,8.56-8.06,11.71a.49.49,0,0,0,0,.69.51.51,0,0,0,.29.15" transform="translate(-30.14 -86.77)"/></g></g></g><g class="cls-17"><g class="cls-3"><g class="cls-4"><path d="M55.17,186.74a.47.47,0,0,0,.34-.08A54.28,54.28,0,0,1,72.26,179a16.88,16.88,0,0,1,3.9-.64,5.61,5.61,0,0,1,.71,0l.36,0a.49.49,0,0,0,.54-.43.49.49,0,0,0-.43-.54l-.41,0c-.28,0-.54,0-.8,0a18.06,18.06,0,0,0-4.11.66A55.39,55.39,0,0,0,55,185.86a.49.49,0,0,0-.13.68.49.49,0,0,0,.34.2" transform="translate(-30.14 -86.77)"/></g></g></g><g class="cls-18"><g class="cls-3"><g class="cls-4"><path d="M62.26,188.36l.23,0a11.49,11.49,0,0,0,8.39-2.87,31.35,31.35,0,0,0,5.68-6.76.49.49,0,0,0-.13-.68.47.47,0,0,0-.67.13,30.94,30.94,0,0,1-5.5,6.56,10.52,10.52,0,0,1-7.65,2.65,16.38,16.38,0,0,1-2.9-.72c-.52-.16-1.06-.33-1.6-.47a15.27,15.27,0,0,0-2.84-.45.48.48,0,0,0-.52.45.49.49,0,0,0,.45.52,14.4,14.4,0,0,1,2.67.42c.52.13,1,.3,1.55.46a18.76,18.76,0,0,0,2.84.73" transform="translate(-30.14 -86.77)"/></g></g></g><g class="cls-19"><g class="cls-3"><g class="cls-4"><g class="cls-20"><g class="cls-21"><path d="M84.4,245.23a.46.46,0,0,0,.2,0,.49.49,0,0,0,.34-.6c-2.13-7.86-4.55-16.77-5.68-25.62a69.1,69.1,0,0,1-.1-18.66,63.34,63.34,0,0,1,2.2-9.66,103.2,103.2,0,0,1,8-18.27c1.71-3.2,3.5-6.3,5.66-10,3.15-5.37,5.62-9.48,8-13.34a268.42,268.42,0,0,1,18-26.07c1.38-1.74,3.22-4,5.27-6.17l.4-.43c.07-.07.15-.14.22-.22l.21-.22.3-.29c.59-.59,1.18-1.15,1.77-1.67s1.23-1.07,1.82-1.54a77.57,77.57,0,0,1,7.69-5.16c1.41-.86,2.87-1.76,4.27-2.69l.11-.07,0,0a.48.48,0,1,0-.54-.8l-.06,0-.07,0c-1.4.93-2.86,1.82-4.25,2.68a76.9,76.9,0,0,0-7.8,5.23c-.6.47-1.21,1-1.86,1.57s-1.21,1.11-1.8,1.7l-.3.3-.23.23a2.28,2.28,0,0,1-.22.22l-.41.44c-2.07,2.18-3.94,4.47-5.33,6.23a271.54,271.54,0,0,0-18.09,26.16c-2.4,3.87-4.88,8-8,13.37-2.16,3.68-4,6.79-5.68,10a103.6,103.6,0,0,0-8,18.44,62.47,62.47,0,0,0-2.24,9.81,70.21,70.21,0,0,0,.1,18.92C79.44,228,81.86,237,84,244.88a.48.48,0,0,0,.4.35" transform="translate(-30.14 -86.77)"/></g></g></g></g></g><g class="cls-22"><g class="cls-3"><g class="cls-4"><path d="M88.84,172.66a.47.47,0,0,0,.4-.13,63.6,63.6,0,0,1,11.37-8.6,51.51,51.51,0,0,1,5.13-2.6l.15-.06.39-.16a41.63,41.63,0,0,1,12.46-3.19.49.49,0,1,0-.09-1,42.49,42.49,0,0,0-12.74,3.25l-.41.18-.15.06a51.39,51.39,0,0,0-5.23,2.65,64.61,64.61,0,0,0-11.55,8.73.5.5,0,0,0,0,.69.54.54,0,0,0,.29.15" transform="translate(-30.14 -86.77)"/></g></g></g><g class="cls-23"><g class="cls-3"><g class="cls-4"><path d="M128.06,175.32l.38.05a3.87,3.87,0,0,0,2.93-.76,5,5,0,0,0,1.33-3.22l.12-.69a9,9,0,0,1,1.54-3.57.49.49,0,0,0-.8-.57,10.11,10.11,0,0,0-1.69,3.95c-.05.24-.09.48-.13.73a4.26,4.26,0,0,1-1,2.64,3,3,0,0,1-2.21.52,6.71,6.71,0,0,1-5.77-4.91,15,15,0,0,1-.3-2,7.92,7.92,0,0,0-1.1-3.88,7.22,7.22,0,0,0-.89-1,8.36,8.36,0,0,1-.76-.84,4.86,4.86,0,0,1-.56-4.06.14.14,0,0,1,0-.07v0a10.48,10.48,0,0,1,1-2.37l.08-.16-.84-.49.42.24-.42-.24a2,2,0,0,0-.11.2,11.68,11.68,0,0,0-1.06,2.55.83.83,0,0,0,0,.15,5.81,5.81,0,0,0,.73,4.86,7.86,7.86,0,0,0,.85.95,5.29,5.29,0,0,1,1.71,4.31,14.76,14.76,0,0,0,.32,2.17,7.72,7.72,0,0,0,6.26,5.59" transform="translate(-30.14 -86.77)"/></g></g></g><g class="cls-24"><g class="cls-3"><g class="cls-4"><path d="M107.24,184.81a.48.48,0,0,0,.5-.26c.12-.23.22-.45.33-.68a22.34,22.34,0,0,0,1.56-12.67,32,32,0,0,0-3.06-9.38l-.59-1.16a.49.49,0,0,0-.66-.2.47.47,0,0,0-.2.65c.16.32.38.73.58,1.14a31.43,31.43,0,0,1,3,9.09,21.26,21.26,0,0,1-1.48,12.13l-.3.63a.48.48,0,0,0,.21.66.38.38,0,0,0,.15.05" transform="translate(-30.14 -86.77)"/></g></g></g><g class="cls-25"><g class="cls-3"><g class="cls-4"><path d="M107.55,184.15a.48.48,0,0,0,.55-.39,9.07,9.07,0,0,0-.77-5.6,16,16,0,0,0-1-1.71,11.37,11.37,0,0,1-1.25-2.35c-.73-2.13-.1-4.37.57-6.74.27-.94.55-1.92.73-2.88a15.29,15.29,0,0,0,.25-2.43.49.49,0,0,0-.47-.5.5.5,0,0,0-.5.48,14.45,14.45,0,0,1-.24,2.27c-.18.92-.45,1.88-.71,2.8-.68,2.4-1.39,4.9-.56,7.32A12.21,12.21,0,0,0,105.5,177a17,17,0,0,1,1,1.62,8.11,8.11,0,0,1,.69,5,.48.48,0,0,0,.4.56h0" transform="translate(-30.14 -86.77)"/></g></g></g><g class="cls-26"><g class="cls-3"><g class="cls-4"><path d="M33.72,173a3,3,0,0,0,.41,0,13.9,13.9,0,0,0,5.62-1.42,25,25,0,0,1,3-1.06,15.64,15.64,0,0,1,7-.06l.48.09a9.86,9.86,0,0,0,2.67.29,8.83,8.83,0,0,0,3.75-1.38,40.86,40.86,0,0,0,9.56-7.63l.66-.75.3-.34a.49.49,0,0,0-.75-.63c-.09.11-.18.22-.28.32-.22.26-.43.5-.65.73a39.78,39.78,0,0,1-9.32,7.46,8,8,0,0,1-3.34,1.25,9.24,9.24,0,0,1-2.41-.27l-.48-.1a16.7,16.7,0,0,0-7.44.08,24.45,24.45,0,0,0-3.08,1.1A13,13,0,0,1,34.16,172a1.18,1.18,0,0,1-.7-.17c-.18-.18-.19-.57,0-1.16s.4-1.24.61-1.85a27.29,27.29,0,0,0,.89-2.91,10.47,10.47,0,0,0,.26-2.48.49.49,0,0,0-1,0A9,9,0,0,1,34,165.7a24.6,24.6,0,0,1-.85,2.81c-.22.62-.43,1.26-.62,1.9a2.1,2.1,0,0,0,.28,2.13,1.59,1.59,0,0,0,.93.41" transform="translate(-30.14 -86.77)"/></g></g></g><g class="cls-27"><g class="cls-3"><g class="cls-4"><path d="M66,162.26a.51.51,0,0,0,.46-.18c.13-.17.27-.33.41-.49l0,0c.28-.29.57-.57.87-.83a14.94,14.94,0,0,1,2.12-1.5l1-.59c2.31-1.32,4.69-2.69,5.83-5.13a10.91,10.91,0,0,0,.77-2.81c.14-.91.24-1.83.35-2.73a29,29,0,0,1,1-5.71A30.26,30.26,0,0,1,80.3,139a24.39,24.39,0,0,0,1.63-4c.36-1.31,0-2-.44-2.25a2.32,2.32,0,0,0-.95-.35c-2.63-.44-5.32-.78-8-1a.49.49,0,0,0-.08,1c2.66.21,5.32.54,7.91,1a1.19,1.19,0,0,1,.54.16c.3.23.16.93.08,1.21a24.79,24.79,0,0,1-1.57,3.86A28.32,28.32,0,0,0,78,142a28.63,28.63,0,0,0-1.09,5.9c-.1.88-.21,1.8-.35,2.68a10.12,10.12,0,0,1-.69,2.56c-1,2.16-3.25,3.45-5.43,4.7l-1,.6A17.63,17.63,0,0,0,67.14,160c-.32.28-.64.59-.94.9l0,0h0c-.17.18-.32.36-.47.55a.48.48,0,0,0,.08.68.58.58,0,0,0,.23.1" transform="translate(-30.14 -86.77)"/></g></g></g><g class="cls-28"><g class="cls-3"><g class="cls-4"><path d="M70.8,126.47a1.45,1.45,0,0,1,1.18.65,2.19,2.19,0,0,1,.11.87c0,1.38,0,2.64-.07,3.87a93,93,0,0,1-4.73,25.86c-.17.52-.35,1.05-.54,1.58l0-.16c0-.3-.11-.59-.17-.89s-.15-.73-.26-1.23c-.83-3.61-2-7.22-3.06-10.71-1.94-6.22-3.95-12.65-4.29-19.22a6.91,6.91,0,0,1,.61-3.73,2.54,2.54,0,0,1,.88-.93,1,1,0,0,1,.76-.2c.33.09.57.48.82.9.06.1.11.2.18.3,1.25,2,3.86,3,7.54,3A7.51,7.51,0,0,1,70.8,126.47Zm-4.33,35.3h.06a.51.51,0,0,0,.46-.3l-.45-.18.45.17a.22.22,0,0,0,0-.08c.13-.33.26-.67.38-1,.28-.79.56-1.58.81-2.35A93.79,93.79,0,0,0,73,131.91c.06-1.25.08-2.53.08-3.92a3,3,0,0,0-.21-1.28c-.61-1.3-2.32-1.28-3.15-1.27-2.31,0-5.35-.39-6.7-2.53-.06-.09-.11-.18-.16-.27a2.49,2.49,0,0,0-1.42-1.35,1.9,1.9,0,0,0-1.52.32,3.6,3.6,0,0,0-1.2,1.25,7.63,7.63,0,0,0-.74,4.28c.34,6.69,2.37,13.18,4.33,19.46,1.09,3.47,2.21,7.06,3,10.64.09.4.18.8.26,1.21s.11.57.16.85.09.53.13.79.07.48.1.71v.06c0,.15,0,.3,0,.45a.58.58,0,0,0,0,.14.51.51,0,0,0,.39.32" transform="translate(-30.14 -86.77)"/></g></g></g><g class="cls-29"><g class="cls-3"><g class="cls-4"><path d="M78.71,219.54a.5.5,0,0,0,.29,0,17.79,17.79,0,0,0,8.11-9.44,26.83,26.83,0,0,0,.94-2.79,36.64,36.64,0,0,0,1-5.5c.19-1.55.32-3.21.41-5.23l0-.46a25.33,25.33,0,0,1,1-7.26.49.49,0,0,0-.3-.62.48.48,0,0,0-.62.3A25.83,25.83,0,0,0,88.55,196l0,.46c-.09,2-.22,3.65-.41,5.16a34.82,34.82,0,0,1-1,5.36,27.34,27.34,0,0,1-.9,2.69,16.91,16.91,0,0,1-7.66,8.94.49.49,0,0,0-.21.65.48.48,0,0,0,.37.26" transform="translate(-30.14 -86.77)"/></g></g></g><g class="cls-30"><g class="cls-3"><g class="cls-4"><path d="M88.54,202.18a.49.49,0,0,0,.38-.11,10.94,10.94,0,0,0,3.39-4.78,8.35,8.35,0,0,0-.32-6.45,13.63,13.63,0,0,0-.83-1.38c-.23-.35-.45-.69-.64-1.05a.49.49,0,0,0-.86.48c.21.38.45.75.69,1.11a12.19,12.19,0,0,1,.77,1.29,7.37,7.37,0,0,1,.27,5.68,10,10,0,0,1-3.1,4.36.5.5,0,0,0-.06.69.55.55,0,0,0,.31.16" transform="translate(-30.14 -86.77)"/></g></g></g><g class="cls-31"><g class="cls-3"><g class="cls-4"><path d="M88.86,207.87a14.78,14.78,0,0,0,2.31.14,13.47,13.47,0,0,0,12.31-8.71.49.49,0,0,0-.91-.35,12.7,12.7,0,0,1-6.64,7A12.53,12.53,0,0,1,91.14,207a12.83,12.83,0,0,1-3.44-.38.5.5,0,0,0-.59.36.48.48,0,0,0,.35.59c.46.11.93.2,1.4.27" transform="translate(-30.14 -86.77)"/></g></g></g><g class="cls-32"><g class="cls-3"><g class="cls-4"><path d="M91.09,208a.5.5,0,0,0,.52-.3,10.38,10.38,0,0,1,3.57-5,13.16,13.16,0,0,1,3.89-1.49,13.89,13.89,0,0,0,4.23-1.67,3.69,3.69,0,0,0,.34-.25.48.48,0,0,0,.09-.68.5.5,0,0,0-.69-.09,2.16,2.16,0,0,1-.29.21,12.75,12.75,0,0,1-3.93,1.54,13.85,13.85,0,0,0-4.18,1.62,11.3,11.3,0,0,0-3.94,5.47A.48.48,0,0,0,91,208l.12,0" transform="translate(-30.14 -86.77)"/></g></g></g><g class="cls-33"><g class="cls-3"><g class="cls-4"><path d="M32.82,164.39h0a3.54,3.54,0,0,0,2.08-.5l.55-.3a5.75,5.75,0,0,1,1.47-.66,5.66,5.66,0,0,1,3.31.77l.08,0a45.73,45.73,0,0,0,5.51,2.07,11.92,11.92,0,0,0,3.91.7,12.34,12.34,0,0,0,3.34-.69,72.24,72.24,0,0,0,10.28-4.11A13.73,13.73,0,0,0,66,160.11a.5.5,0,0,0,.06-.69.47.47,0,0,0-.68-.06A12.77,12.77,0,0,1,63,160.82a70.78,70.78,0,0,1-10.14,4.06,11.61,11.61,0,0,1-3.08.65,11.26,11.26,0,0,1-3.6-.65,48.07,48.07,0,0,1-5.39-2l-.08,0a6.36,6.36,0,0,0-3.92-.83,6.3,6.3,0,0,0-1.74.76l-.52.28a2.55,2.55,0,0,1-1.51.4h0c-1.17-.17-1.81-1.68-1.84-3.1-.09-3.69,1.95-7.1,4.06-10.28a.48.48,0,0,0-.13-.67.49.49,0,0,0-.68.13c-2.19,3.31-4.33,6.87-4.23,10.84,0,1.78.9,3.79,2.68,4" transform="translate(-30.14 -86.77)"/></g></g></g><g class="cls-34"><g class="cls-3"><g class="cls-4"><g class="cls-35"><g class="cls-36"><path d="M63.24,159c-3.58,1.19-6.68,1.25-9.24.14A16,16,0,0,1,51.88,158a13.35,13.35,0,0,0-3.49-1.6,12.6,12.6,0,0,0-1.32-.23,8.93,8.93,0,0,1-1.68-.34A8.52,8.52,0,0,1,42.11,153a10,10,0,0,0-3.44-2.93,10.31,10.31,0,0,0-2.66-.63c-.4-.06-.77-.11-1.14-.18a4.16,4.16,0,0,1-2-.89,2.78,2.78,0,0,1-.83-2.76,5.93,5.93,0,0,1,1.77-2.45,7.64,7.64,0,0,0,1.91-2.55,7.79,7.79,0,0,0,.4-2.47,4.76,4.76,0,0,1,.63-2.66,4.24,4.24,0,0,1,1.14-1,5,5,0,0,1,3.21-1.14h.05a5.13,5.13,0,0,1,2.74,1.75,30.91,30.91,0,0,1,5.25,7.3c.32.61.62,1.24.91,1.85.51,1,1,2.14,1.64,3.16a34.64,34.64,0,0,0,6.53,7.35A37.13,37.13,0,0,0,63.24,159Zm-6.94,1.79a16.47,16.47,0,0,0,8-1.14c.38.21.78.41,1.16.58l.71.29a.49.49,0,1,0,.34-.91l-.66-.27c-.42-.19-.84-.41-1.27-.65l0,0h0a32.44,32.44,0,0,1-5.71-4.51A33.89,33.89,0,0,1,52.48,147c-.6-1-1.1-2.05-1.6-3.08-.29-.61-.59-1.25-.92-1.88a31.36,31.36,0,0,0-5.42-7.52,5.84,5.84,0,0,0-3.36-2,5.89,5.89,0,0,0-3.88,1.3,5.19,5.19,0,0,0-1.39,1.21,5.54,5.54,0,0,0-.81,3.19,7.48,7.48,0,0,1-.33,2.17,7.13,7.13,0,0,1-1.7,2.21,6.72,6.72,0,0,0-2,2.88,3.72,3.72,0,0,0,1.13,3.75,5.06,5.06,0,0,0,2.5,1.11c.39.08.8.14,1.19.2a9.54,9.54,0,0,1,2.41.55,9.17,9.17,0,0,1,3.09,2.68,9.26,9.26,0,0,0,3.69,3,9,9,0,0,0,1.88.4c.43.06.83.11,1.22.2a12.51,12.51,0,0,1,3.22,1.5A19,19,0,0,0,53.61,160a11.05,11.05,0,0,0,2.69.75" transform="translate(-30.14 -86.77)"/></g></g></g></g></g><g class="cls-37"><g class="cls-3"><g class="cls-4"><path d="M41,133.39a.48.48,0,0,0,.49-.24,38.21,38.21,0,0,0,1.81-4c.25-.64.52-1.29.8-1.92,1.21-2.73,3.35-6.08,6.72-6.51a8.29,8.29,0,0,1,3.6.51,16.35,16.35,0,0,1,4.38,2.24.49.49,0,0,0,.68-.12.48.48,0,0,0-.11-.68,17.54,17.54,0,0,0-4.64-2.37,9.15,9.15,0,0,0-4-.54c-3.81.48-6.17,4.11-7.48,7.08-.29.64-.55,1.3-.82,1.94a34.49,34.49,0,0,1-1.75,3.86.48.48,0,0,0,.19.66.34.34,0,0,0,.17,0" transform="translate(-30.14 -86.77)"/></g></g></g><path d="M155,196.34a3,3,0,0,0,1.81-.72c2.12-1.73,4-6.06,5-8.58a239.93,239.93,0,0,0,10.32-30.24,39.78,39.78,0,0,0,1.25-8,8.41,8.41,0,0,0-.86-4.49,3.58,3.58,0,0,0-3.46-2.21h-.4a1,1,0,0,1-.47.08c-3.47.56-6.77,4.73-8.35,7.64a7.52,7.52,0,0,0-.55,1.1c-.24.4-.47.71-.71,1.11a43.93,43.93,0,0,0-6.93,17.4,76.65,76.65,0,0,0-1.1,15.28c0,2.52.32,7.48,1.34,9.84A2.92,2.92,0,0,0,155,196.34Zm-.63-.87a.76.76,0,0,1-.71-.47c-1.42-2-1.73-8.35-1.73-10.72a78,78,0,0,1,1-14.33c.47-2.12,2.13-9.76,3.54-11.18.24.08.4.16.32.24a.49.49,0,0,0,0,.47v2.36a2.51,2.51,0,0,0,2.28,2.28,1.9,1.9,0,0,0,1.18-.39,1.23,1.23,0,0,0,.48-.31,29.23,29.23,0,0,0,6.14-7.09c.16-.24.31-.55.55-1a1.21,1.21,0,0,0-.08-.94.47.47,0,0,0-.47-.24.38.38,0,0,0-.31.16c-.09.08-.09.08-.09.16l-.23.23a25.11,25.11,0,0,1-6,7.25,5.5,5.5,0,0,1-1.34.94.26.26,0,0,1-.23.08.59.59,0,0,1-.63-.47,3.66,3.66,0,0,1-.16-1.89c.55-6.06,2.36-10.55,7.8-13.63.08-.07.23-.07.39-.15a1.89,1.89,0,0,1,.39-.24v-.31c0-.32-.39-.4-.63-.4a1.78,1.78,0,0,0-.62.16,4.06,4.06,0,0,1-.72.16,2.08,2.08,0,0,1-.55-.16,8.31,8.31,0,0,1,.87-.71,3.23,3.23,0,0,0,.87-.63,6.44,6.44,0,0,1,3.54-1.49c1.58,0,2.13.31,2.68,1.89a9.86,9.86,0,0,1,.24,4.25,49.17,49.17,0,0,1-1.9,9c-2.59,9.69-6.69,20.25-10.47,29.62-.87,2.44-2.21,5.19-4.17,6.85a2,2,0,0,1-.71.47A2.08,2.08,0,0,1,154.34,195.47Z" transform="translate(-30.14 -86.77)"/><path d="M170.64,193.81c.55,0,.63-.47.87-.86l1.41-5.36c.4-1.18.79-2.44,1.18-3.7s.71-2.52,1.11-3.7l.47-1.18a.59.59,0,0,1,.55-.39.32.32,0,0,1,.24.07l.86.48a3.83,3.83,0,0,0,1.74.39,4.29,4.29,0,0,0,1.25-.16,10,10,0,0,0,3.86-2.44,30.09,30.09,0,0,0,3.08-3.39c.94-1.18,1.88-2.28,2.91-3.46A.71.71,0,0,0,190,169a.28.28,0,0,0-.23-.08c-.16,0-.32.08-.55.32a10.61,10.61,0,0,0-.95,1.1l-3.23,3.77a16.7,16.7,0,0,1-2.91,2.84,6.25,6.25,0,0,1-3.79,1.57,2.78,2.78,0,0,1-1.57-.47.68.68,0,0,1-.31-.94,6.77,6.77,0,0,1,1.18-1.89,71.35,71.35,0,0,0,6.38-8.82,5.14,5.14,0,0,0,.7-1.5c.24-.39-.15-1-.55-1.26a2.49,2.49,0,0,0-.47-.15,1.24,1.24,0,0,0-.71.31,13,13,0,0,0-2.75,3.38,61.87,61.87,0,0,0-3.78,6.78,11,11,0,0,1-1.89,2.76c-.55.39-.87.78-.24,1.49.16.16.16.47-.08.87-.47,1.5-.94,2.91-1.42,4.33s-.94,2.91-1.33,4.41c-.09.16-.16.31-.24.47s-.16.39-.32.79c0-.32,0-.55-.08-.63v-.32c.79-7,1.5-14,4.49-19.13l3.55-6.14c1.18-2.05,2.36-4.1,3.54-6.23a44.15,44.15,0,0,0,5-11.81,2.66,2.66,0,0,0-.23-1.65.84.84,0,0,0-.71-.4c-.16,0-.24,0-.32.08a1.94,1.94,0,0,0-.71.48l-.7.7c-4.1,4.73-7.41,11.81-9.93,19.14a105,105,0,0,0-5,21.26,40.65,40.65,0,0,0-.55,6.85,2.66,2.66,0,0,1,.08.79,2.81,2.81,0,0,0,.16.87A1.09,1.09,0,0,0,170.64,193.81Zm5.2-28.42c.63-4.1,6.45-17.88,10.23-20.4.24.55,0,.86-.23,1.42a76.53,76.53,0,0,1-4.1,9.05l-5,8.66A2.16,2.16,0,0,1,175.84,165.39Z" transform="translate(-30.14 -86.77)"/><path d="M185.39,187.59a1.38,1.38,0,0,0,1.15-.55,24.21,24.21,0,0,0,1.69-2.36c.38-.71.69-1.34,1.07-2.05s.69-1.26,1.07-2c.23-.55.31-.94.92-1.26.08.4.23.71.31,1s.15.63.23.86a1.92,1.92,0,0,0,1.84,1.42,2,2,0,0,0,1.68-.87,7.59,7.59,0,0,0,1.38-2.75,30.1,30.1,0,0,0,1.38-5.75,3.59,3.59,0,0,0,.07-1.26.87.87,0,0,1,.46-1,1.53,1.53,0,0,1,1.08-.31c1.15,0,5.29-.08,5.29-1.26-.08-.55-.39-.47-.77-.47a3,3,0,0,0-1.15.31,9.91,9.91,0,0,1-3.53.55c-1-.08-1,0-1.3-.94s-.53-2.13-1.68-2.13a1.06,1.06,0,0,0-1.07.87,1.67,1.67,0,0,0,.07,1.1,5.12,5.12,0,0,0,.85,1,1.83,1.83,0,0,1,.84,2.2,30.09,30.09,0,0,1-2.53,8.82,4.75,4.75,0,0,1-.92.87,2.73,2.73,0,0,1-.46.15.58.58,0,0,1-.54-.39,6.05,6.05,0,0,1-.22-2.6,18.84,18.84,0,0,1,.22-2,3.63,3.63,0,0,0-.07-.94.61.61,0,0,0-.69-.55.58.58,0,0,0-.54.39l-.84,1.42-1.61,3.07c-.54,1-1.15,2-1.68,3.07a10.19,10.19,0,0,1-1.38,2.12c-.08.16-.24.32-.31.48s-.23.24-.46.16-.39-.16-.39-.4a.49.49,0,0,0,0-.47c0-4.73,2-9.53,4.37-13.55a3.42,3.42,0,0,1,1-1.1,2.87,2.87,0,0,0,1-1.49.63.63,0,0,0-.31-.71.58.58,0,0,0-.31-.16.52.52,0,0,0-.3.16c-2.07,1.49-5,8.35-5.9,10.87a18.86,18.86,0,0,0-.85,5.82,2,2,0,0,1,.08.63,2,2,0,0,0,.15.63A1.62,1.62,0,0,0,185.39,187.59Zm11.72-18.27c-.15.08-.3,0-.53-.31a.85.85,0,0,1,0-.63c.07-.08.07-.16.15-.24s.08,0,.16-.08a.4.4,0,0,1,.38.32.27.27,0,0,0,.08.23v.32C197.27,169.16,197.19,169.32,197.11,169.32Z" transform="translate(-30.14 -86.77)"/><path d="M203.32,181.29a2.75,2.75,0,0,0,1.07-.23,3.67,3.67,0,0,0,.54-.32,2.41,2.41,0,0,1,.54-.31c.61-.4,9.95-9.3,9.95-10.56-.07-.31-.23-.78-.61-.78a.47.47,0,0,0-.3.16,6,6,0,0,1-.62.62c-.23.24-.38.48-.61.71l-5.06,5.51a15.15,15.15,0,0,1-3.6,3.08,3,3,0,0,1-1.53.86l-.31.08c-.46,0-.68-.24-.68-.79a9.48,9.48,0,0,1,.15-2.52,20.87,20.87,0,0,1,3.14-7c.15-.24.3-.55.54-1,.22-.24-.24-.87-.46-.87a.58.58,0,0,0-.62.32,21.31,21.31,0,0,0-4,9,6.85,6.85,0,0,0,0,1.81A2.49,2.49,0,0,0,203.32,181.29Zm3.22-15.43c.15.08.31,0,.46-.16a32.37,32.37,0,0,0,2.6-4.17c.08-.08.08-.24.08-.55a.29.29,0,0,1-.08-.24c0-.08-.08-.08-.15-.16a.27.27,0,0,0-.23-.08.38.38,0,0,0-.38.32,7.63,7.63,0,0,0-.62,1.1c-.23.39-.46.71-.69,1.1-.3.55-.68,1.1-1.07,1.73l-.23.48C206.15,165.46,206.31,165.62,206.54,165.86Z" transform="translate(-30.14 -86.77)"/><path d="M217.57,192.16a3.12,3.12,0,0,0,.84-.16,5.36,5.36,0,0,0,3.06-2.68c.24-.39.16-.7-.3-.94-.08-.08-.16-.16-.23-.16s-.31.16-.46.4a7.94,7.94,0,0,1-1.92,2,3.67,3.67,0,0,1-1.45.55c-.54,0-.92-.55-1.15-1.74a17.17,17.17,0,0,1,.08-5.27c1.14-6.38,4.67-11.81,8.58-16.85l.92-1.19a1.11,1.11,0,0,0,0-1.34.62.62,0,0,0-.62-.39c-.07,0-.3.08-.61.16h-.15a.27.27,0,0,1-.23.08,67.85,67.85,0,0,0-7.13,3.78c-.15-.4-.15-.63.08-.87a4.73,4.73,0,0,1,.54-.94c.15-.24.3-.55.46-.79a34.16,34.16,0,0,0,1.84-3.62,2.91,2.91,0,0,0-.16-1.82,1.2,1.2,0,0,0-1-.63,1.08,1.08,0,0,0-.53.08c-3,1.42-5.52,5.6-7,8.51a3.47,3.47,0,0,0-.31.86,2.09,2.09,0,0,0,.31,2.05,1.9,1.9,0,0,0,1.37.63,7.36,7.36,0,0,0,2.92-1.1c2.22-1.26,4.44-2.44,6.66-3.62a1.79,1.79,0,0,1,.38-.24.47.47,0,0,1,.31-.08.87.87,0,0,0,.31.16,3.33,3.33,0,0,1-.31.71,3.69,3.69,0,0,0-.53.63c-3.61,5.2-6.52,9.84-7.51,16.22a14.3,14.3,0,0,0,.3,5.67A2.67,2.67,0,0,0,217.57,192.16Zm-5.44-21.58c-.23-.08-.31-.15-.31-.39.61-2.6,3.91-7.25,6.21-8.74h.31a.64.64,0,0,1,.15.31,20.75,20.75,0,0,1-2.07,4.1,9.74,9.74,0,0,1-.84,1.49,6,6,0,0,0-.92,1.5,3.57,3.57,0,0,1-2.38,1.73Zm4.59-2.2v-.08l.08.08Z" transform="translate(-30.14 -86.77)"/><path d="M291.6,198.69c1,0,1.42-.78,1.73-1.65.55-1.26,1-2.6,1.58-3.94a232.85,232.85,0,0,1,9.6-22.36,3.29,3.29,0,0,0,.4-1c.07-.23-.08-.39-.32-.62a.28.28,0,0,0-.23-.08.73.73,0,0,0-.4.24,80.56,80.56,0,0,0-5.12,10.47c-2.12,5-4,9.68-6,14.72l-.71,1.5c0,.08-.08.08-.31.08a6.94,6.94,0,0,1-.32-1,30.42,30.42,0,0,1-.24-3.86c-.08-1.27-.08-2.52-.15-3.86a73.16,73.16,0,0,1,3.62-25.75,11.71,11.71,0,0,1,1.73-3.63c1-1.33,1.89-2.67,2.76-3.94s1.81-2.52,2.67-3.77a40.32,40.32,0,0,0,2.45-3.94,10.71,10.71,0,0,0,1-2.36,1.79,1.79,0,0,0,.08-1.42c-.24-.55-.48-.79-.87-.79-.86,0-1.89,1.26-2.44,1.89a34.85,34.85,0,0,0-5.9,10.24c-3.16,8.82-12.84,19.84-19,26.85a6.27,6.27,0,0,1-1,1c-.08.08-.15.08-.39.08a.61.61,0,0,1-.16-.32,9,9,0,0,1,.79-3.23c1.89-5.35,7.56-12.28,12.52-15.12a1.66,1.66,0,0,0,.79-.47c.23-.08.31-.24.08-.47-.08-.08-.16-.08-.24-.16a.28.28,0,0,0-.23-.08.91.91,0,0,0-.64.24c-5.59,2.28-13.46,11.89-14.25,18.19a5.72,5.72,0,0,0-.08,1.65,1.46,1.46,0,0,0,1.5,1.34,2.07,2.07,0,0,0,1-.4,4.43,4.43,0,0,0,.87-.86l.79-.79a145.15,145.15,0,0,0,12.83-16.06c.24-.32.4-.55.55-.71s.16-.08.32-.08c.23.4,0,.71-.08,1a71.83,71.83,0,0,0-2.44,17.41,72.37,72.37,0,0,0,.47,13.07,9.88,9.88,0,0,0,.39,2.05C290.73,198.46,291.05,198.69,291.6,198.69Zm6.77-45.91c-.15-.15-.24-.31-.15-.39.23-.47,4.25-8.43,5.59-8.43.07-.15.15-.23.23-.15s0,.15-.16.23a1.23,1.23,0,0,1-.31,1,60,60,0,0,1-4.8,7.32c-.08.08-.16.16-.24.16S298.45,152.71,298.37,152.78Z" transform="translate(-30.14 -86.77)"/><path d="M312.62,182.47a1.69,1.69,0,0,0,1.34-.55,1.76,1.76,0,0,0,.71-.63c.63-.7,1.18-1.42,1.74-2.12l5.66-8.27a1.51,1.51,0,0,0,.32-.4l.24-.47c.23-.32,0-.71-.32-.94a.28.28,0,0,0-.24-.08.44.44,0,0,0-.39.24,7.2,7.2,0,0,0-.55.7c-.63.87-1.26,1.73-1.81,2.6s-1.26,1.73-1.81,2.6c-.48.71-.95,1.42-1.42,2s-1,1.42-1.58,2.12a5.78,5.78,0,0,1-1.81,1.89.64.64,0,0,1-.94-.39,9.62,9.62,0,0,1,.16-3.7A67,67,0,0,1,314.67,167a16.59,16.59,0,0,0,.71-2.68,1.86,1.86,0,0,0-.24-1.57.7.7,0,0,0-.63-.32.67.67,0,0,0-.47.16,12.06,12.06,0,0,0-1.34,1.5,80,80,0,0,0-4.25,7L306,175.31a6.07,6.07,0,0,1-.47.63,2.76,2.76,0,0,0-.4.63.36.36,0,0,1-.47.08.93.93,0,0,1-.32-.4,15.51,15.51,0,0,1,2.37-9c.16-.4.16-.64,0-.79a.67.67,0,0,0-.47-.24.73.73,0,0,0-.56.24,3.61,3.61,0,0,0-1.1,1.65,17.41,17.41,0,0,0-1.57,7.72,3.16,3.16,0,0,0,.31,1.57,1.82,1.82,0,0,0,1.5.95,1.7,1.7,0,0,0,1.26-.55,13,13,0,0,0,1.1-1.5l2.29-4c1-1.89,2-3.79,3.22-5.68.08-.07.08-.23.16-.39a.68.68,0,0,1,.48-.16,1.35,1.35,0,0,1-.24,1.34c-.87,2.52-1.58,5-2.21,7.64a17.08,17.08,0,0,0-.55,4.41,3.81,3.81,0,0,0,.39,1.73A1.94,1.94,0,0,0,312.62,182.47Z" transform="translate(-30.14 -86.77)"/><path d="M321.05,181a1.29,1.29,0,0,0,.87-.39c1.73-1.34,3.78-6.54,4.41-8.67.15-.63.47-.94.86-.94a1.15,1.15,0,0,1,.48.07,15.77,15.77,0,0,0,6.3-1c.39-.08.47-.32.31-.71-.08-.23-.31-.39-.71-.39a5.33,5.33,0,0,0-.94.32,13.28,13.28,0,0,1-4.33.78h-.48c-.7,0-.79-.16-.86-1.1a3.23,3.23,0,0,0-.55-1.58c-.24-.39-.48-.55-.71-.47l-1.42.24a2.19,2.19,0,0,0-1.26.71,18.24,18.24,0,0,0-4,9.37,5.23,5.23,0,0,0,.24,2.2,2,2,0,0,0,1,1.26A1.25,1.25,0,0,0,321.05,181Zm-.55-1.42c-.55-.63-.31-1.42-.23-2.13a15.84,15.84,0,0,1,3.38-8.27,1,1,0,0,1,.39-.31.61.61,0,0,1,.32.16c1.18,1.18,1.26,1.34.71,2.91S322.07,179.56,320.5,179.56Zm5.2-10.4c-.4,0-.47-.15-.4-.55.08-.23.24-.39.4-.31s.15.16.15.39A.63.63,0,0,1,325.7,169.16Z" transform="translate(-30.14 -86.77)"/><path d="M228.27,186a2.71,2.71,0,0,0,1.07-.23,3.5,3.5,0,0,0,.54-.32,3.67,3.67,0,0,1,.54-.32c.61-.39,10-9.29,10-10.55-.08-.31-.23-.79-.62-.79a.59.59,0,0,0-.3.16,4.12,4.12,0,0,1-.62.63c-.22.24-.38.47-.61.71l-5.06,5.51a15.07,15.07,0,0,1-3.59,3.07,3,3,0,0,1-1.54.87l-.3.08c-.46,0-.69-.24-.69-.79a9.48,9.48,0,0,1,.15-2.52,21.41,21.41,0,0,1,3.14-7c.16-.23.31-.55.54-.94.23-.24-.23-.87-.46-.87s-.46.08-.62.32a21.57,21.57,0,0,0-4,9,7.9,7.9,0,0,0,0,1.82A2.5,2.5,0,0,0,228.27,186Zm3.22-15.43c.15.07.31,0,.46-.16a30.8,30.8,0,0,0,2.6-4.18c.08-.07.08-.23.08-.55a.29.29,0,0,1-.08-.24c0-.07-.07-.07-.15-.15a.26.26,0,0,0-.23-.08.4.4,0,0,0-.38.31,8.82,8.82,0,0,0-.62,1.11c-.22.39-.45.71-.68,1.1-.31.55-.69,1.1-1.07,1.73l-.24.47C231.11,170.15,231.26,170.31,231.49,170.55Z" transform="translate(-30.14 -86.77)"/><path d="M336.47,192.16a3.12,3.12,0,0,0,.84-.16,5.39,5.39,0,0,0,3.06-2.68c.24-.39.16-.7-.3-.94-.08-.08-.16-.16-.23-.16s-.31.16-.46.4a7.94,7.94,0,0,1-1.92,2,3.67,3.67,0,0,1-1.45.55c-.54,0-.92-.55-1.15-1.74a17.17,17.17,0,0,1,.08-5.27c1.14-6.38,4.67-11.81,8.58-16.85l.92-1.19a1.11,1.11,0,0,0,0-1.34.62.62,0,0,0-.62-.39c-.08,0-.3.08-.61.16h-.15a.27.27,0,0,1-.23.08,67.85,67.85,0,0,0-7.13,3.78c-.15-.4-.15-.63.08-.87a4.73,4.73,0,0,1,.54-.94c.15-.24.3-.55.46-.79a32.3,32.3,0,0,0,1.83-3.62,2.84,2.84,0,0,0-.15-1.82,1.2,1.2,0,0,0-1-.63,1.08,1.08,0,0,0-.53.08c-3,1.42-5.52,5.6-7,8.51a3.47,3.47,0,0,0-.31.86,2.09,2.09,0,0,0,.31,2.05,1.9,1.9,0,0,0,1.37.63,7.36,7.36,0,0,0,2.92-1.1c2.22-1.26,4.44-2.44,6.66-3.62a1.79,1.79,0,0,1,.38-.24.47.47,0,0,1,.31-.08.87.87,0,0,0,.31.16,3.33,3.33,0,0,1-.31.71,3.69,3.69,0,0,0-.53.63c-3.61,5.2-6.52,9.84-7.51,16.22a14.3,14.3,0,0,0,.3,5.67A2.67,2.67,0,0,0,336.47,192.16ZM331,170.58c-.23-.08-.31-.15-.31-.39.61-2.6,3.91-7.25,6.21-8.74h.31a.64.64,0,0,1,.15.31,20.75,20.75,0,0,1-2.07,4.1,9.74,9.74,0,0,1-.84,1.49,6,6,0,0,0-.92,1.5,3.57,3.57,0,0,1-2.38,1.73Zm4.59-2.2v-.08l.08.08Z" transform="translate(-30.14 -86.77)"/><path d="M257.46,198.72a3,3,0,0,0,1.81-.72c2.13-1.73,4-6.06,5-8.58a239.93,239.93,0,0,0,10.32-30.24,40.52,40.52,0,0,0,1.26-8,8.51,8.51,0,0,0-.87-4.49,3.59,3.59,0,0,0-3.46-2.21h-.4a1,1,0,0,1-.47.08c-3.46.56-6.77,4.73-8.35,7.64a7.52,7.52,0,0,0-.55,1.1c-.24.4-.47.72-.71,1.11a43.93,43.93,0,0,0-6.93,17.4,76.65,76.65,0,0,0-1.1,15.28c0,2.52.32,7.48,1.34,9.84A2.92,2.92,0,0,0,257.46,198.72Zm-.63-.87a.76.76,0,0,1-.71-.47c-1.42-2-1.73-8.35-1.73-10.71a78,78,0,0,1,1-14.34c.47-2.12,2.13-9.76,3.54-11.18.24.08.4.16.32.24a.49.49,0,0,0,0,.47v2.36a2.51,2.51,0,0,0,2.28,2.28,1.9,1.9,0,0,0,1.18-.39,1.23,1.23,0,0,0,.48-.31,29.23,29.23,0,0,0,6.14-7.09c.16-.24.31-.55.55-1a1.21,1.21,0,0,0-.08-.94.47.47,0,0,0-.47-.24.38.38,0,0,0-.31.16c-.09.08-.09.08-.09.16l-.23.23a25.11,25.11,0,0,1-6,7.25,6,6,0,0,1-1.33,1,.32.32,0,0,1-.24.07.59.59,0,0,1-.63-.47,3.66,3.66,0,0,1-.16-1.89c.55-6.06,2.36-10.55,7.8-13.62.08-.08.23-.08.39-.16A1.89,1.89,0,0,1,269,149v-.31c0-.32-.39-.4-.63-.4a1.78,1.78,0,0,0-.62.16,3.88,3.88,0,0,1-.72.16,2.08,2.08,0,0,1-.55-.16,9.8,9.8,0,0,1,.87-.71,3.23,3.23,0,0,0,.87-.63,6.44,6.44,0,0,1,3.54-1.49c1.58,0,2.13.31,2.68,1.89a9.86,9.86,0,0,1,.24,4.25,49.17,49.17,0,0,1-1.9,9c-2.59,9.69-6.69,20.25-10.47,29.62-.86,2.44-2.2,5.19-4.17,6.85a2,2,0,0,1-.71.47A2.08,2.08,0,0,1,256.83,197.85Z" transform="translate(-30.14 -86.77)"/></svg>