<svg id="Layer_1" data-name="Layer 1" xmlns="http://www.w3.org/2000/svg" viewBox="0 0 554 24.5"><defs><style>.cls-1{fill:none;stroke:#ef4a68;stroke-miterlimit:10;stroke-width:4.5px;}</style></defs><path class="cls-1" d="M79,263c16.29,0,16.29,20,32.58,20s16.3-20,32.59-20,16.3,20,32.59,20,16.29-20,32.58-20,16.3,20,32.59,20,16.29-20,32.59-20,16.29,20,32.58,20,16.3-20,32.59-20,16.3,20,32.59,20,16.29-20,32.59-20,16.29,20,32.58,20,16.3-20,32.59-20,16.29,20,32.59,20,16.3-20,32.59-20,16.3,20,32.59,20,16.3-20,32.6-20S616.7,283,633,283" transform="translate(-79 -260.75)"/></svg>