<svg id="Layer_1" data-name="Layer 1" xmlns="http://www.w3.org/2000/svg" viewBox="0 0 322 13.21"><defs><style>.cls-1{fill:none;stroke:#ef4a68;stroke-miterlimit:10;stroke-width:2.43px;}</style></defs><path class="cls-1" d="M79,267.61c9.47,0,9.47,10.78,18.94,10.78s9.47-10.78,18.94-10.78,9.47,10.78,18.94,10.78,9.47-10.78,18.94-10.78,9.47,10.78,18.94,10.78,9.47-10.78,18.94-10.78,9.47,10.78,18.93,10.78,9.48-10.78,19-10.78,9.46,10.78,18.93,10.78,9.47-10.78,18.94-10.78,9.47,10.78,18.94,10.78,9.48-10.78,18.95-10.78,9.47,10.78,18.94,10.78,9.47-10.78,18.94-10.78,9.47,10.78,18.94,10.78,9.48-10.78,18.95-10.78,9.48,10.78,18.95,10.78" transform="translate(-79 -266.4)"/></svg>